PaytoneTwo-Rounded.ufo
<glyph name="exclam" format="1">
  <advance width="625"/>
  <unicode hex="0021"/>
  <outline>
    <contour>
      <point x="94.0" y="1331.2383728" type="line" smooth="yes"/>
      <point x="94.0" y="1405.04994146"/>
      <point x="102.950058537" y="1414.0"/>
      <point x="176.761627197" y="1414.0" type="curve" smooth="yes"/>
      <point x="443.238372803" y="1414.0" type="line" smooth="yes"/>
      <point x="517.049941463" y="1414.0"/>
      <point x="526.0" y="1405.04994146"/>
      <point x="526.0" y="1331.2383728" type="curve" smooth="yes"/>
      <point x="526.0" y="1178.7616272" type="line" smooth="yes"/>
      <point x="526.0" y="1128.42927178"/>
      <point x="521.568948713" y="1063.87487817"/>
      <point x="514.691666677" y="1014.01458341" type="curve" smooth="yes"/>
      <point x="457.308333323" y="597.985416592" type="line" smooth="yes"/>
      <point x="447.164228489" y="524.440656549"/>
      <point x="437.479430128" y="516.0"/>
      <point x="363.238372803" y="516.0" type="curve" smooth="yes"/>
      <point x="258.761627197" y="516.0" type="line" smooth="yes"/>
      <point x="184.513455285" y="516.0"/>
      <point x="174.808225294" y="524.429625967"/>
      <point x="164.414432144" y="597.946699469" type="curve" smooth="yes"/>
      <point x="105.585567856" y="1014.05330053" type="line" smooth="yes"/>
      <point x="98.5124353392" y="1064.08277443"/>
      <point x="94.0" y="1128.23462984"/>
      <point x="94.0" y="1178.7616272" type="curve" smooth="yes"/>
    </contour>
    <contour>
      <point x="548" y="176" type="curve" smooth="yes"/>
      <point x="548" y="39.1102"/>
      <point x="435.114" y="-27.1006"/>
      <point x="320.944" y="-27.1006" type="curve" smooth="yes"/>
      <point x="204.144" y="-27.1006"/>
      <point x="86" y="42.1943"/>
      <point x="86" y="176" type="curve" smooth="yes"/>
      <point x="86" y="302.187"/>
      <point x="191.873" y="382"/>
      <point x="318" y="382" type="curve" smooth="yes"/>
      <point x="442.258" y="382"/>
      <point x="548" y="299.182"/>
    </contour>
  </outline>
</glyph>
<glyph name="quotedbl" format="1">
  <advance width="792"/>
  <unicode hex="0022"/>
  <outline>
    <contour>
      <point x="659.238372803" y="1534.0" type="line" smooth="yes"/>
      <point x="732.499444058" y="1534.0"/>
      <point x="740.922292357" y="1524.56076754"/>
      <point x="732.611829588" y="1451.7725764" type="curve" smooth="yes"/>
      <point x="693.388170412" y="1108.2274236" type="line" smooth="yes"/>
      <point x="684.972661884" y="1034.5191765"/>
      <point x="675.425477311" y="1026.0"/>
      <point x="601.238372803" y="1026.0" type="curve" smooth="yes"/>
      <point x="570.761627197" y="1026.0" type="line" smooth="yes"/>
      <point x="496.659184399" y="1026.0"/>
      <point x="487.286517536" y="1034.62974028"/>
      <point x="481.180770041" y="1108.48020998" type="curve" smooth="yes"/>
      <point x="452.819229959" y="1451.51979002" type="line" smooth="yes"/>
      <point x="446.768996062" y="1524.69880954"/>
      <point x="455.332925532" y="1534.0"/>
      <point x="528.761627197" y="1534.0" type="curve" smooth="yes"/>
    </contour>
    <contour>
      <point x="271.238372803" y="1534.0" type="line" smooth="yes"/>
      <point x="344.499444058" y="1534.0"/>
      <point x="352.922292357" y="1524.56076754"/>
      <point x="344.611829588" y="1451.7725764" type="curve" smooth="yes"/>
      <point x="305.388170412" y="1108.2274236" type="line" smooth="yes"/>
      <point x="296.972661884" y="1034.5191765"/>
      <point x="287.425477311" y="1026.0"/>
      <point x="213.238372803" y="1026.0" type="curve" smooth="yes"/>
      <point x="182.761627197" y="1026.0" type="line" smooth="yes"/>
      <point x="108.670805861" y="1026.0"/>
      <point x="99.31936609" y="1034.64405066"/>
      <point x="93.5034446832" y="1108.50625252" type="curve" smooth="yes"/>
      <point x="66.4965553168" y="1451.49374748" type="line" smooth="yes"/>
      <point x="60.7310266464" y="1524.71596159"/>
      <point x="69.3127745141" y="1534.0"/>
      <point x="142.761627197" y="1534.0" type="curve" smooth="yes"/>
    </contour>
  </outline>
</glyph>
<glyph name="numbersign" format="1">
  <advance width="1068"/>
  <unicode hex="0023"/>
  <outline>
    <contour>
      <point x="116.522353661" y="502.0" type="line" smooth="yes"/>
      <point x="63.0170154385" y="502.0"/>
      <point x="56.9124508438" y="508.957437684"/>
      <point x="63.8699659632" y="562.008490469" type="curve" smooth="yes"/>
      <point x="64.1300340368" y="563.991509531" type="line" smooth="yes"/>
      <point x="71.1883808108" y="617.811403682"/>
      <point x="78.2415903498" y="624.0"/>
      <point x="132.522353661" y="624.0" type="curve" smooth="yes"/>
      <point x="240" y="624" type="line"/>
      <point x="278" y="776" type="line"/>
      <point x="156.505905237" y="776.0" type="line" smooth="yes"/>
      <point x="101.229194399" y="776.0"/>
      <point x="94.9106799592" y="783.171604678"/>
      <point x="101.874027463" y="838.007966271" type="curve" smooth="yes"/>
      <point x="102.125972537" y="839.992033729" type="line" smooth="yes"/>
      <point x="109.187080526" y="895.598259141"/>
      <point x="116.453148387" y="902.0"/>
      <point x="172.505905237" y="902.0" type="curve" smooth="yes"/>
      <point x="308" y="902" type="line"/>
      <point x="406.007099321" y="1295.68953456" type="line" smooth="yes"/>
      <point x="423.974648447" y="1367.8642658"/>
      <point x="434.38404556" y="1376.0"/>
      <point x="508.761627197" y="1376.0" type="curve" smooth="yes"/>
      <point x="525.238372803" y="1376.0" type="line" smooth="yes"/>
      <point x="597.669333383" y="1376.0"/>
      <point x="605.504399096" y="1365.97529806"/>
      <point x="588.007099321" y="1295.68953456" type="curve" smooth="yes"/>
      <point x="490" y="902" type="line"/>
      <point x="684" y="902" type="line"/>
      <point x="780.326658518" y="1295.61065636" type="line" smooth="yes"/>
      <point x="798.006621049" y="1367.85464118"/>
      <point x="808.385727748" y="1376.0"/>
      <point x="882.761627197" y="1376.0" type="curve" smooth="yes"/>
      <point x="899.238372803" y="1376.0" type="line" smooth="yes"/>
      <point x="971.697703541" y="1376.0"/>
      <point x="979.551031763" y="1365.9930091"/>
      <point x="962.326658518" y="1295.61065636" type="curve" smooth="yes"/>
      <point x="866" y="902" type="line"/>
      <point x="949.494094763" y="902.0" type="line" smooth="yes"/>
      <point x="1004.7708056" y="902.0"/>
      <point x="1011.08932004" y="894.828395322"/>
      <point x="1004.12597254" y="839.992033729" type="curve" smooth="yes"/>
      <point x="1003.87402746" y="838.007966271" type="line" smooth="yes"/>
      <point x="996.812919474" y="782.401740859"/>
      <point x="989.546851613" y="776.0"/>
      <point x="933.494094763" y="776.0" type="curve" smooth="yes"/>
      <point x="832" y="776" type="line"/>
      <point x="796" y="624" type="line"/>
      <point x="913.477646339" y="624.0" type="line" smooth="yes"/>
      <point x="966.982984562" y="624.0"/>
      <point x="973.087549156" y="617.042562316"/>
      <point x="966.130034037" y="563.991509531" type="curve" smooth="yes"/>
      <point x="965.869965963" y="562.008490469" type="line" smooth="yes"/>
      <point x="958.811619189" y="508.188596318"/>
      <point x="951.75840965" y="502.0"/>
      <point x="897.477646339" y="502.0" type="curve" smooth="yes"/>
      <point x="764" y="502" type="line"/>
      <point x="661.544489353" y="80.4207676676" type="line" smooth="yes"/>
      <point x="643.980501456" y="8.14927648113"/>
      <point x="633.613517234" y="1.02704792753e-15"/>
      <point x="559.238372803" y="1.01353761839e-14" type="curve" smooth="yes"/>
      <point x="546.761627197" y="-1.01353761839e-14" type="line" smooth="yes"/>
      <point x="474.290918207" y="-1.26027400427e-15"/>
      <point x="466.430241504" y="9.99984618778"/>
      <point x="483.544489353" y="80.4207676676" type="curve" smooth="yes"/>
      <point x="586" y="502" type="line"/>
      <point x="390" y="502" type="line"/>
      <point x="287.544489353" y="80.4207676676" type="line" smooth="yes"/>
      <point x="269.980501456" y="8.14927648113"/>
      <point x="259.613517234" y="1.02704792753e-15"/>
      <point x="185.238372803" y="1.01353761839e-14" type="curve" smooth="yes"/>
      <point x="172.761627197" y="-1.01353761839e-14" type="line" smooth="yes"/>
      <point x="100.290918207" y="-1.26027400427e-15"/>
      <point x="92.4302415038" y="9.99984618778"/>
      <point x="109.544489353" y="80.4207676676" type="curve" smooth="yes"/>
      <point x="212" y="502" type="line"/>
    </contour>
    <contour>
      <point x="652" y="776" type="line"/>
      <point x="458" y="776" type="line"/>
      <point x="420" y="624" type="line"/>
      <point x="616" y="624" type="line"/>
    </contour>
  </outline>
</glyph>
<glyph name="dollar" format="1">
  <advance width="1159"/>
  <unicode hex="0024"/>
  <outline>
    <contour>
      <point x="64" y="976" type="curve" smooth="yes"/>
      <point x="64" y="1247.02"/>
      <point x="228.383" y="1373.16"/>
      <point x="470" y="1404" type="curve"/>
      <point x="470.0" y="1493.2383728" type="line" smooth="yes"/>
      <point x="470.0" y="1567.04994146"/>
      <point x="478.950058537" y="1576.0"/>
      <point x="552.761627197" y="1576.0" type="curve" smooth="yes"/>
      <point x="593.238372803" y="1576.0" type="line" smooth="yes"/>
      <point x="667.049941463" y="1576.0"/>
      <point x="676.0" y="1567.04994146"/>
      <point x="676.0" y="1493.2383728" type="curve" smooth="yes"/>
      <point x="676" y="1410" type="line"/>
      <point x="772.552345703" y="1401.60154297"/>
      <point x="865.800058815" y="1375.03194347"/>
      <point x="955.743626982" y="1330.29120152" type="curve" smooth="yes"/>
      <point x="1020.30530417" y="1298.17620543"/>
      <point x="1025.3744236" y="1284.09245311"/>
      <point x="996.08853626" y="1218.19920658" type="curve" smooth="yes"/>
      <point x="957.784796525" y="1132.01579218" type="line" smooth="yes"/>
      <point x="927.652366862" y="1064.21782544"/>
      <point x="915.992967882" y="1058.99737625"/>
      <point x="845.350915203" y="1081.67397223" type="curve" smooth="yes"/>
      <point x="791.587352289" y="1098.93245423"/>
      <point x="736.341606934" y="1114.94946289"/>
      <point x="676" y="1124" type="curve"/>
      <point x="676" y="836" type="line"/>
      <point x="892.708" y="761.637"/>
      <point x="1108" y="657.13"/>
      <point x="1108" y="374" type="curve" smooth="yes"/>
      <point x="1108" y="138.674"/>
      <point x="900.737" y="-6.24058"/>
      <point x="676" y="-20" type="curve"/>
      <point x="676.0" y="-103.238372803" type="line" smooth="yes"/>
      <point x="676.0" y="-177.049941463"/>
      <point x="667.049941463" y="-186.0"/>
      <point x="593.238372803" y="-186.0" type="curve" smooth="yes"/>
      <point x="552.761627197" y="-186.0" type="line" smooth="yes"/>
      <point x="478.950058537" y="-186.0"/>
      <point x="470.0" y="-177.049941463"/>
      <point x="470.0" y="-103.238372803" type="curve" smooth="yes"/>
      <point x="470" y="-30" type="line"/>
      <point x="347.629625732" y="-18.6884508545"/>
      <point x="243.10419125" y="7.29507561518"/>
      <point x="156.422779067" y="47.9506252833" type="curve" smooth="yes"/>
      <point x="91.9523151538" y="78.188736105"/>
      <point x="86.1462729161" y="93.1763052682"/>
      <point x="113.420557436" y="158.955462052" type="curve" smooth="yes"/>
      <point x="153.741089274" y="256.199097661" type="line" smooth="yes"/>
      <point x="182.355883876" y="325.211249348"/>
      <point x="193.360061358" y="330.410909971"/>
      <point x="264.844334" y="308.697266438" type="curve" smooth="yes"/>
      <point x="331.216157194" y="288.536550574"/>
      <point x="397.597236328" y="272.681929199"/>
      <point x="470" y="270" type="curve"/>
      <point x="470" y="540" type="line"/>
      <point x="243.437" y="595.324"/>
      <point x="69.3635" y="699.789"/>
    </contour>
    <contour>
      <point x="390" y="998" type="curve" smooth="yes"/>
      <point x="390" y="934.794"/>
      <point x="420.817" y="913.907"/>
      <point x="470" y="894" type="curve"/>
      <point x="470" y="1102" type="line"/>
      <point x="426.812" y="1080.41"/>
      <point x="390" y="1056.95"/>
    </contour>
    <contour>
      <point x="768" y="386" type="curve" smooth="yes"/>
      <point x="768" y="433.242"/>
      <point x="716.174" y="463.142"/>
      <point x="676" y="474" type="curve"/>
      <point x="676" y="290" type="line"/>
      <point x="723.833" y="308.222"/>
      <point x="768" y="325.315"/>
    </contour>
  </outline>
</glyph>
<glyph name="percent" format="1">
  <advance width="1818"/>
  <unicode hex="0025"/>
  <outline>
    <contour>
      <point x="1070.0" y="1376.0" type="line" smooth="yes"/>
      <point x="1131.272842" y="1376.0"/>
      <point x="1137.90654138" y="1367.52764981"/>
      <point x="1123.20849656" y="1308.04379784" type="curve" smooth="yes"/>
      <point x="816.3117462" y="66.0145963853" type="line" smooth="yes"/>
      <point x="801.6525764" y="6.68807390238"/>
      <point x="793.110780793" y="8.43686025051e-16"/>
      <point x="732.0" y="8.3275982342e-15" type="curve" smooth="yes"/>
      <point x="730.0" y="-8.3275982342e-15" type="line" smooth="yes"/>
      <point x="670.461772463" y="-1.03626825622e-15"/>
      <point x="664.007269633" y="8.22024706691"/>
      <point x="678.130702594" y="66.0590677639" type="curve" smooth="yes"/>
      <point x="981.394864977" y="1307.99801848" type="line" smooth="yes"/>
      <point x="996.317456403" y="1369.10958336"/>
      <point x="1005.09286926" y="1376.0"/>
      <point x="1068.0" y="1376.0" type="curve" smooth="yes"/>
    </contour>
    <contour>
      <point x="1396" y="-32" type="curve" smooth="yes"/>
      <point x="1161.23" y="-32"/>
      <point x="1024" y="133.43"/>
      <point x="1024" y="368.001" type="curve" smooth="yes"/>
      <point x="1024" y="599.653"/>
      <point x="1166.05" y="770"/>
      <point x="1396" y="770" type="curve" smooth="yes"/>
      <point x="1625.57" y="770"/>
      <point x="1768" y="596.134"/>
      <point x="1768" y="368" type="curve" smooth="yes"/>
      <point x="1768" y="135.729"/>
      <point x="1626.53" y="-32"/>
    </contour>
    <contour>
      <point x="1396" y="172" type="curve" smooth="yes"/>
      <point x="1484.51" y="172"/>
      <point x="1514" y="278.568"/>
      <point x="1514" y="368" type="curve" smooth="yes"/>
      <point x="1514" y="456.977"/>
      <point x="1482.42" y="562"/>
      <point x="1396" y="562" type="curve" smooth="yes"/>
      <point x="1306.38" y="562"/>
      <point x="1278" y="459.416"/>
      <point x="1278" y="368" type="curve" smooth="yes"/>
      <point x="1278" y="276.738"/>
      <point x="1307.23" y="172"/>
    </contour>
    <contour>
      <point x="420" y="614" type="curve" smooth="yes"/>
      <point x="186.445" y="614"/>
      <point x="50" y="782.036"/>
      <point x="50" y="1014" type="curve" smooth="yes"/>
      <point x="50.0001" y="1247.96"/>
      <point x="192.424" y="1414"/>
      <point x="425" y="1414" type="curve" smooth="yes"/>
      <point x="654.533" y="1414"/>
      <point x="794" y="1240.67"/>
      <point x="794" y="1014" type="curve" smooth="yes"/>
      <point x="794" y="780.576"/>
      <point x="652.007" y="614"/>
    </contour>
    <contour>
      <point x="420" y="816" type="curve" smooth="yes"/>
      <point x="510.04" y="816"/>
      <point x="540" y="923.045"/>
      <point x="540" y="1014" type="curve" smooth="yes"/>
      <point x="540" y="1104.48"/>
      <point x="507.593" y="1208"/>
      <point x="420" y="1208" type="curve" smooth="yes"/>
      <point x="329.882" y="1208"/>
      <point x="304" y="1105.15"/>
      <point x="304" y="1014" type="curve" smooth="yes"/>
      <point x="304" y="924.418"/>
      <point x="333.41" y="816"/>
    </contour>
  </outline>
</glyph>
<glyph name="ampersand" format="1">
  <advance width="1375"/>
  <unicode hex="0026"/>
  <outline>
    <contour>
      <point x="819" y="692" type="curve"/>
      <point x="861.632" y="640.841"/>
      <point x="912.185" y="572.889"/>
      <point x="957" y="524" type="curve"/>
      <point x="1064.57928011" y="639.450934748" type="line" smooth="yes"/>
      <point x="1114.69163951" y="693.230052159"/>
      <point x="1127.33344038" y="693.253509155"/>
      <point x="1177.64502949" y="639.660729453" type="curve" smooth="yes"/>
      <point x="1251.72059373" y="560.754150158" type="line" smooth="yes"/>
      <point x="1300.79563779" y="508.478559745"/>
      <point x="1302.28190471" y="492.706441466"/>
      <point x="1263.83630198" y="432.183446388" type="curve" smooth="yes"/>
      <point x="1224.85396289" y="370.815494036"/>
      <point x="1181.24316406" y="319.42114209"/>
      <point x="1133" y="278" type="curve"/>
      <point x="1320.6602342" y="62.4233673289" type="line" smooth="yes"/>
      <point x="1365.12500681" y="11.3440004366"/>
      <point x="1359.95999214" y="1.84186974807e-15"/>
      <point x="1292.2383728" y="1.01353761839e-14" type="curve" smooth="yes"/>
      <point x="1045.7616272" y="-1.01353761839e-14" type="line" smooth="yes"/>
      <point x="973.597255881" y="-1.2977895494e-15"/>
      <point x="956.071396356" y="8.01849635193"/>
      <point x="908.88952855" y="62.6222310034" type="curve" smooth="yes"/>
      <point x="874" y="103" type="line"/>
      <point x="788.759" y="33.8856"/>
      <point x="668.336" y="-32"/>
      <point x="525" y="-32" type="curve" smooth="yes"/>
      <point x="251.189" y="-32"/>
      <point x="57" y="112.078"/>
      <point x="57" y="384" type="curve" smooth="yes"/>
      <point x="57.0001" y="601.91"/>
      <point x="191.452" y="690.211"/>
      <point x="341" y="760" type="curve"/>
      <point x="246.333" y="864.668"/>
      <point x="199" y="963.334"/>
      <point x="199" y="1056" type="curve" smooth="yes"/>
      <point x="199" y="1288.5"/>
      <point x="429.581" y="1414"/>
      <point x="667" y="1414" type="curve" smooth="yes"/>
      <point x="902.248" y="1414"/>
      <point x="1087" y="1292.74"/>
      <point x="1087" y="1060" type="curve" smooth="yes"/>
      <point x="1087" y="869.536"/>
      <point x="957.104" y="751.772"/>
    </contour>
    <contour>
      <point x="543" y="270" type="curve" smooth="yes"/>
      <point x="596.333" y="270"/>
      <point x="637.667" y="284.667"/>
      <point x="667" y="314" type="curve"/>
      <point x="499" y="528" type="line"/>
      <point x="447" y="498.667"/>
      <point x="421" y="455.333"/>
      <point x="421" y="398" type="curve" smooth="yes"/>
      <point x="421" y="322.365"/>
      <point x="467.209" y="270"/>
    </contour>
    <contour>
      <point x="669" y="1146" type="curve" smooth="yes"/>
      <point x="598.333" y="1146"/>
      <point x="563" y="1114.67"/>
      <point x="563" y="1052" type="curve" smooth="yes"/>
      <point x="563" y="983.975"/>
      <point x="616.151" y="943.089"/>
      <point x="663" y="906" type="curve"/>
      <point x="724.017" y="933.119"/>
      <point x="765" y="965.001"/>
      <point x="765" y="1052" type="curve" smooth="yes"/>
      <point x="765" y="1110.16"/>
      <point x="727.792" y="1146"/>
    </contour>
  </outline>
</glyph>
<glyph name="quotesingle" format="1">
  <advance width="406"/>
  <unicode hex="0027"/>
  <outline>
    <contour>
      <point x="273.238372803" y="1534.0" type="line" smooth="yes"/>
      <point x="346.499444058" y="1534.0"/>
      <point x="354.922292357" y="1524.56076754"/>
      <point x="346.611829588" y="1451.7725764" type="curve" smooth="yes"/>
      <point x="307.388170412" y="1108.2274236" type="line" smooth="yes"/>
      <point x="298.972661884" y="1034.5191765"/>
      <point x="289.425477311" y="1026.0"/>
      <point x="215.238372803" y="1026.0" type="curve" smooth="yes"/>
      <point x="184.761627197" y="1026.0" type="line" smooth="yes"/>
      <point x="110.659184399" y="1026.0"/>
      <point x="101.286517536" y="1034.62974028"/>
      <point x="95.1807700406" y="1108.48020998" type="curve" smooth="yes"/>
      <point x="66.8192299594" y="1451.51979002" type="line" smooth="yes"/>
      <point x="60.7689960619" y="1524.69880954"/>
      <point x="69.3329255315" y="1534.0"/>
      <point x="142.761627197" y="1534.0" type="curve" smooth="yes"/>
    </contour>
  </outline>
</glyph>
<glyph name="parenleft" format="1">
  <advance width="855"/>
  <unicode hex="0028"/>
  <outline>
    <contour>
      <point x="730.200949511" y="21.2196310052" type="curve" smooth="yes"/>
      <point x="806.507542867" y="-15.6931225062"/>
      <point x="809.0" y="-19.6675978959"/>
      <point x="809.0" y="-104.433437485" type="curve" smooth="yes"/>
      <point x="809.0" y="-184.038180622" type="line" smooth="yes"/>
      <point x="809.0" y="-256.257111627"/>
      <point x="798.099529439" y="-265.457566285"/>
      <point x="726.906391065" y="-253.328632113" type="curve" smooth="yes"/>
      <point x="286.496977476" y="-178.297570016"/>
      <point x="41.0" y="163.25880365"/>
      <point x="41" y="668" type="curve" smooth="yes"/>
      <point x="41.0" y="1174.42709961"/>
      <point x="291.064412904" y="1494.13425117"/>
      <point x="726.975807629" y="1570.69655204" type="curve" smooth="yes"/>
      <point x="798.157247406" y="1583.19866801"/>
      <point x="809.0" y="1574.09433636"/>
      <point x="809.0" y="1501.82331677" type="curve" smooth="yes"/>
      <point x="809.0" y="1422.91325731" type="line" smooth="yes"/>
      <point x="809.0" y="1337.84723077"/>
      <point x="806.68446136" y="1334.15639675"/>
      <point x="730.093849614" y="1297.14143946" type="curve" smooth="yes"/>
      <point x="546.591828155" y="1208.45799206"/>
      <point x="497.0" y="934.968043457"/>
      <point x="497" y="668" type="curve" smooth="yes"/>
      <point x="497.0" y="394.278125"/>
      <point x="540.728457829" y="112.875555809"/>
    </contour>
  </outline>
</glyph>
<glyph name="parenright" format="1">
  <advance width="855"/>
  <unicode hex="0029"/>
  <outline>
    <contour>
      <point x="814" y="668" type="curve" smooth="yes"/>
      <point x="814.0" y="161.95330072"/>
      <point x="567.136356304" y="-177.621039411"/>
      <point x="128.019259483" y="-253.185128651" type="curve" smooth="yes"/>
      <point x="56.8946936052" y="-265.424376638"/>
      <point x="46.0" y="-256.24433129"/>
      <point x="46.0" y="-184.074371732" type="curve" smooth="yes"/>
      <point x="46.0" y="-105.43777267" type="line" smooth="yes"/>
      <point x="46.0" y="-20.0326533554"/>
      <point x="48.1709602771" y="-16.5545098933"/>
      <point x="124.894977288" y="20.9616148903" type="curve" smooth="yes"/>
      <point x="310.668257782" y="111.800101246"/>
      <point x="358.0" y="397.432251465"/>
      <point x="358" y="668" type="curve" smooth="yes"/>
      <point x="358.0" y="931.974098145"/>
      <point x="309.247510543" y="1209.86115631"/>
      <point x="125.125375676" y="1297.75860716" type="curve" smooth="yes"/>
      <point x="48.2050822452" y="1334.47932907"/>
      <point x="46.0" y="1337.9754699"/>
      <point x="46.0" y="1423.21127786" type="curve" smooth="yes"/>
      <point x="46.0" y="1501.86422915" type="line" smooth="yes"/>
      <point x="46.0" y="1574.08413911"/>
      <point x="56.8571282019" y="1583.1653017"/>
      <point x="127.940070567" y="1570.40087062" type="curve" smooth="yes"/>
      <point x="563.448916316" y="1492.196136"/>
      <point x="814.0" y="1170.47851562"/>
    </contour>
  </outline>
</glyph>
<glyph name="asterisk" format="1">
  <advance width="1096"/>
  <unicode hex="002A"/>
  <outline>
    <contour>
      <point x="140.844689228" y="988.877952173" type="line" smooth="yes"/>
      <point x="73.4294358181" y="1018.31879069"/>
      <point x="69.1436635399" y="1030.21198774"/>
      <point x="102.283025843" y="1095.88817849" type="curve" smooth="yes"/>
      <point x="137.716974157" y="1166.11182151" type="line" smooth="yes"/>
      <point x="170.814833082" y="1231.70576011"/>
      <point x="182.961288444" y="1235.21168883"/>
      <point x="245.922122972" y="1197.34394053" type="curve" smooth="yes"/>
      <point x="451" y="1074" type="line"/>
      <point x="434.439577286" y="1325.41732666" type="line" smooth="yes"/>
      <point x="429.607844251" y="1398.77181909"/>
      <point x="438.248178064" y="1408.0"/>
      <point x="511.761627197" y="1408.0" type="curve" smooth="yes"/>
      <point x="594.238372803" y="1408.0" type="line" smooth="yes"/>
      <point x="667.689399549" y="1408.0"/>
      <point x="676.273082265" y="1398.71781969"/>
      <point x="670.538451689" y="1325.49099849" type="curve" smooth="yes"/>
      <point x="651" y="1076" type="line"/>
      <point x="848.877141859" y="1200.04238743" type="line" smooth="yes"/>
      <point x="911.110019146" y="1239.05404185"/>
      <point x="923.31251971" y="1235.74672952"/>
      <point x="957.327876008" y="1170.64837523" type="curve" smooth="yes"/>
      <point x="996.672123992" y="1095.35162477" type="line" smooth="yes"/>
      <point x="1030.69713006" y="1030.23480282"/>
      <point x="1026.46832244" y="1018.32071405"/>
      <point x="959.003959136" y="989.226707377" type="curve" smooth="yes"/>
      <point x="715" y="884" type="line"/>
      <point x="891.959547239" y="697.965604184" type="line" smooth="yes"/>
      <point x="942.53059499" y="644.80116937"/>
      <point x="941.628957045" y="632.188216131"/>
      <point x="884.009846065" y="586.757763243" type="curve" smooth="yes"/>
      <point x="805.990153935" y="525.242236757" type="line" smooth="yes"/>
      <point x="748.330072192" y="479.779479998"/>
      <point x="735.846463403" y="481.782892003"/>
      <point x="695.307525499" y="543.004961491" type="curve" smooth="yes"/>
      <point x="545" y="770" type="line"/>
      <point x="398.038141364" y="543.43380127" type="line" smooth="yes"/>
      <point x="358.137708538" y="481.920633997"/>
      <point x="345.648752531" y="479.923820776"/>
      <point x="288.557550563" y="525.929352459" type="curve" smooth="yes"/>
      <point x="211.442449437" y="588.070647541" type="line" smooth="yes"/>
      <point x="154.282110411" y="634.131891611"/>
      <point x="153.473247048" y="646.749881537"/>
      <point x="204.284478267" y="699.732532894" type="curve" smooth="yes"/>
      <point x="381" y="884" type="line"/>
    </contour>
  </outline>
</glyph>
<glyph name="plus" format="1">
  <advance width="1092"/>
  <unicode hex="002B"/>
  <outline>
    <contour>
      <point x="104.0" y="458.0" type="line" smooth="yes"/>
      <point x="54.0559862713" y="458.0"/>
      <point x="48.0" y="464.055986271"/>
      <point x="48.0" y="514.0" type="curve" smooth="yes"/>
      <point x="48.0" y="516.0" type="line" smooth="yes"/>
      <point x="48.0" y="565.944013729"/>
      <point x="54.0559862713" y="572.0"/>
      <point x="104.0" y="572.0" type="curve" smooth="yes"/>
      <point x="488" y="572" type="line"/>
      <point x="488.0" y="967.0" type="line" smooth="yes"/>
      <point x="488.0" y="1019.61958589"/>
      <point x="494.380414107" y="1026.0"/>
      <point x="547.0" y="1026.0" type="curve" smooth="yes"/>
      <point x="549.0" y="1026.0" type="line" smooth="yes"/>
      <point x="601.619585893" y="1026.0"/>
      <point x="608.0" y="1019.61958589"/>
      <point x="608.0" y="967.0" type="curve" smooth="yes"/>
      <point x="608" y="572" type="line"/>
      <point x="988.0" y="572.0" type="line" smooth="yes"/>
      <point x="1037.94401373" y="572.0"/>
      <point x="1044.0" y="565.944013729"/>
      <point x="1044.0" y="516.0" type="curve" smooth="yes"/>
      <point x="1044.0" y="514.0" type="line" smooth="yes"/>
      <point x="1044.0" y="464.055986271"/>
      <point x="1037.94401373" y="458.0"/>
      <point x="988.0" y="458.0" type="curve" smooth="yes"/>
      <point x="608" y="458" type="line"/>
      <point x="608.0" y="59.0" type="line" smooth="yes"/>
      <point x="608.0" y="6.38041410725"/>
      <point x="601.619585893" y="7.81375371368e-16"/>
      <point x="549.0" y="7.22541611497e-15" type="curve" smooth="yes"/>
      <point x="547.0" y="-7.22541611497e-15" type="line" smooth="yes"/>
      <point x="494.380414107" y="-7.81375371368e-16"/>
      <point x="488.0" y="6.38041410725"/>
      <point x="488.0" y="59.0" type="curve" smooth="yes"/>
      <point x="488" y="458" type="line"/>
    </contour>
  </outline>
</glyph>
<glyph name="comma" format="1">
  <advance width="604"/>
  <unicode hex="002C"/>
  <outline>
    <contour>
      <point x="183.287" y="-108.513" type="curve" smooth="yes"/>
      <point x="267.784" y="-108.513"/>
      <point x="284" y="-86.0324"/>
      <point x="284" y="0" type="curve"/>
      <point x="176.761627197" y="-1.01353761839e-14" type="line" smooth="yes"/>
      <point x="102.950058537" y="-1.09606605401e-15"/>
      <point x="94.0" y="8.95005853743"/>
      <point x="94.0" y="82.7616271973" type="curve" smooth="yes"/>
      <point x="94.0" y="299.238372803" type="line" smooth="yes"/>
      <point x="94.0" y="373.049941463"/>
      <point x="102.950058537" y="382.0"/>
      <point x="176.761627197" y="382.0" type="curve" smooth="yes"/>
      <point x="431.238372803" y="382.0" type="line" smooth="yes"/>
      <point x="504.968702331" y="382.0"/>
      <point x="513.826353305" y="372.970371856"/>
      <point x="512.408724464" y="299.253672115" type="curve" smooth="yes"/>
      <point x="510" y="174" type="line" smooth="yes"/>
      <point x="504.989" y="-101.618"/>
      <point x="506.77" y="-307.819"/>
      <point x="254" y="-338" type="curve" smooth="yes"/>
      <point x="229.616354492" y="-340.911276367"/>
      <point x="202.650196753" y="-343.028071127"/>
      <point x="173.101364101" y="-344.350221599" type="curve" smooth="yes"/>
      <point x="103.427882673" y="-347.467733124"/>
      <point x="94.0" y="-338.452264256"/>
      <point x="94.0" y="-268.789642313" type="curve" smooth="yes"/>
      <point x="94.0" y="-149.103473785" type="line" smooth="yes"/>
      <point x="94.0" y="-110.576986419"/>
      <point x="99.1757882465" y="-105.611918112"/>
      <point x="137.669020079" y="-107.21233426" type="curve" smooth="yes"/>
      <point x="153.12535939" y="-107.854955673"/>
      <point x="168.567410156" y="-108.513"/>
    </contour>
  </outline>
</glyph>
<glyph name="hyphen" format="1">
  <advance width="740"/>
  <unicode hex="002D"/>
  <outline>
    <contour>
      <point x="562.238372803" y="650.0" type="line" smooth="yes"/>
      <point x="636.049941463" y="650.0"/>
      <point x="645.0" y="641.049941463"/>
      <point x="645.0" y="567.238372803" type="curve" smooth="yes"/>
      <point x="645.0" y="490.761627197" type="line" smooth="yes"/>
      <point x="645.0" y="416.950058537"/>
      <point x="636.049941463" y="408.0"/>
      <point x="562.238372803" y="408.0" type="curve" smooth="yes"/>
      <point x="177.761627197" y="408.0" type="line" smooth="yes"/>
      <point x="103.950058537" y="408.0"/>
      <point x="95.0" y="416.950058537"/>
      <point x="95.0" y="490.761627197" type="curve" smooth="yes"/>
      <point x="95.0" y="567.238372803" type="line" smooth="yes"/>
      <point x="95.0" y="641.049941463"/>
      <point x="103.950058537" y="650.0"/>
      <point x="177.761627197" y="650.0" type="curve" smooth="yes"/>
    </contour>
  </outline>
</glyph>
<glyph name="slash" format="1">
  <advance width="658"/>
  <unicode hex="002F"/>
  <outline>
    <contour>
      <point x="517.238372803" y="1408.0" type="line" smooth="yes"/>
      <point x="589.719454309" y="1408.0"/>
      <point x="597.586842218" y="1398.00668777"/>
      <point x="580.573320649" y="1327.55069257" type="curve" smooth="yes"/>
      <point x="279.426679351" y="80.4493074286" type="line" smooth="yes"/>
      <point x="261.968734471" y="8.152876869"/>
      <point x="251.612788505" y="1.02713717109e-15"/>
      <point x="177.238372803" y="1.01353761839e-14" type="curve" smooth="yes"/>
      <point x="142.761627197" y="-1.01353761839e-14" type="line" smooth="yes"/>
      <point x="70.2615895192" y="-1.25668227589e-15"/>
      <point x="62.3819058498" y="9.98131975159"/>
      <point x="79.2105134971" y="80.5011994166" type="curve" smooth="yes"/>
      <point x="376.789486503" y="1327.49880058" type="line" smooth="yes"/>
      <point x="394.052839723" y="1399.84047122"/>
      <point x="404.388643697" y="1408.0"/>
      <point x="478.761627197" y="1408.0" type="curve" smooth="yes"/>
    </contour>
  </outline>
</glyph>
<glyph name="one" format="1">
  <advance width="926"/>
  <unicode hex="0031"/>
  <outline>
    <contour>
      <point x="415.512520209" y="1327.53830991" type="curve" smooth="yes"/>
      <point x="481.135022682" y="1363.78892935"/>
      <point x="509.101954118" y="1371.0"/>
      <point x="584.071416173" y="1371.0" type="curve" smooth="yes"/>
      <point x="617.238372803" y="1371.0" type="line" smooth="yes"/>
      <point x="691.049941463" y="1371.0"/>
      <point x="700.0" y="1362.04994146"/>
      <point x="700.0" y="1288.2383728" type="curve" smooth="yes"/>
      <point x="700" y="302" type="line"/>
      <point x="789.238372803" y="302.0" type="line" smooth="yes"/>
      <point x="863.049941463" y="302.0"/>
      <point x="872.0" y="293.049941463"/>
      <point x="872.0" y="219.238372803" type="curve" smooth="yes"/>
      <point x="872.0" y="82.7616271973" type="line" smooth="yes"/>
      <point x="872.0" y="8.95005853743"/>
      <point x="863.049941463" y="1.09606605401e-15"/>
      <point x="789.238372803" y="1.01353761839e-14" type="curve" smooth="yes"/>
      <point x="170.761627197" y="-1.01353761839e-14" type="line" smooth="yes"/>
      <point x="96.9500585374" y="-1.09606605401e-15"/>
      <point x="88.0" y="8.95005853743"/>
      <point x="88.0" y="82.7616271973" type="curve" smooth="yes"/>
      <point x="88.0" y="219.238372803" type="line" smooth="yes"/>
      <point x="88.0" y="293.049941463"/>
      <point x="96.9500585374" y="302.0"/>
      <point x="170.761627197" y="302.0" type="curve" smooth="yes"/>
      <point x="260" y="302" type="line"/>
      <point x="260" y="983" type="line"/>
      <point x="170.560938597" y="976.760065483" type="line" smooth="yes"/>
      <point x="97.2450631192" y="971.645004404"/>
      <point x="88.0" y="980.267535959"/>
      <point x="88.0" y="1053.7616272" type="curve" smooth="yes"/>
      <point x="88.0" y="1147.81121125" type="line" smooth="yes"/>
      <point x="88.0" y="1225.17550393"/>
      <point x="93.9600051208" y="1232.03851386"/>
      <point x="170.560775025" y="1242.88083062" type="curve" smooth="yes"/>
      <point x="260.213322392" y="1255.57053749"/>
      <point x="343.263769159" y="1287.62727512"/>
    </contour>
  </outline>
</glyph>
<glyph name="two" format="1">
  <advance width="1060"/>
  <unicode hex="0032"/>
  <outline>
    <contour>
      <point x="436.816" y="1042.9" type="curve" smooth="yes"/>
      <point x="372.479101562" y="1042.9"/>
      <point x="294.967826673" y="1019.26560378"/>
      <point x="235.378412338" y="996.760293397" type="curve" smooth="yes"/>
      <point x="165.67616774" y="970.435640495"/>
      <point x="155.545331141" y="975.22984468"/>
      <point x="131.706389339" y="1045.82088594" type="curve" smooth="yes"/>
      <point x="82.1029264973" y="1192.70492639" type="line" smooth="yes"/>
      <point x="58.5750087232" y="1262.37497417"/>
      <point x="64.2329851169" y="1274.3837048"/>
      <point x="132.937331551" y="1300.59803778" type="curve" smooth="yes"/>
      <point x="254.256875076" y="1346.88784439"/>
      <point x="382.586269531" y="1384.0"/>
      <point x="546" y="1384" type="curve" smooth="yes"/>
      <point x="816.341" y="1384"/>
      <point x="981" y="1200.1"/>
      <point x="981" y="932" type="curve" smooth="yes"/>
      <point x="981" y="699.354"/>
      <point x="823.405" y="546.518"/>
      <point x="687" y="439" type="curve" smooth="yes"/>
      <point x="620.476" y="386.563"/>
      <point x="550.528" y="342.453"/>
      <point x="478" y="298" type="curve"/>
      <point x="856.238372803" y="298.0" type="line" smooth="yes"/>
      <point x="930.049941463" y="298.0"/>
      <point x="939.0" y="289.049941463"/>
      <point x="939.0" y="215.238372803" type="curve" smooth="yes"/>
      <point x="939.0" y="82.7616271973" type="line" smooth="yes"/>
      <point x="939.0" y="8.95005853743"/>
      <point x="930.049941463" y="1.09606605401e-15"/>
      <point x="856.238372803" y="1.01353761839e-14" type="curve" smooth="yes"/>
      <point x="161.761627197" y="-1.01353761839e-14" type="line" smooth="yes"/>
      <point x="87.9500585374" y="-1.09606605401e-15"/>
      <point x="79.0" y="8.95005853743"/>
      <point x="79.0" y="82.7616271973" type="curve" smooth="yes"/>
      <point x="79.0" y="204.292071884" type="line" smooth="yes"/>
      <point x="79.0" y="276.464390045"/>
      <point x="86.957202726" y="295.012245456"/>
      <point x="139.256722299" y="344.747582603" type="curve" smooth="yes"/>
      <point x="287.347901376" y="485.578029613"/>
      <point x="433.79675708" y="637.806033691"/>
      <point x="525" y="815" type="curve" smooth="yes"/>
      <point x="548.333" y="860.333"/>
      <point x="560" y="898.667"/>
      <point x="560" y="930" type="curve" smooth="yes"/>
      <point x="560" y="1015.54"/>
      <point x="506.032" y="1042.9"/>
    </contour>
  </outline>
</glyph>
<glyph name="three" format="1">
  <advance width="1071"/>
  <unicode hex="0033"/>
  <outline>
    <contour>
      <point x="456" y="1068" type="curve" smooth="yes"/>
      <point x="388.944397461" y="1068.0"/>
      <point x="306.835383172" y="1055.4549675"/>
      <point x="209.671963577" y="1030.3649025" type="curve" smooth="yes"/>
      <point x="137.568471373" y="1011.74594781"/>
      <point x="127.471786287" y="1017.67944679"/>
      <point x="108.65238199" y="1089.73088038" type="curve" smooth="yes"/>
      <point x="80.1567443194" y="1198.82846461" type="line" smooth="yes"/>
      <point x="61.7743857919" y="1269.20663725"/>
      <point x="68.3140583168" y="1282.08619957"/>
      <point x="135.981306484" y="1308.77218495" type="curve" smooth="yes"/>
      <point x="266.526600208" y="1360.25543415"/>
      <point x="395.199498047" y="1386.0"/>
      <point x="522" y="1386" type="curve" smooth="yes"/>
      <point x="731.831" y="1386"/>
      <point x="942" y="1276.23"/>
      <point x="942" y="1072" type="curve" smooth="yes"/>
      <point x="942" y="932.666"/>
      <point x="877.333" y="821.333"/>
      <point x="748" y="738" type="curve"/>
      <point x="893.004" y="676.195"/>
      <point x="1004" y="560.69"/>
      <point x="1004" y="366" type="curve" smooth="yes"/>
      <point x="1004" y="102.846"/>
      <point x="769.154" y="-22"/>
      <point x="500" y="-22" type="curve" smooth="yes"/>
      <point x="391.854119873" y="-22.0"/>
      <point x="271.58831152" y="-3.35467137285"/>
      <point x="139.203159599" y="33.9359800349" type="curve" smooth="yes"/>
      <point x="68.7213435302" y="53.7895119113"/>
      <point x="61.7655278017" y="65.5665477214"/>
      <point x="78.4043364967" y="136.875727843" type="curve" smooth="yes"/>
      <point x="110.508709747" y="274.465898916" type="line" smooth="yes"/>
      <point x="127.403456018" y="346.871954365"/>
      <point x="136.895123639" y="352.268465408"/>
      <point x="207.755985181" y="329.75607729" type="curve" smooth="yes"/>
      <point x="286.984309045" y="304.585359097"/>
      <point x="362.398836426" y="292.0"/>
      <point x="434" y="292" type="curve" smooth="yes"/>
      <point x="532.425" y="292"/>
      <point x="599" y="315.395"/>
      <point x="599" y="409" type="curve" smooth="yes"/>
      <point x="599.0" y="544.939709473"/>
      <point x="452.987949306" y="573.119455492"/>
      <point x="308.742442271" y="578.689403063" type="curve" smooth="yes"/>
      <point x="234.142208166" y="581.57004317"/>
      <point x="226.0" y="590.032725507"/>
      <point x="226.0" y="664.688555929" type="curve" smooth="yes"/>
      <point x="226.0" y="748.763732272" type="line" smooth="yes"/>
      <point x="226.0" y="823.775160635"/>
      <point x="233.803208567" y="832.016029574"/>
      <point x="308.703084425" y="836.105403802" type="curve" smooth="yes"/>
      <point x="446.260104743" y="843.615725111"/>
      <point x="587.0" y="874.212700439"/>
      <point x="587" y="974" type="curve" smooth="yes"/>
      <point x="587" y="1051.26"/>
      <point x="536.968" y="1068"/>
    </contour>
  </outline>
</glyph>
<glyph name="four" format="1">
  <advance width="1300"/>
  <unicode hex="0034"/>
  <outline>
    <contour>
      <point x="36.0" y="537.238372803" type="line" smooth="yes"/>
      <point x="36.0" y="605.795116864"/>
      <point x="44.3530908197" y="631.489324552"/>
      <point x="84.6674463801" y="686.940022402" type="curve" smooth="yes"/>
      <point x="533.33255362" y="1304.0599776" type="line" smooth="yes"/>
      <point x="576.251613709" y="1363.0933368"/>
      <point x="591.775442079" y="1371.0"/>
      <point x="664.761627197" y="1371.0" type="curve" smooth="yes"/>
      <point x="957.238372803" y="1371.0" type="line" smooth="yes"/>
      <point x="1031.04994146" y="1371.0"/>
      <point x="1040.0" y="1362.04994146"/>
      <point x="1040.0" y="1288.2383728" type="curve" smooth="yes"/>
      <point x="1040" y="617" type="line"/>
      <point x="1153.2383728" y="617.0" type="line" smooth="yes"/>
      <point x="1227.04994146" y="617.0"/>
      <point x="1236.0" y="608.049941463"/>
      <point x="1236.0" y="534.238372803" type="curve" smooth="yes"/>
      <point x="1236.0" y="413.761627197" type="line" smooth="yes"/>
      <point x="1236.0" y="339.950058537"/>
      <point x="1227.04994146" y="331.0"/>
      <point x="1153.2383728" y="331.0" type="curve" smooth="yes"/>
      <point x="1040" y="331" type="line"/>
      <point x="1040.0" y="82.7616271973" type="line" smooth="yes"/>
      <point x="1040.0" y="8.95005853743"/>
      <point x="1031.04994146" y="1.09606605401e-15"/>
      <point x="957.238372803" y="1.01353761839e-14" type="curve" smooth="yes"/>
      <point x="686.761627197" y="-1.01353761839e-14" type="line" smooth="yes"/>
      <point x="612.950058537" y="-1.09606605401e-15"/>
      <point x="604.0" y="8.95005853743"/>
      <point x="604.0" y="82.7616271973" type="curve" smooth="yes"/>
      <point x="604" y="333" type="line"/>
      <point x="118.761627197" y="333.0" type="line" smooth="yes"/>
      <point x="44.9500585374" y="333.0"/>
      <point x="36.0" y="341.950058537"/>
      <point x="36.0" y="415.761627197" type="curve" smooth="yes"/>
    </contour>
    <contour>
      <point x="604" y="617" type="line"/>
      <point x="604" y="1022" type="line"/>
      <point x="338" y="617" type="line"/>
    </contour>
  </outline>
</glyph>
<glyph name="five" format="1">
  <advance width="1096"/>
  <unicode hex="0035"/>
  <outline>
    <contour>
      <point x="485" y="-27" type="curve" smooth="yes"/>
      <point x="390.728788086" y="-27.0"/>
      <point x="286.880820604" y="-7.40197213672"/>
      <point x="173.456643661" y="31.7940890509" type="curve" smooth="yes"/>
      <point x="104.660457315" y="55.5680286302"/>
      <point x="96.6509953296" y="67.9921720584"/>
      <point x="103.398641476" y="140.466889929" type="curve" smooth="yes"/>
      <point x="115.116814783" y="266.328751378" type="line" smooth="yes"/>
      <point x="121.916622181" y="339.363719725"/>
      <point x="131.278963069" y="345.821447047"/>
      <point x="201.965980577" y="326.233452306" type="curve" smooth="yes"/>
      <point x="296.354158323" y="300.077657444"/>
      <point x="388.698991455" y="287.0"/>
      <point x="479" y="287" type="curve" smooth="yes"/>
      <point x="576.917" y="287"/>
      <point x="636" y="354.793"/>
      <point x="636" y="453" type="curve" smooth="yes"/>
      <point x="636" y="539.024"/>
      <point x="589.032" y="605"/>
      <point x="503" y="605" type="curve" smooth="yes"/>
      <point x="466.457125488" y="605.0"/>
      <point x="423.013992614" y="591.680426419"/>
      <point x="372.670601376" y="565.041613294" type="curve" smooth="yes"/>
      <point x="302.813600729" y="528.077325827"/>
      <point x="289.216593639" y="527.555405568"/>
      <point x="216.731576518" y="559.055903663" type="curve" smooth="yes"/>
      <point x="163.903847966" y="582.013748314" type="line" smooth="yes"/>
      <point x="95.7314367837" y="611.640076538"/>
      <point x="88.5895421816" y="623.409318666"/>
      <point x="93.7878660041" y="697.558994322" type="curve" smooth="yes"/>
      <point x="135.212133996" y="1288.44100568" type="line" smooth="yes"/>
      <point x="140.391776061" y="1362.32420193"/>
      <point x="149.697091955" y="1371.0"/>
      <point x="223.761627197" y="1371.0" type="curve" smooth="yes"/>
      <point x="848.238372803" y="1371.0" type="line" smooth="yes"/>
      <point x="921.583525974" y="1371.0"/>
      <point x="930.075650084" y="1361.6290043"/>
      <point x="922.87586533" y="1288.638083" type="curve" smooth="yes"/>
      <point x="910.12413467" y="1159.361917" type="line" smooth="yes"/>
      <point x="902.845618041" y="1085.57281738"/>
      <point x="893.385577923" y="1077.0"/>
      <point x="819.238372803" y="1077.0" type="curve" smooth="yes"/>
      <point x="417" y="1077" type="line"/>
      <point x="392" y="865" type="line"/>
      <point x="461.322" y="885.447"/>
      <point x="526.496" y="913"/>
      <point x="615" y="913" type="curve" smooth="yes"/>
      <point x="859.001" y="913"/>
      <point x="1040" y="730.129"/>
      <point x="1040" y="452" type="curve" smooth="yes"/>
      <point x="1040" y="161.879"/>
      <point x="798.739" y="-27"/>
    </contour>
  </outline>
</glyph>
<glyph name="six" format="1">
  <advance width="1283"/>
  <unicode hex="0036"/>
  <outline>
    <contour>
      <point x="746" y="1073" type="curve" smooth="yes"/>
      <point x="540.064" y="1073"/>
      <point x="500.806" y="894.64"/>
      <point x="475" y="714" type="curve"/>
      <point x="553.262" y="788.349"/>
      <point x="633.662" y="857.023"/>
      <point x="776" y="859" type="curve" smooth="yes"/>
      <point x="1046.35" y="859"/>
      <point x="1220" y="712.166"/>
      <point x="1220" y="443" type="curve" smooth="yes"/>
      <point x="1220" y="173.997"/>
      <point x="956.069" y="-15"/>
      <point x="682" y="-15" type="curve" smooth="yes"/>
      <point x="288.21" y="-15"/>
      <point x="70" y="250.954"/>
      <point x="70" y="647" type="curve" smooth="yes"/>
      <point x="70" y="1053.34"/>
      <point x="299.713" y="1391"/>
      <point x="699" y="1391" type="curve" smooth="yes"/>
      <point x="860.051346436" y="1391.0"/>
      <point x="977.95123797" y="1349.25932943"/>
      <point x="1085.4625666" y="1293.84044563" type="curve" smooth="yes"/>
      <point x="1150.42447484" y="1260.35451917"/>
      <point x="1155.53550003" y="1247.26034703"/>
      <point x="1130.43600488" y="1178.62091131" type="curve" smooth="yes"/>
      <point x="1088.68899447" y="1064.45561753" type="line" smooth="yes"/>
      <point x="1063.35182043" y="995.166202807"/>
      <point x="1051.93407066" y="990.056912748"/>
      <point x="983.384923816" y="1017.33345665" type="curve" smooth="yes"/>
      <point x="911.064306722" y="1046.1107147"/>
      <point x="830.918337158" y="1073.0"/>
    </contour>
    <contour>
      <point x="678" y="591" type="curve" smooth="yes"/>
      <point x="598.677" y="591"/>
      <point x="536.875" y="577.089"/>
      <point x="483" y="554" type="curve"/>
      <point x="499.323" y="431.58"/>
      <point x="521.619" y="279"/>
      <point x="659" y="279" type="curve" smooth="yes"/>
      <point x="762.199" y="279"/>
      <point x="841" y="339.705"/>
      <point x="841" y="443" type="curve" smooth="yes"/>
      <point x="841" y="535.585"/>
      <point x="770.469" y="591"/>
    </contour>
  </outline>
</glyph>
<glyph name="seven" format="1">
  <advance width="955"/>
  <unicode hex="0037"/>
  <outline>
    <contour>
      <point x="136.761627197" y="1073.0" type="line" smooth="yes"/>
      <point x="62.9500585374" y="1073.0"/>
      <point x="54.0" y="1081.95005854"/>
      <point x="54.0" y="1155.7616272" type="curve" smooth="yes"/>
      <point x="54.0" y="1288.2383728" type="line" smooth="yes"/>
      <point x="54.0" y="1362.04994146"/>
      <point x="62.9500585374" y="1371.0"/>
      <point x="136.761627197" y="1371.0" type="curve" smooth="yes"/>
      <point x="829.238372803" y="1371.0" type="line" smooth="yes"/>
      <point x="903.049941463" y="1371.0"/>
      <point x="912.0" y="1362.04994146"/>
      <point x="912.0" y="1288.2383728" type="curve" smooth="yes"/>
      <point x="912.0" y="1115.7616272" type="line" smooth="yes"/>
      <point x="912.0" y="1053.94511277"/>
      <point x="904.108449567" y="1013.59842324"/>
      <point x="880.817663472" y="956.337435309" type="curve" smooth="yes"/>
      <point x="509.182336528" y="42.6625646908" type="line" smooth="yes"/>
      <point x="481.37716246" y="-25.697160497"/>
      <point x="469.708138462" y="-30.5959726317"/>
      <point x="401.438798095" y="-2.56961184973" type="curve" smooth="yes"/>
      <point x="174.561201905" y="90.5696118497" type="line" smooth="yes"/>
      <point x="106.291815579" y="118.595991499"/>
      <point x="101.430738191" y="130.280791927"/>
      <point x="129.677192623" y="198.459416712" type="curve" smooth="yes"/>
      <point x="492" y="1073" type="line"/>
    </contour>
  </outline>
</glyph>
<glyph name="eight" format="1">
  <advance width="1284"/>
  <unicode hex="0038"/>
  <outline>
    <contour>
      <point x="61" y="384" type="curve" smooth="yes"/>
      <point x="61" y="569.584"/>
      <point x="179.488" y="643.995"/>
      <point x="312" y="697" type="curve"/>
      <point x="319" y="701" type="line"/>
      <point x="217.458" y="785.618"/>
      <point x="163" y="891.335"/>
      <point x="163" y="1032" type="curve" smooth="yes"/>
      <point x="163" y="1276.62"/>
      <point x="390.428" y="1389"/>
      <point x="641" y="1389" type="curve" smooth="yes"/>
      <point x="875.748" y="1389"/>
      <point x="1117" y="1301.73"/>
      <point x="1117" y="1072" type="curve" smooth="yes"/>
      <point x="1117" y="925.148"/>
      <point x="1043.92" y="846.961"/>
      <point x="946" y="798" type="curve"/>
      <point x="1089.21" y="726.395"/>
      <point x="1221" y="620.024"/>
      <point x="1221" y="406" type="curve" smooth="yes"/>
      <point x="1221" y="92.8969"/>
      <point x="957.307" y="-27"/>
      <point x="643" y="-27" type="curve" smooth="yes"/>
      <point x="338.977" y="-27"/>
      <point x="61" y="85.0564"/>
    </contour>
    <contour>
      <point x="819" y="364" type="curve" smooth="yes"/>
      <point x="819" y="468.173"/>
      <point x="700.242" y="509.659"/>
      <point x="622" y="539" type="curve" smooth="yes"/>
      <point x="595.097" y="550.006"/>
      <point x="562.924" y="565.359"/>
      <point x="537" y="574" type="curve"/>
      <point x="496.774" y="533.774"/>
      <point x="471" y="483.537"/>
      <point x="471" y="406" type="curve" smooth="yes"/>
      <point x="471" y="307.79"/>
      <point x="546.062" y="257"/>
      <point x="645" y="257" type="curve" smooth="yes"/>
      <point x="728.744" y="257"/>
      <point x="819" y="282.828"/>
    </contour>
    <contour>
      <point x="794" y="1020" type="curve" smooth="yes"/>
      <point x="794" y="1114.54"/>
      <point x="737.431" y="1167"/>
      <point x="643" y="1167" type="curve" smooth="yes"/>
      <point x="559.695" y="1167"/>
      <point x="486" y="1143.2"/>
      <point x="486" y="1060" type="curve" smooth="yes"/>
      <point x="486" y="944.948"/>
      <point x="636.17" y="903.61"/>
      <point x="731" y="872" type="curve"/>
      <point x="771.623" y="912.623"/>
      <point x="794" y="958.737"/>
    </contour>
  </outline>
</glyph>
<glyph name="nine" format="1">
  <advance width="1261"/>
  <unicode hex="0039"/>
  <outline>
    <contour>
      <point x="62" y="937" type="curve" smooth="yes"/>
      <point x="62" y="1229.07"/>
      <point x="318.33" y="1388"/>
      <point x="612" y="1388" type="curve" smooth="yes"/>
      <point x="1001.52" y="1388"/>
      <point x="1191" y="1076.79"/>
      <point x="1191" y="691" type="curve" smooth="yes"/>
      <point x="1191" y="297.716"/>
      <point x="960.474" y="-8"/>
      <point x="575" y="-8" type="curve" smooth="yes"/>
      <point x="419.68649585" y="-8.0"/>
      <point x="303.803589339" y="34.3433964703"/>
      <point x="198.66734156" y="88.3856245992" type="curve" smooth="yes"/>
      <point x="133.572412183" y="121.845778426"/>
      <point x="128.426205368" y="134.830295546"/>
      <point x="152.924904275" y="203.799458775" type="curve" smooth="yes"/>
      <point x="189.87451215" y="307.820637466" type="line" smooth="yes"/>
      <point x="214.595882793" y="377.416670038"/>
      <point x="225.789642616" y="382.434829325"/>
      <point x="294.194876989" y="354.587426814" type="curve" smooth="yes"/>
      <point x="362.738092809" y="326.683852799"/>
      <point x="438.538756836" y="302.0"/>
      <point x="527" y="302" type="curve" smooth="yes"/>
      <point x="704.957" y="302"/>
      <point x="797.524" y="428.661"/>
      <point x="800" y="655" type="curve"/>
      <point x="723.568" y="587.927"/>
      <point x="660.276" y="526"/>
      <point x="517" y="526" type="curve" smooth="yes"/>
      <point x="244.778" y="526"/>
      <point x="62" y="666.446"/>
    </contour>
    <contour>
      <point x="609.564" y="761.702" type="curve" smooth="yes"/>
      <point x="680.78" y="761.702"/>
      <point x="735.198" y="780.658"/>
      <point x="790" y="800" type="curve"/>
      <point x="775.306" y="946.943"/>
      <point x="747.182" y="1104"/>
      <point x="612" y="1104" type="curve" smooth="yes"/>
      <point x="505.694" y="1104"/>
      <point x="428" y="1043.88"/>
      <point x="428" y="937" type="curve" smooth="yes"/>
      <point x="428" y="826.144"/>
      <point x="498.107" y="761.702"/>
    </contour>
  </outline>
</glyph>
<glyph name="colon" format="1">
  <advance width="634"/>
  <unicode hex="003A"/>
  <outline>
    <contour>
      <point x="547" y="206" type="curve" smooth="yes"/>
      <point x="547" y="70.0315"/>
      <point x="435.043" y="4.62508"/>
      <point x="321.595" y="4.62508" type="curve" smooth="yes"/>
      <point x="205.084" y="4.62508"/>
      <point x="87" y="73.6116"/>
      <point x="87" y="206" type="curve" smooth="yes"/>
      <point x="87" y="330.555"/>
      <point x="194.247" y="414"/>
      <point x="319" y="414" type="curve" smooth="yes"/>
      <point x="441.568" y="414"/>
      <point x="547" y="327.025"/>
    </contour>
    <contour>
      <point x="87" y="820" type="curve" smooth="yes"/>
      <point x="87" y="944.555"/>
      <point x="194.247" y="1028"/>
      <point x="319" y="1028" type="curve" smooth="yes"/>
      <point x="441.568" y="1028"/>
      <point x="547" y="941.025"/>
      <point x="547" y="820" type="curve" smooth="yes"/>
      <point x="547" y="696.379"/>
      <point x="442.624" y="614"/>
      <point x="319" y="614" type="curve" smooth="yes"/>
      <point x="192.664" y="614"/>
      <point x="87" y="694.787"/>
    </contour>
  </outline>
</glyph>
<glyph name="semicolon" format="1">
  <advance width="612"/>
  <unicode hex="003B"/>
  <outline>
    <contour>
      <point x="192.478" y="-108.382" type="curve" smooth="yes"/>
      <point x="277.375" y="-108.382"/>
      <point x="296" y="-86.5181"/>
      <point x="296" y="0" type="curve"/>
      <point x="186.761627197" y="-1.01353761839e-14" type="line" smooth="yes"/>
      <point x="112.950058537" y="-1.09606605401e-15"/>
      <point x="104.0" y="8.95005853743"/>
      <point x="104.0" y="82.7616271973" type="curve" smooth="yes"/>
      <point x="104.0" y="299.238372803" type="line" smooth="yes"/>
      <point x="104.0" y="373.049941463"/>
      <point x="112.950058537" y="382.0"/>
      <point x="186.761627197" y="382.0" type="curve" smooth="yes"/>
      <point x="461.482285935" y="382.0" type="line" smooth="yes"/>
      <point x="517.163272371" y="382.0"/>
      <point x="523.838547536" y="375.165179024"/>
      <point x="522.523615459" y="319.499721116" type="curve" smooth="yes"/>
      <point x="521" y="255" type="line" smooth="yes"/>
      <point x="517.508" y="26.2914"/>
      <point x="539.422" y="-229.193"/>
      <point x="385.5" y="-307" type="curve" smooth="yes"/>
      <point x="332.338284668" y="-333.873160645"/>
      <point x="265.246269406" y="-342.367200611"/>
      <point x="186.802893397" y="-344.939792782" type="curve" smooth="yes"/>
      <point x="113.633396398" y="-347.33942529"/>
      <point x="104.0" y="-338.016782051"/>
      <point x="104.0" y="-264.807947015" type="curve" smooth="yes"/>
      <point x="104.0" y="-148.727032229" type="line" smooth="yes"/>
      <point x="104.0" y="-110.540187685"/>
      <point x="109.108854626" y="-105.630607265"/>
      <point x="147.265494481" y="-107.149136573" type="curve" smooth="yes"/>
      <point x="162.571131363" y="-107.75825882"/>
      <point x="177.864847656" y="-108.382"/>
    </contour>
    <contour>
      <point x="78" y="820" type="curve" smooth="yes"/>
      <point x="78" y="943.741"/>
      <point x="186.238" y="1028"/>
      <point x="310" y="1028" type="curve" smooth="yes"/>
      <point x="432.992" y="1028"/>
      <point x="538" y="941.791"/>
      <point x="538" y="820" type="curve" smooth="yes"/>
      <point x="538" y="696.379"/>
      <point x="433.624" y="614"/>
      <point x="310" y="614" type="curve" smooth="yes"/>
      <point x="183.035" y="614"/>
      <point x="78" y="694.091"/>
    </contour>
  </outline>
</glyph>
<glyph name="less" format="1">
  <advance width="938"/>
  <unicode hex="003C"/>
  <outline>
    <contour>
      <point x="762.443701332" y="1192.18705663" type="line" smooth="yes"/>
      <point x="823.981075936" y="1225.95371859"/>
      <point x="835.0" y="1219.43122097"/>
      <point x="835.0" y="1149.2383728" type="curve" smooth="yes"/>
      <point x="835.0" y="1006.7616272" type="line" smooth="yes"/>
      <point x="835.0" y="932.760411878"/>
      <point x="827.164449412" y="920.082224706"/>
      <point x="760.975750263" y="886.987875132" type="curve" smooth="yes"/>
      <point x="227" y="620" type="line"/>
      <point x="760.205185893" y="367.429122472" type="line" smooth="yes"/>
      <point x="827.155805437" y="335.715671109"/>
      <point x="835.0" y="323.320276494"/>
      <point x="835.0" y="249.238372803" type="curve" smooth="yes"/>
      <point x="835.0" y="82.7616271973" type="line" smooth="yes"/>
      <point x="835.0" y="12.8505139009"/>
      <point x="823.906192547" y="6.48561051122"/>
      <point x="763.552152565" y="41.7695108084" type="curve" smooth="yes"/>
      <point x="126.447847435" y="414.230489192" type="line" smooth="yes"/>
      <point x="62.8356939827" y="451.419132749"/>
      <point x="55.0" y="465.076477564"/>
      <point x="55.0" y="538.761627197" type="curve" smooth="yes"/>
      <point x="55.0" y="721.238372803" type="line" smooth="yes"/>
      <point x="55.0" y="795.067727254"/>
      <point x="62.830835027" y="808.296919733"/>
      <point x="127.556298668" y="843.812943372" type="curve" smooth="yes"/>
    </contour>
  </outline>
</glyph>
<glyph name="equal" format="1">
  <advance width="838"/>
  <unicode hex="003D"/>
  <outline>
    <contour>
      <point x="670.0" y="442.0" type="line" smooth="yes"/>
      <point x="724.403300669" y="442.0"/>
      <point x="731.0" y="435.403300669"/>
      <point x="731.0" y="381.0" type="curve" smooth="yes"/>
      <point x="731.0" y="379.0" type="line" smooth="yes"/>
      <point x="731.0" y="324.596699331"/>
      <point x="724.403300669" y="318.0"/>
      <point x="670.0" y="318.0" type="curve" smooth="yes"/>
      <point x="168.0" y="318.0" type="line" smooth="yes"/>
      <point x="113.596699331" y="318.0"/>
      <point x="107.0" y="324.596699331"/>
      <point x="107.0" y="379.0" type="curve" smooth="yes"/>
      <point x="107.0" y="381.0" type="line" smooth="yes"/>
      <point x="107.0" y="435.403300669"/>
      <point x="113.596699331" y="442.0"/>
      <point x="168.0" y="442.0" type="curve" smooth="yes"/>
    </contour>
    <contour>
      <point x="669.0" y="720.0" type="line" smooth="yes"/>
      <point x="724.295158057" y="720.0"/>
      <point x="731.0" y="713.295158057"/>
      <point x="731.0" y="658.0" type="curve" smooth="yes"/>
      <point x="731.0" y="656.0" type="line" smooth="yes"/>
      <point x="731.0" y="600.704841943"/>
      <point x="724.295158057" y="594.0"/>
      <point x="669.0" y="594.0" type="curve" smooth="yes"/>
      <point x="169.0" y="594.0" type="line" smooth="yes"/>
      <point x="113.704841943" y="594.0"/>
      <point x="107.0" y="600.704841943"/>
      <point x="107.0" y="656.0" type="curve" smooth="yes"/>
      <point x="107.0" y="658.0" type="line" smooth="yes"/>
      <point x="107.0" y="713.295158057"/>
      <point x="113.704841943" y="720.0"/>
      <point x="169.0" y="720.0" type="curve" smooth="yes"/>
    </contour>
  </outline>
</glyph>
<glyph name="greater" format="1">
  <advance width="938"/>
  <unicode hex="003E"/>
  <outline>
    <contour>
      <point x="711" y="620" type="line"/>
      <point x="177.024249737" y="886.987875132" type="line" smooth="yes"/>
      <point x="110.835550588" y="920.082224706"/>
      <point x="103.0" y="932.760411878"/>
      <point x="103.0" y="1006.7616272" type="curve" smooth="yes"/>
      <point x="103.0" y="1149.2383728" type="line" smooth="yes"/>
      <point x="103.0" y="1219.43122097"/>
      <point x="114.018924064" y="1225.95371859"/>
      <point x="175.556298668" y="1192.18705663" type="curve" smooth="yes"/>
      <point x="810.443701332" y="843.812943372" type="line" smooth="yes"/>
      <point x="875.169164973" y="808.296919733"/>
      <point x="883.0" y="795.067727254"/>
      <point x="883.0" y="721.238372803" type="curve" smooth="yes"/>
      <point x="883.0" y="538.761627197" type="line" smooth="yes"/>
      <point x="883.0" y="465.076477564"/>
      <point x="875.164306017" y="451.419132749"/>
      <point x="811.552152565" y="414.230489192" type="curve" smooth="yes"/>
      <point x="174.447847435" y="41.7695108084" type="line" smooth="yes"/>
      <point x="114.093807453" y="6.48561051122"/>
      <point x="103.0" y="12.8505139009"/>
      <point x="103.0" y="82.7616271973" type="curve" smooth="yes"/>
      <point x="103.0" y="249.238372803" type="line" smooth="yes"/>
      <point x="103.0" y="323.320276494"/>
      <point x="110.844194563" y="335.715671109"/>
      <point x="177.794814107" y="367.429122472" type="curve" smooth="yes"/>
    </contour>
  </outline>
</glyph>
<glyph name="question" format="1">
  <advance width="1035"/>
  <unicode hex="003F"/>
  <outline>
    <contour>
      <point x="986" y="1058" type="curve" smooth="yes"/>
      <point x="986" y="798.092"/>
      <point x="752.303" y="755.78"/>
      <point x="586.5" y="661.5" type="curve" smooth="yes"/>
      <point x="540.55" y="635.371"/>
      <point x="526" y="613.819"/>
      <point x="526" y="546" type="curve" smooth="yes"/>
      <point x="526.0" y="532.0" type="line" smooth="yes"/>
      <point x="526.0" y="521.297711344"/>
      <point x="524.702288656" y="520.0"/>
      <point x="514.0" y="520.0" type="curve" smooth="yes"/>
      <point x="279.326790103" y="520.0" type="line" smooth="yes"/>
      <point x="243.987483009" y="520.0"/>
      <point x="238.813448926" y="523.806851363"/>
      <point x="228.297568935" y="557.545299666" type="curve" smooth="yes"/>
      <point x="216" y="597" type="line"/>
      <point x="210.775" y="617.901"/>
      <point x="204" y="653.412"/>
      <point x="204" y="680" type="curve" smooth="yes"/>
      <point x="206.731" y="887.581"/>
      <point x="391.483" y="898.838"/>
      <point x="510.5" y="990" type="curve" smooth="yes"/>
      <point x="526.167" y="1002"/>
      <point x="534" y="1014"/>
      <point x="534" y="1026" type="curve" smooth="yes"/>
      <point x="534" y="1070"/>
      <point x="480" y="1092"/>
      <point x="372" y="1092" type="curve" smooth="yes"/>
      <point x="301.615131592" y="1092.0"/>
      <point x="238.671773298" y="1083.96284759"/>
      <point x="183.170223481" y="1067.88854277" type="curve" smooth="yes"/>
      <point x="112.33418739" y="1047.37307897"/>
      <point x="104.689793035" y="1052.59944904"/>
      <point x="98.0979592898" y="1126.05131077" type="curve" smooth="yes"/>
      <point x="85.1183943972" y="1270.68074815" type="line" smooth="yes"/>
      <point x="78.6209372982" y="1343.08098439"/>
      <point x="86.7247907038" y="1355.59662714"/>
      <point x="155.444986816" y="1379.29358482" type="curve" smooth="yes"/>
      <point x="272.809047125" y="1419.76452827"/>
      <point x="384.327200195" y="1440.0"/>
      <point x="490" y="1440" type="curve" smooth="yes"/>
      <point x="753.419" y="1440"/>
      <point x="986" y="1317.57"/>
    </contour>
    <contour>
      <point x="148" y="176" type="curve" smooth="yes"/>
      <point x="148" y="299.324"/>
      <point x="256.553" y="382"/>
      <point x="380" y="382" type="curve" smooth="yes"/>
      <point x="502.468" y="382"/>
      <point x="610" y="297.335"/>
      <point x="610" y="176" type="curve" smooth="yes"/>
      <point x="610" y="50.9052"/>
      <point x="505.205" y="-32"/>
      <point x="380" y="-32" type="curve" smooth="yes"/>
      <point x="252.296" y="-32"/>
      <point x="148" y="49.4489"/>
    </contour>
  </outline>
</glyph>
<glyph name="at" format="1">
  <advance width="1769"/>
  <unicode hex="0040"/>
  <outline>
    <contour>
      <point x="1362" y="377" type="curve" smooth="yes"/>
      <point x="1217.33" y="377"/>
      <point x="1114" y="427.333"/>
      <point x="1052" y="528" type="curve"/>
      <point x="1007.77" y="443.227"/>
      <point x="928.055" y="379"/>
      <point x="804" y="379" type="curve" smooth="yes"/>
      <point x="598.65" y="379"/>
      <point x="467" y="547.61"/>
      <point x="467" y="750" type="curve" smooth="yes"/>
      <point x="467" y="948.261"/>
      <point x="609.681" y="1111"/>
      <point x="806" y="1111" type="curve" smooth="yes"/>
      <point x="933.039000488" y="1111.0"/>
      <point x="1056.41230058" y="1106.02854358"/>
      <point x="1178.48273551" y="1097.39409419" type="curve" smooth="yes"/>
      <point x="1252.09848998" y="1092.18700611"/>
      <point x="1261.0" y="1082.63362231"/>
      <point x="1261.0" y="1008.83394025" type="curve" smooth="yes"/>
      <point x="1261" y="622" type="line"/>
      <point x="1287" y="594.667"/>
      <point x="1312" y="581"/>
      <point x="1336" y="581" type="curve" smooth="yes"/>
      <point x="1439.21" y="581"/>
      <point x="1456" y="729.255"/>
      <point x="1456" y="835" type="curve" smooth="yes"/>
      <point x="1456" y="1129.67"/>
      <point x="1274" y="1277"/>
      <point x="910" y="1277" type="curve" smooth="yes"/>
      <point x="571.537" y="1277"/>
      <point x="321" y="1072.4"/>
      <point x="321" y="737" type="curve" smooth="yes"/>
      <point x="321" y="401.65"/>
      <point x="567.907" y="213"/>
      <point x="900" y="213" type="curve" smooth="yes"/>
      <point x="1020.00732422" y="213.0"/>
      <point x="1131.482407" y="233.055567965"/>
      <point x="1234.4201274" y="273.16721599" type="curve" smooth="yes"/>
      <point x="1305.84703038" y="301.000072405"/>
      <point x="1315.49765467" y="297.653987059"/>
      <point x="1354.36487431" y="231.579713677" type="curve" smooth="yes"/>
      <point x="1389.60671557" y="171.66858353" type="line" smooth="yes"/>
      <point x="1426.31610416" y="109.262622927"/>
      <point x="1422.14292059" y="95.5082647655"/>
      <point x="1356.94574383" y="64.0215807317" type="curve" smooth="yes"/>
      <point x="1231.58597926" y="3.47964481699"/>
      <point x="1089.94549072" y="-32.0"/>
      <point x="900" y="-32" type="curve" smooth="yes"/>
      <point x="509.453" y="-32"/>
      <point x="240.299" y="152.347"/>
      <point x="123" y="428" type="curve" smooth="yes"/>
      <point x="83" y="522"/>
      <point x="63" y="624.667"/>
      <point x="63" y="736" type="curve" smooth="yes"/>
      <point x="63" y="1106.77"/>
      <point x="278.483" y="1343.65"/>
      <point x="551" y="1453" type="curve" smooth="yes"/>
      <point x="655.667" y="1495"/>
      <point x="774.667" y="1516"/>
      <point x="908" y="1516" type="curve" smooth="yes"/>
      <point x="1374.2" y="1516"/>
      <point x="1716" y="1301.45"/>
      <point x="1716" y="839" type="curve" smooth="yes"/>
      <point x="1716" y="581.927"/>
      <point x="1616.17" y="377"/>
    </contour>
    <contour>
      <point x="1012" y="739" type="curve" smooth="yes"/>
      <point x="1012" y="902" type="line"/>
      <point x="876" y="902" type="line" smooth="yes"/>
      <point x="790.094" y="902"/>
      <point x="737" y="830.995"/>
      <point x="737" y="745" type="curve" smooth="yes"/>
      <point x="737" y="663.935"/>
      <point x="794.919" y="607"/>
      <point x="876" y="607" type="curve" smooth="yes"/>
      <point x="951.573" y="607"/>
      <point x="1012" y="663.676"/>
    </contour>
  </outline>
</glyph>
<glyph name="A" format="1">
  <advance width="1431"/>
  <unicode hex="0041"/>
  <outline>
    <contour>
      <point x="934.738372803" y="1408.0" type="line" smooth="yes"/>
      <point x="1009.11798494" y="1408.0"/>
      <point x="1019.8329083" y="1399.94917922"/>
      <point x="1040.53447146" y="1328.50849064" type="curve" smooth="yes"/>
      <point x="1402.46552854" y="79.4915093627" type="line" smooth="yes"/>
      <point x="1422.54652363" y="10.1923890549"/>
      <point x="1414.88831694" y="1.29955636913e-15"/>
      <point x="1342.7383728" y="1.01353761839e-14" type="curve" smooth="yes"/>
      <point x="1026.2616272" y="-1.01353761839e-14" type="line" smooth="yes"/>
      <point x="951.881966348" y="-1.0264948258e-15"/>
      <point x="941.424639654" y="8.12097526686"/>
      <point x="923.00836449" y="80.184660693" type="curve" smooth="yes"/>
      <point x="874.5" y="270" type="line"/>
      <point x="535.5" y="270" type="line"/>
      <point x="487.712491353" y="80.2554803714" type="line" smooth="yes"/>
      <point x="469.547353161" y="8.12919637424"/>
      <point x="459.116952305" y="1.02662725268e-15"/>
      <point x="384.738372803" y="1.01353761839e-14" type="curve" smooth="yes"/>
      <point x="88.2616271973" y="-1.01353761839e-14" type="line" smooth="yes"/>
      <point x="16.0224742055" y="-1.28863143549e-15"/>
      <point x="8.3088457259" y="10.1406532874"/>
      <point x="27.5922036282" y="79.7585197655" type="curve" smooth="yes"/>
      <point x="373.407796372" y="1328.24148023" type="line" smooth="yes"/>
      <point x="393.263092909" y="1399.92419183"/>
      <point x="403.879882508" y="1408.0"/>
      <point x="478.261627197" y="1408.0" type="curve" smooth="yes"/>
    </contour>
    <contour>
      <point x="707.5" y="1048" type="line"/>
      <point x="579.5" y="522" type="line"/>
      <point x="826.5" y="522" type="line"/>
    </contour>
  </outline>
</glyph>
<glyph name="B" format="1">
  <advance width="1476"/>
  <unicode hex="0042"/>
  <outline>
    <contour>
      <point x="1426" y="428" type="curve" smooth="yes"/>
      <point x="1426" y="128.02"/>
      <point x="1132.92" y="-32"/>
      <point x="830" y="-32" type="curve" smooth="yes"/>
      <point x="690.574033569" y="-32.0"/>
      <point x="486.10385617" y="-23.7317031324"/>
      <point x="216.589467803" y="-7.19510939717" type="curve" smooth="yes"/>
      <point x="142.759020259" y="-2.66509478939"/>
      <point x="134.0" y="6.64782462788"/>
      <point x="134.0" y="80.6171156667" type="curve" smooth="yes"/>
      <point x="134.0" y="1325.2383728" type="line" smooth="yes"/>
      <point x="134.0" y="1399.04994146"/>
      <point x="142.950058537" y="1408.0"/>
      <point x="216.761627197" y="1408.0" type="curve" smooth="yes"/>
      <point x="838" y="1408" type="line" smooth="yes"/>
      <point x="1095.23" y="1408"/>
      <point x="1362" y="1315.92"/>
      <point x="1362" y="1066" type="curve" smooth="yes"/>
      <point x="1362" y="895.076"/>
      <point x="1286.82" y="788.589"/>
      <point x="1138" y="766" type="curve"/>
      <point x="1322.07" y="748.785"/>
      <point x="1426" y="628.697"/>
    </contour>
    <contour>
      <point x="976" y="456" type="curve" smooth="yes"/>
      <point x="976" y="575.107"/>
      <point x="883.901" y="626"/>
      <point x="764" y="626" type="curve" smooth="yes"/>
      <point x="588" y="626" type="line"/>
      <point x="588" y="297" type="line"/>
      <point x="603.333" y="296.333"/>
      <point x="618.333" y="296"/>
      <point x="633" y="296" type="curve" smooth="yes"/>
      <point x="790" y="296" type="line" smooth="yes"/>
      <point x="894.133" y="296"/>
      <point x="976" y="352.759"/>
    </contour>
    <contour>
      <point x="936" y="992" type="curve" smooth="yes"/>
      <point x="936" y="1088"/>
      <point x="876" y="1136"/>
      <point x="756" y="1136" type="curve" smooth="yes"/>
      <point x="590" y="1136" type="line"/>
      <point x="590" y="852" type="line"/>
      <point x="752" y="852" type="line" smooth="yes"/>
      <point x="848.987" y="852"/>
      <point x="936" y="896.515"/>
    </contour>
  </outline>
</glyph>
<glyph name="C" format="1">
  <advance width="1237"/>
  <unicode hex="0043"/>
  <outline>
    <contour>
      <point x="875" y="338" type="curve" smooth="yes"/>
      <point x="945.474854492" y="338.0"/>
      <point x="999.898593746" y="349.973321716"/>
      <point x="1051.49625021" y="367.091409376" type="curve" smooth="yes"/>
      <point x="1121.14591464" y="390.198448399"/>
      <point x="1131.01923367" y="384.281233178"/>
      <point x="1143.47999933" y="311.964289604" type="curve" smooth="yes"/>
      <point x="1171.93087732" y="146.847586999" type="line" smooth="yes"/>
      <point x="1184.01729543" y="76.7031961658"/>
      <point x="1176.31268367" y="62.288396984"/>
      <point x="1111.27570824" y="33.3659334986" type="curve" smooth="yes"/>
      <point x="1013.28491346" y="-10.2113571857"/>
      <point x="908.527523682" y="-32.0"/>
      <point x="797" y="-32" type="curve" smooth="yes"/>
      <point x="383.048" y="-32"/>
      <point x="66.7752" y="290.988"/>
      <point x="63" y="705" type="curve" smooth="yes"/>
      <point x="63.0001" y="1138.13"/>
      <point x="354.578" y="1439"/>
      <point x="785" y="1439" type="curve" smooth="yes"/>
      <point x="901.487125977" y="1439.0"/>
      <point x="1009.48753917" y="1417.35671806"/>
      <point x="1108.99768436" y="1374.07015419" type="curve" smooth="yes"/>
      <point x="1174.2514171" y="1345.6850095"/>
      <point x="1182.03350434" y="1331.30841446"/>
      <point x="1170.12025023" y="1261.15258468" type="curve" smooth="yes"/>
      <point x="1143.37208568" y="1103.63561567" type="line" smooth="yes"/>
      <point x="1130.97762906" y="1030.64603779"/>
      <point x="1121.73539671" y="1024.86646587"/>
      <point x="1050.68521545" y="1045.67446377" type="curve" smooth="yes"/>
      <point x="983.933637173" y="1065.22355817"/>
      <point x="921.373288086" y="1075.0"/>
      <point x="863" y="1075" type="curve" smooth="yes"/>
      <point x="636.539" y="1075"/>
      <point x="523" y="935.552"/>
      <point x="523" y="707" type="curve" smooth="yes"/>
      <point x="523" y="476.513"/>
      <point x="644.984" y="338"/>
    </contour>
  </outline>
</glyph>
<glyph name="D" format="1">
  <advance width="1565"/>
  <unicode hex="0044"/>
  <outline>
    <contour>
      <point x="746" y="1408" type="line" smooth="yes"/>
      <point x="1187.38" y="1408"/>
      <point x="1500" y="1151.2"/>
      <point x="1500" y="714" type="curve" smooth="yes"/>
      <point x="1500" y="264.182"/>
      <point x="1196.08" y="7.53041e-06"/>
      <point x="746" y="0" type="curve" smooth="yes"/>
      <point x="216.761627197" y="-1.01353761839e-14" type="line" smooth="yes"/>
      <point x="142.950058537" y="-1.09606605401e-15"/>
      <point x="134.0" y="8.95005853743"/>
      <point x="134.0" y="82.7616271973" type="curve" smooth="yes"/>
      <point x="134.0" y="1325.2383728" type="line" smooth="yes"/>
      <point x="134.0" y="1399.04994146"/>
      <point x="142.950058537" y="1408.0"/>
      <point x="216.761627197" y="1408.0" type="curve" smooth="yes"/>
    </contour>
    <contour>
      <point x="746" y="1040" type="curve" smooth="yes"/>
      <point x="586" y="1040" type="line"/>
      <point x="586" y="368" type="line"/>
      <point x="746" y="368" type="line" smooth="yes"/>
      <point x="936.227" y="368"/>
      <point x="1040" y="530.188"/>
      <point x="1040" y="718" type="curve" smooth="yes"/>
      <point x="1040" y="902.996"/>
      <point x="929.633" y="1040"/>
    </contour>
  </outline>
</glyph>
<glyph name="E" format="1">
  <advance width="1218"/>
  <unicode hex="0045"/>
  <outline>
    <contour>
      <point x="1039.2383728" y="1408.0" type="line" smooth="yes"/>
      <point x="1113.04994146" y="1408.0"/>
      <point x="1122.0" y="1399.04994146"/>
      <point x="1122.0" y="1325.2383728" type="curve" smooth="yes"/>
      <point x="1122.0" y="1180.7616272" type="line" smooth="yes"/>
      <point x="1122.0" y="1106.95005854"/>
      <point x="1113.04994146" y="1098.0"/>
      <point x="1039.2383728" y="1098.0" type="curve" smooth="yes"/>
      <point x="630" y="1098" type="line"/>
      <point x="630" y="842" type="line"/>
      <point x="997.238372803" y="842.0" type="line" smooth="yes"/>
      <point x="1071.04994146" y="842.0"/>
      <point x="1080.0" y="833.049941463"/>
      <point x="1080.0" y="759.238372803" type="curve" smooth="yes"/>
      <point x="1080.0" y="666.761627197" type="line" smooth="yes"/>
      <point x="1080.0" y="592.950058537"/>
      <point x="1071.04994146" y="584.0"/>
      <point x="997.238372803" y="584.0" type="curve" smooth="yes"/>
      <point x="630" y="584" type="line"/>
      <point x="630" y="308" type="line"/>
      <point x="1039.2383728" y="308.0" type="line" smooth="yes"/>
      <point x="1113.04994146" y="308.0"/>
      <point x="1122.0" y="299.049941463"/>
      <point x="1122.0" y="225.238372803" type="curve" smooth="yes"/>
      <point x="1122.0" y="82.7616271973" type="line" smooth="yes"/>
      <point x="1122.0" y="8.95005853743"/>
      <point x="1113.04994146" y="1.09606605401e-15"/>
      <point x="1039.2383728" y="1.01353761839e-14" type="curve" smooth="yes"/>
      <point x="216.761627197" y="-1.01353761839e-14" type="line" smooth="yes"/>
      <point x="142.950058537" y="-1.09606605401e-15"/>
      <point x="134.0" y="8.95005853743"/>
      <point x="134.0" y="82.7616271973" type="curve" smooth="yes"/>
      <point x="134.0" y="1325.2383728" type="line" smooth="yes"/>
      <point x="134.0" y="1399.04994146"/>
      <point x="142.950058537" y="1408.0"/>
      <point x="216.761627197" y="1408.0" type="curve" smooth="yes"/>
    </contour>
  </outline>
</glyph>
<glyph name="F" format="1">
  <advance width="1168"/>
  <unicode hex="0046"/>
  <outline>
    <contour>
      <point x="1021.2383728" y="1408.0" type="line" smooth="yes"/>
      <point x="1095.04994146" y="1408.0"/>
      <point x="1104.0" y="1399.04994146"/>
      <point x="1104.0" y="1325.2383728" type="curve" smooth="yes"/>
      <point x="1104.0" y="1180.7616272" type="line" smooth="yes"/>
      <point x="1104.0" y="1106.95005854"/>
      <point x="1095.04994146" y="1098.0"/>
      <point x="1021.2383728" y="1098.0" type="curve" smooth="yes"/>
      <point x="574" y="1098" type="line"/>
      <point x="574" y="814" type="line"/>
      <point x="981.238372803" y="814.0" type="line" smooth="yes"/>
      <point x="1055.04994146" y="814.0"/>
      <point x="1064.0" y="805.049941463"/>
      <point x="1064.0" y="731.238372803" type="curve" smooth="yes"/>
      <point x="1064.0" y="636.761627197" type="line" smooth="yes"/>
      <point x="1064.0" y="562.950058537"/>
      <point x="1055.04994146" y="554.0"/>
      <point x="981.238372803" y="554.0" type="curve" smooth="yes"/>
      <point x="574" y="554" type="line"/>
      <point x="574.0" y="82.7616271973" type="line" smooth="yes"/>
      <point x="574.0" y="8.95005853743"/>
      <point x="565.049941463" y="1.09606605401e-15"/>
      <point x="491.238372803" y="1.01353761839e-14" type="curve" smooth="yes"/>
      <point x="216.761627197" y="-1.01353761839e-14" type="line" smooth="yes"/>
      <point x="142.950058537" y="-1.09606605401e-15"/>
      <point x="134.0" y="8.95005853743"/>
      <point x="134.0" y="82.7616271973" type="curve" smooth="yes"/>
      <point x="134.0" y="1325.2383728" type="line" smooth="yes"/>
      <point x="134.0" y="1399.04994146"/>
      <point x="142.950058537" y="1408.0"/>
      <point x="216.761627197" y="1408.0" type="curve" smooth="yes"/>
    </contour>
  </outline>
</glyph>
<glyph name="G" format="1">
  <advance width="1349"/>
  <unicode hex="0047"/>
  <outline>
    <contour>
      <point x="767" y="1440" type="curve" smooth="yes"/>
      <point x="910.963816406" y="1440.0"/>
      <point x="1043.60716858" y="1416.90255737"/>
      <point x="1164.92501722" y="1370.70767212" type="curve" smooth="yes"/>
      <point x="1232.53562346" y="1344.96319814"/>
      <point x="1238.23527703" y="1331.53542718"/>
      <point x="1209.78721361" y="1265.01716124" type="curve" smooth="yes"/>
      <point x="1138.37928766" y="1098.04862851" type="line" smooth="yes"/>
      <point x="1108.79697649" y="1028.87822443"/>
      <point x="1098.24999449" y="1023.79986174"/>
      <point x="1025.72857704" y="1043.80740897" type="curve" smooth="yes"/>
      <point x="943.097781773" y="1066.60397856"/>
      <point x="876.188406982" y="1078.0"/>
      <point x="825" y="1078" type="curve" smooth="yes"/>
      <point x="624.63" y="1078"/>
      <point x="517" y="910.917"/>
      <point x="517" y="711" type="curve" smooth="yes"/>
      <point x="517" y="509.812"/>
      <point x="626.513" y="336"/>
      <point x="825" y="336" type="curve" smooth="yes"/>
      <point x="849.667" y="336"/>
      <point x="877" y="338"/>
      <point x="907" y="342" type="curve"/>
      <point x="907.0" y="591.238372803" type="line" smooth="yes"/>
      <point x="907.0" y="665.422576826"/>
      <point x="915.523184916" y="674.963071742"/>
      <point x="989.238294451" y="683.29246265" type="curve" smooth="yes"/>
      <point x="1178.76170555" y="704.70753735" type="line" smooth="yes"/>
      <point x="1251.56595371" y="712.934006068"/>
      <point x="1261.0" y="704.505919079"/>
      <point x="1261.0" y="631.238372803" type="curve" smooth="yes"/>
      <point x="1261.0" y="152.953174124" type="line" smooth="yes"/>
      <point x="1261.0" y="80.886767956"/>
      <point x="1251.91251215" y="67.8540261194"/>
      <point x="1184.28969193" y="42.9397514534" type="curve" smooth="yes"/>
      <point x="1048.68770981" y="-7.02008483035"/>
      <point x="910.2578125" y="-32.0"/>
      <point x="769" y="-32" type="curve" smooth="yes"/>
      <point x="370.816" y="-32"/>
      <point x="61" y="313.819"/>
      <point x="61" y="716" type="curve" smooth="yes"/>
      <point x="61" y="1106.13"/>
      <point x="379.192" y="1440"/>
    </contour>
  </outline>
</glyph>
<glyph name="H" format="1">
  <advance width="1626"/>
  <unicode hex="0048"/>
  <outline>
    <contour>
      <point x="511.238372803" y="1408.0" type="line" smooth="yes"/>
      <point x="585.049941463" y="1408.0"/>
      <point x="594.0" y="1399.04994146"/>
      <point x="594.0" y="1325.2383728" type="curve" smooth="yes"/>
      <point x="594" y="848" type="line"/>
      <point x="1030" y="848" type="line"/>
      <point x="1030.0" y="1325.2383728" type="line" smooth="yes"/>
      <point x="1030.0" y="1399.04994146"/>
      <point x="1038.95005854" y="1408.0"/>
      <point x="1112.7616272" y="1408.0" type="curve" smooth="yes"/>
      <point x="1409.2383728" y="1408.0" type="line" smooth="yes"/>
      <point x="1483.04994146" y="1408.0"/>
      <point x="1492.0" y="1399.04994146"/>
      <point x="1492.0" y="1325.2383728" type="curve" smooth="yes"/>
      <point x="1492.0" y="82.7616271973" type="line" smooth="yes"/>
      <point x="1492.0" y="8.95005853743"/>
      <point x="1483.04994146" y="1.09606605401e-15"/>
      <point x="1409.2383728" y="1.01353761839e-14" type="curve" smooth="yes"/>
      <point x="1112.7616272" y="-1.01353761839e-14" type="line" smooth="yes"/>
      <point x="1038.95005854" y="-1.09606605401e-15"/>
      <point x="1030.0" y="8.95005853743"/>
      <point x="1030.0" y="82.7616271973" type="curve" smooth="yes"/>
      <point x="1030" y="552" type="line"/>
      <point x="594" y="552" type="line"/>
      <point x="594.0" y="82.7616271973" type="line" smooth="yes"/>
      <point x="594.0" y="8.95005853743"/>
      <point x="585.049941463" y="1.09606605401e-15"/>
      <point x="511.238372803" y="1.01353761839e-14" type="curve" smooth="yes"/>
      <point x="216.761627197" y="-1.01353761839e-14" type="line" smooth="yes"/>
      <point x="142.950058537" y="-1.09606605401e-15"/>
      <point x="134.0" y="8.95005853743"/>
      <point x="134.0" y="82.7616271973" type="curve" smooth="yes"/>
      <point x="134.0" y="1325.2383728" type="line" smooth="yes"/>
      <point x="134.0" y="1399.04994146"/>
      <point x="142.950058537" y="1408.0"/>
      <point x="216.761627197" y="1408.0" type="curve" smooth="yes"/>
    </contour>
  </outline>
</glyph>
<glyph name="I" format="1">
  <advance width="740"/>
  <unicode hex="0049"/>
  <outline>
    <contour>
      <point x="523.238372803" y="1408.0" type="line" smooth="yes"/>
      <point x="597.049941463" y="1408.0"/>
      <point x="606.0" y="1399.04994146"/>
      <point x="606.0" y="1325.2383728" type="curve" smooth="yes"/>
      <point x="606.0" y="82.7616271973" type="line" smooth="yes"/>
      <point x="606.0" y="8.95005853743"/>
      <point x="597.049941463" y="1.09606605401e-15"/>
      <point x="523.238372803" y="1.01353761839e-14" type="curve" smooth="yes"/>
      <point x="216.761627197" y="-1.01353761839e-14" type="line" smooth="yes"/>
      <point x="142.950058537" y="-1.09606605401e-15"/>
      <point x="134.0" y="8.95005853743"/>
      <point x="134.0" y="82.7616271973" type="curve" smooth="yes"/>
      <point x="134.0" y="1325.2383728" type="line" smooth="yes"/>
      <point x="134.0" y="1399.04994146"/>
      <point x="142.950058537" y="1408.0"/>
      <point x="216.761627197" y="1408.0" type="curve" smooth="yes"/>
    </contour>
  </outline>
</glyph>
<glyph name="J" format="1">
  <advance width="934"/>
  <unicode hex="004A"/>
  <outline>
    <contour>
      <point x="350" y="-92" type="curve" smooth="yes"/>
      <point x="250.763085205" y="-92.0"/>
      <point x="157.255282705" y="-69.9035737514"/>
      <point x="69.4761116271" y="-25.7107212543" type="curve" smooth="yes"/>
      <point x="5.756180931" y="6.36938913868"/>
      <point x="-0.0283919620147" y="21.2165462672"/>
      <point x="25.1933420934" y="87.9490509555" type="curve" smooth="yes"/>
      <point x="67.4552760424" y="199.767084529" type="line" smooth="yes"/>
      <point x="90.5346729074" y="260.831322067"/>
      <point x="97.9592774603" y="264.854374868"/>
      <point x="161.718239248" y="250.843862475" type="curve" smooth="yes"/>
      <point x="188.549575265" y="244.947894986"/>
      <point x="212.643554688" y="242.0"/>
      <point x="234" y="242" type="curve" smooth="yes"/>
      <point x="324.667" y="242"/>
      <point x="370" y="298.667"/>
      <point x="370" y="412" type="curve" smooth="yes"/>
      <point x="370.0" y="1325.2383728" type="line" smooth="yes"/>
      <point x="370.0" y="1399.04994146"/>
      <point x="378.950058537" y="1408.0"/>
      <point x="452.761627197" y="1408.0" type="curve" smooth="yes"/>
      <point x="727.238372803" y="1408.0" type="line" smooth="yes"/>
      <point x="801.049941463" y="1408.0"/>
      <point x="810.0" y="1399.04994146"/>
      <point x="810.0" y="1325.2383728" type="curve" smooth="yes"/>
      <point x="810" y="412" type="line" smooth="yes"/>
      <point x="810" y="108.194"/>
      <point x="651.932" y="-92"/>
    </contour>
  </outline>
</glyph>
<glyph name="K" format="1">
  <advance width="1570"/>
  <unicode hex="004B"/>
  <outline>
    <contour>
      <point x="525.238372803" y="1408.0" type="line" smooth="yes"/>
      <point x="599.049941463" y="1408.0"/>
      <point x="608.0" y="1399.04994146"/>
      <point x="608.0" y="1325.2383728" type="curve" smooth="yes"/>
      <point x="608" y="834" type="line"/>
      <point x="756" y="834" type="line"/>
      <point x="992.559676067" y="1333.21049288" type="line" smooth="yes"/>
      <point x="1024.28292645" y="1400.15588155"/>
      <point x="1036.68025518" y="1408.0"/>
      <point x="1110.7616272" y="1408.0" type="curve" smooth="yes"/>
      <point x="1457.0" y="1408.0" type="line" smooth="yes"/>
      <point x="1497.13358246" y="1408.0"/>
      <point x="1502.0" y="1403.13358246"/>
      <point x="1502.0" y="1363.0" type="curve" smooth="yes"/>
      <point x="1502.0" y="1361.0" type="line" smooth="yes"/>
      <point x="1502.0" y="1325.56367997"/>
      <point x="1497.49077885" y="1307.56608637"/>
      <point x="1480.78275388" y="1276.31589151" type="curve" smooth="yes"/>
      <point x="1178" y="710" type="line"/>
      <point x="1524.88445119" y="130.609213965" type="line" smooth="yes"/>
      <point x="1543.45458956" y="99.5920639289"/>
      <point x="1548.0" y="83.1512604969"/>
      <point x="1548.0" y="47.0" type="curve" smooth="yes"/>
      <point x="1548.0" y="45.0" type="line" smooth="yes"/>
      <point x="1548.0" y="4.86641753943"/>
      <point x="1543.13358246" y="5.95964266298e-16"/>
      <point x="1503.0" y="5.51091059616e-15" type="curve" smooth="yes"/>
      <point x="1132.7616272" y="-1.01353761839e-14" type="line" smooth="yes"/>
      <point x="1058.89679885" y="-1.08954362335e-15"/>
      <point x="1045.77702688" y="7.83067863007"/>
      <point x="1010.71619323" y="72.8441450074" type="curve" smooth="yes"/>
      <point x="748" y="560" type="line"/>
      <point x="608" y="560" type="line"/>
      <point x="608.0" y="82.7616271973" type="line" smooth="yes"/>
      <point x="608.0" y="8.95005853743"/>
      <point x="599.049941463" y="1.09606605401e-15"/>
      <point x="525.238372803" y="1.01353761839e-14" type="curve" smooth="yes"/>
      <point x="216.761627197" y="-1.01353761839e-14" type="line" smooth="yes"/>
      <point x="142.950058537" y="-1.09606605401e-15"/>
      <point x="134.0" y="8.95005853743"/>
      <point x="134.0" y="82.7616271973" type="curve" smooth="yes"/>
      <point x="134.0" y="1325.2383728" type="line" smooth="yes"/>
      <point x="134.0" y="1399.04994146"/>
      <point x="142.950058537" y="1408.0"/>
      <point x="216.761627197" y="1408.0" type="curve" smooth="yes"/>
    </contour>
  </outline>
</glyph>
<glyph name="L" format="1">
  <advance width="1102"/>
  <unicode hex="004C"/>
  <outline>
    <contour>
      <point x="493.238372803" y="1408.0" type="line" smooth="yes"/>
      <point x="567.049941463" y="1408.0"/>
      <point x="576.0" y="1399.04994146"/>
      <point x="576.0" y="1325.2383728" type="curve" smooth="yes"/>
      <point x="576" y="302" type="line"/>
      <point x="981.238372803" y="302.0" type="line" smooth="yes"/>
      <point x="1055.04994146" y="302.0"/>
      <point x="1064.0" y="293.049941463"/>
      <point x="1064.0" y="219.238372803" type="curve" smooth="yes"/>
      <point x="1064.0" y="82.7616271973" type="line" smooth="yes"/>
      <point x="1064.0" y="8.95005853743"/>
      <point x="1055.04994146" y="1.09606605401e-15"/>
      <point x="981.238372803" y="1.01353761839e-14" type="curve" smooth="yes"/>
      <point x="216.761627197" y="-1.01353761839e-14" type="line" smooth="yes"/>
      <point x="142.950058537" y="-1.09606605401e-15"/>
      <point x="134.0" y="8.95005853743"/>
      <point x="134.0" y="82.7616271973" type="curve" smooth="yes"/>
      <point x="134.0" y="1325.2383728" type="line" smooth="yes"/>
      <point x="134.0" y="1399.04994146"/>
      <point x="142.950058537" y="1408.0"/>
      <point x="216.761627197" y="1408.0" type="curve" smooth="yes"/>
    </contour>
  </outline>
</glyph>
<glyph name="M" format="1">
  <advance width="1816"/>
  <unicode hex="004D"/>
  <outline>
    <contour>
      <point x="477.238372803" y="1408.0" type="line" smooth="yes"/>
      <point x="551.191014402" y="1408.0"/>
      <point x="564.030841865" y="1400.16734138"/>
      <point x="597.870311856" y="1334.41109855" type="curve" smooth="yes"/>
      <point x="912" y="724" type="line"/>
      <point x="1218.81502277" y="1334.062429" type="line" smooth="yes"/>
      <point x="1252.05965801" y="1400.16513395"/>
      <point x="1264.76991568" y="1408.0"/>
      <point x="1338.7616272" y="1408.0" type="curve" smooth="yes"/>
      <point x="1599.2383728" y="1408.0" type="line" smooth="yes"/>
      <point x="1673.04994146" y="1408.0"/>
      <point x="1682.0" y="1399.04994146"/>
      <point x="1682.0" y="1325.2383728" type="curve" smooth="yes"/>
      <point x="1682.0" y="82.7616271973" type="line" smooth="yes"/>
      <point x="1682.0" y="8.95005853743"/>
      <point x="1673.04994146" y="1.09606605401e-15"/>
      <point x="1599.2383728" y="1.01353761839e-14" type="curve" smooth="yes"/>
      <point x="1338.7616272" y="-1.01353761839e-14" type="line" smooth="yes"/>
      <point x="1264.95005854" y="-1.09606605401e-15"/>
      <point x="1256.0" y="8.95005853743"/>
      <point x="1256.0" y="82.7616271973" type="curve" smooth="yes"/>
      <point x="1256" y="752" type="line"/>
      <point x="1034.66847183" y="333.172646686" type="line" smooth="yes"/>
      <point x="1000.138393" y="267.831112906"/>
      <point x="987.142651302" y="260.0"/>
      <point x="913.238372803" y="260.0" type="curve" smooth="yes"/>
      <point x="904.761627197" y="260.0" type="line" smooth="yes"/>
      <point x="830.871993543" y="260.0"/>
      <point x="817.829901718" y="267.830871583"/>
      <point x="783.099597547" y="333.049610713" type="curve" smooth="yes"/>
      <point x="560" y="752" type="line"/>
      <point x="560.0" y="82.7616271973" type="line" smooth="yes"/>
      <point x="560.0" y="8.95005853743"/>
      <point x="551.049941463" y="1.09606605401e-15"/>
      <point x="477.238372803" y="1.01353761839e-14" type="curve" smooth="yes"/>
      <point x="216.761627197" y="-1.01353761839e-14" type="line" smooth="yes"/>
      <point x="142.950058537" y="-1.09606605401e-15"/>
      <point x="134.0" y="8.95005853743"/>
      <point x="134.0" y="82.7616271973" type="curve" smooth="yes"/>
      <point x="134.0" y="1325.2383728" type="line" smooth="yes"/>
      <point x="134.0" y="1399.04994146"/>
      <point x="142.950058537" y="1408.0"/>
      <point x="216.761627197" y="1408.0" type="curve" smooth="yes"/>
    </contour>
  </outline>
</glyph>
<glyph name="N" format="1">
  <advance width="1606"/>
  <unicode hex="004E"/>
  <outline>
    <contour>
      <point x="461.238372803" y="1408.0" type="line" smooth="yes"/>
      <point x="534.144170034" y="1408.0"/>
      <point x="549.869957965" y="1400.08286808"/>
      <point x="593.291360999" y="1341.51805759" type="curve" smooth="yes"/>
      <point x="1106" y="650" type="line"/>
      <point x="1106.0" y="1325.2383728" type="line" smooth="yes"/>
      <point x="1106.0" y="1399.04994146"/>
      <point x="1114.95005854" y="1408.0"/>
      <point x="1188.7616272" y="1408.0" type="curve" smooth="yes"/>
      <point x="1389.2383728" y="1408.0" type="line" smooth="yes"/>
      <point x="1463.04994146" y="1408.0"/>
      <point x="1472.0" y="1399.04994146"/>
      <point x="1472.0" y="1325.2383728" type="curve" smooth="yes"/>
      <point x="1472.0" y="82.7616271973" type="line" smooth="yes"/>
      <point x="1472.0" y="8.95005853743"/>
      <point x="1463.04994146" y="1.09606605401e-15"/>
      <point x="1389.2383728" y="1.01353761839e-14" type="curve" smooth="yes"/>
      <point x="1144.7616272" y="-1.01353761839e-14" type="line" smooth="yes"/>
      <point x="1072.01053733" y="-1.22593724977e-15"/>
      <point x="1055.90064957" y="7.93780712285"/>
      <point x="1011.57391896" y="65.6254317101" type="curve" smooth="yes"/>
      <point x="498" y="734" type="line"/>
      <point x="498.0" y="82.7616271973" type="line" smooth="yes"/>
      <point x="498.0" y="8.95005853743"/>
      <point x="489.049941463" y="1.09606605401e-15"/>
      <point x="415.238372803" y="1.01353761839e-14" type="curve" smooth="yes"/>
      <point x="216.761627197" y="-1.01353761839e-14" type="line" smooth="yes"/>
      <point x="142.950058537" y="-1.09606605401e-15"/>
      <point x="134.0" y="8.95005853743"/>
      <point x="134.0" y="82.7616271973" type="curve" smooth="yes"/>
      <point x="134.0" y="1325.2383728" type="line" smooth="yes"/>
      <point x="134.0" y="1399.04994146"/>
      <point x="142.950058537" y="1408.0"/>
      <point x="216.761627197" y="1408.0" type="curve" smooth="yes"/>
    </contour>
  </outline>
</glyph>
<glyph name="O" format="1">
  <advance width="1634"/>
  <unicode hex="004F"/>
  <outline>
    <contour>
      <point x="818" y="1439" type="curve" smooth="yes"/>
      <point x="1271.76" y="1439"/>
      <point x="1570" y="1152.63"/>
      <point x="1570" y="702" type="curve" smooth="yes"/>
      <point x="1570" y="253.026"/>
      <point x="1265.13" y="-32"/>
      <point x="818" y="-32" type="curve" smooth="yes"/>
      <point x="363.692" y="-32"/>
      <point x="64" y="253.712"/>
      <point x="64" y="702" type="curve" smooth="yes"/>
      <point x="64" y="1137.21"/>
      <point x="380.263" y="1439"/>
    </contour>
    <contour>
      <point x="818" y="340" type="curve" smooth="yes"/>
      <point x="1015.46" y="340"/>
      <point x="1112" y="508.65"/>
      <point x="1112" y="704" type="curve" smooth="yes"/>
      <point x="1112" y="910.078"/>
      <point x="1013.21" y="1071.26"/>
      <point x="818" y="1080" type="curve"/>
      <point x="617.276" y="1074.98"/>
      <point x="522" y="907.536"/>
      <point x="522" y="704" type="curve" smooth="yes"/>
      <point x="522" y="504.648"/>
      <point x="621.256" y="340"/>
    </contour>
  </outline>
</glyph>
<glyph name="P" format="1">
  <advance width="1330"/>
  <unicode hex="0050"/>
  <outline>
    <contour>
      <point x="1322.16" y="959.734" type="curve" smooth="yes"/>
      <point x="1322.16" y="700.569"/>
      <point x="1150.52" y="518.615"/>
      <point x="782.291" y="518.615" type="curve" smooth="yes"/>
      <point x="719.318" y="518.615"/>
      <point x="650.596" y="524.226"/>
      <point x="576" y="536" type="curve"/>
      <point x="576.0" y="82.7616271973" type="line" smooth="yes"/>
      <point x="576.0" y="8.95005853743"/>
      <point x="567.049941463" y="1.09606605401e-15"/>
      <point x="493.238372803" y="1.01353761839e-14" type="curve" smooth="yes"/>
      <point x="216.761627197" y="-1.01353761839e-14" type="line" smooth="yes"/>
      <point x="142.950058537" y="-1.09606605401e-15"/>
      <point x="134.0" y="8.95005853743"/>
      <point x="134.0" y="82.7616271973" type="curve" smooth="yes"/>
      <point x="134.0" y="1296.9760068" type="line" smooth="yes"/>
      <point x="134.0" y="1371.13811268"/>
      <point x="142.551040213" y="1380.27464357"/>
      <point x="216.550800683" y="1385.17907004" type="curve" smooth="yes"/>
      <point x="406.75628996" y="1397.78517621"/>
      <point x="598.135602539" y="1414.13"/>
      <point x="795.434" y="1414.13" type="curve" smooth="yes"/>
      <point x="1181.94" y="1414.13"/>
      <point x="1322.16" y="1233.84"/>
    </contour>
    <contour>
      <point x="712.3" y="796.025" type="curve" smooth="yes"/>
      <point x="841.353" y="796.025"/>
      <point x="941.405" y="838.726"/>
      <point x="941.405" y="959.863" type="curve" smooth="yes"/>
      <point x="941.405" y="1040.35"/>
      <point x="880.367" y="1119"/>
      <point x="749" y="1119" type="curve" smooth="yes"/>
      <point x="576" y="1119" type="line"/>
      <point x="576" y="814" type="line"/>
      <point x="622.847" y="802.705"/>
      <point x="669.356" y="796.025"/>
    </contour>
  </outline>
</glyph>
<glyph name="Q" format="1">
  <advance width="1634"/>
  <unicode hex="0051"/>
  <outline>
    <contour>
      <point x="1308" y="124" type="curve"/>
      <point x="1538.59675796" y="-26.503990885" type="line" smooth="yes"/>
      <point x="1566.43815122" y="-44.6752819037"/>
      <point x="1570.0" y="-51.253361136"/>
      <point x="1570.0" y="-84.5" type="curve" smooth="yes"/>
      <point x="1570.0" y="-86.5" type="line" smooth="yes"/>
      <point x="1570.0" y="-119.425355573"/>
      <point x="1566.39803393" y="-126.820143978"/>
      <point x="1540.47339311" y="-147.117730977" type="curve" smooth="yes"/>
      <point x="1377.16453418" y="-274.979705794" type="line" smooth="yes"/>
      <point x="1318.62184422" y="-320.815455301"/>
      <point x="1304.9786393" y="-321.370872813"/>
      <point x="1242.90388656" y="-280.445482731" type="curve" smooth="yes"/>
      <point x="860" y="-28" type="line"/>
      <point x="846.667" y="-30.6667"/>
      <point x="832" y="-32"/>
      <point x="816" y="-32" type="curve" smooth="yes"/>
      <point x="366.048" y="-32"/>
      <point x="62" y="257.925"/>
      <point x="62" y="706" type="curve" smooth="yes"/>
      <point x="62" y="1133.88"/>
      <point x="384.585" y="1439"/>
      <point x="816" y="1439" type="curve" smooth="yes"/>
      <point x="1269.44" y="1439"/>
      <point x="1570" y="1153.36"/>
      <point x="1570" y="706" type="curve" smooth="yes"/>
      <point x="1570" y="438.54"/>
      <point x="1457.6" y="248.282"/>
    </contour>
    <contour>
      <point x="816" y="338" type="curve" smooth="yes"/>
      <point x="1013.91" y="338"/>
      <point x="1110" y="510.12"/>
      <point x="1110" y="706" type="curve" smooth="yes"/>
      <point x="1110" y="906.179"/>
      <point x="1013.69" y="1075"/>
      <point x="816" y="1075" type="curve" smooth="yes"/>
      <point x="616.593" y="1075"/>
      <point x="522" y="903.204"/>
      <point x="522" y="706" type="curve" smooth="yes"/>
      <point x="522" y="509.61"/>
      <point x="622.253" y="338"/>
    </contour>
  </outline>
</glyph>
<glyph name="R" format="1">
  <advance width="1429"/>
  <unicode hex="0052"/>
  <outline>
    <contour>
      <point x="1354.64941993" y="332.913981096" type="curve" smooth="yes"/>
      <point x="1385.03787833" y="337.083184568"/>
      <point x="1389.0" y="333.627538201"/>
      <point x="1389.0" y="302.954412151" type="curve" smooth="yes"/>
      <point x="1389.0" y="84.0362544401" type="line" smooth="yes"/>
      <point x="1389.0" y="11.0306215253"/>
      <point x="1379.9445897" y="-0.278421805943"/>
      <point x="1308.70548609" y="-16.241271019" type="curve" smooth="yes"/>
      <point x="1261.82004973" y="-26.7470903397"/>
      <point x="1225.5848877" y="-32.0"/>
      <point x="1200" y="-32" type="curve" smooth="yes"/>
      <point x="952.666" y="-32"/>
      <point x="789.83" y="78.6914"/>
      <point x="734" y="306" type="curve" smooth="yes"/>
      <point x="678" y="534" type="line"/>
      <point x="582" y="534" type="line"/>
      <point x="582.0" y="82.7616271973" type="line" smooth="yes"/>
      <point x="582.0" y="8.95005853743"/>
      <point x="573.049941463" y="1.09606605401e-15"/>
      <point x="499.238372803" y="1.01353761839e-14" type="curve" smooth="yes"/>
      <point x="216.761627197" y="-1.01353761839e-14" type="line" smooth="yes"/>
      <point x="142.950058537" y="-1.09606605401e-15"/>
      <point x="134.0" y="8.95005853743"/>
      <point x="134.0" y="82.7616271973" type="curve" smooth="yes"/>
      <point x="134.0" y="1325.2383728" type="line" smooth="yes"/>
      <point x="134.0" y="1399.04994146"/>
      <point x="142.950058537" y="1408.0"/>
      <point x="216.761627197" y="1408.0" type="curve" smooth="yes"/>
      <point x="760" y="1408" type="line" smooth="yes"/>
      <point x="1060.14" y="1408"/>
      <point x="1346" y="1289.24"/>
      <point x="1346" y="994" type="curve" smooth="yes"/>
      <point x="1346" y="779.101"/>
      <point x="1225.44" y="676.262"/>
      <point x="1074" y="610" type="curve"/>
      <point x="1104.39" y="444.564"/>
      <point x="1121.82" y="330"/>
      <point x="1318" y="330" type="curve" smooth="yes"/>
      <point x="1330.37229492" y="330.0"/>
      <point x="1342.14672336" y="331.198649397"/>
    </contour>
    <contour>
      <point x="722" y="1104" type="curve" smooth="yes"/>
      <point x="582" y="1104" type="line"/>
      <point x="582" y="822" type="line"/>
      <point x="660" y="822" type="line" smooth="yes"/>
      <point x="792.481" y="822"/>
      <point x="936" y="836.334"/>
      <point x="936" y="974" type="curve" smooth="yes"/>
      <point x="936" y="1084.64"/>
      <point x="833.61" y="1104"/>
    </contour>
  </outline>
</glyph>
<glyph name="S" format="1">
  <advance width="1213"/>
  <unicode hex="0053"/>
  <outline>
    <contour>
      <point x="492" y="1030" type="curve" smooth="yes"/>
      <point x="492" y="988"/>
      <point x="528.667" y="956"/>
      <point x="602" y="934" type="curve" smooth="yes"/>
      <point x="778.5" y="882.507" type="line" smooth="yes"/>
      <point x="987.102" y="821.648"/>
      <point x="1152" y="683.957"/>
      <point x="1152" y="460" type="curve" smooth="yes"/>
      <point x="1152" y="116.202"/>
      <point x="934.727" y="-32"/>
      <point x="590" y="-32" type="curve" smooth="yes"/>
      <point x="427.840868164" y="-32.0"/>
      <point x="281.873245962" y="-7.48212415308"/>
      <point x="152.096555368" y="41.5536159802" type="curve" smooth="yes"/>
      <point x="85.1335706442" y="66.8553824413"/>
      <point x="79.4897481497" y="78.9040712172"/>
      <point x="102.911456196" y="146.531993382" type="curve" smooth="yes"/>
      <point x="122.953757888" y="204.402205757"/>
      <point x="138.596820187" y="258.083558582"/>
      <point x="155.87558782" y="310.172668885" type="curve" smooth="yes"/>
      <point x="178.876484017" y="379.511885923"/>
      <point x="192.245770874" y="386.622538812"/>
      <point x="262.5706029" y="366.941657404" type="curve" smooth="yes"/>
      <point x="356.636242724" y="340.616749849"/>
      <point x="455.62716748" y="312.0"/>
      <point x="562" y="312" type="curve" smooth="yes"/>
      <point x="644.701" y="312"/>
      <point x="736" y="316.346"/>
      <point x="736" y="398" type="curve" smooth="yes"/>
      <point x="736" y="455.653"/>
      <point x="677.157" y="480.611"/>
      <point x="635" y="494" type="curve" smooth="yes"/>
      <point x="402" y="568" type="line" smooth="yes"/>
      <point x="223.218" y="623.397"/>
      <point x="70" y="752.51"/>
      <point x="70" y="984" type="curve" smooth="yes"/>
      <point x="70" y="1288"/>
      <point x="252.667" y="1440"/>
      <point x="618" y="1440" type="curve" smooth="yes"/>
      <point x="762.366584351" y="1440.0"/>
      <point x="898.409478485" y="1415.02684826"/>
      <point x="1026.12752686" y="1365.08054477" type="curve" smooth="yes"/>
      <point x="1093.63194645" y="1338.68179948"/>
      <point x="1099.64468152" y="1325.44793224"/>
      <point x="1075.12495895" y="1257.23852217" type="curve" smooth="yes"/>
      <point x="1020.63651949" y="1105.6615906" type="line" smooth="yes"/>
      <point x="995.281454243" y="1035.12840907"/>
      <point x="985.000742523" y="1029.77912519"/>
      <point x="912.687861819" y="1049.49349339" type="curve" smooth="yes"/>
      <point x="809.247251352" y="1077.69408867"/>
      <point x="697.705694824" y="1099.0"/>
      <point x="625" y="1099" type="curve" smooth="yes"/>
      <point x="566.849" y="1099"/>
      <point x="492" y="1087.64"/>
    </contour>
  </outline>
</glyph>
<glyph name="T" format="1">
  <advance width="1182"/>
  <unicode hex="0054"/>
  <outline>
    <contour>
      <point x="142.761627197" y="1110.0" type="line" smooth="yes"/>
      <point x="68.9500585374" y="1110.0"/>
      <point x="60.0" y="1118.95005854"/>
      <point x="60.0" y="1192.7616272" type="curve" smooth="yes"/>
      <point x="60.0" y="1325.2383728" type="line" smooth="yes"/>
      <point x="60.0" y="1399.04994146"/>
      <point x="68.9500585374" y="1408.0"/>
      <point x="142.761627197" y="1408.0" type="curve" smooth="yes"/>
      <point x="1039.2383728" y="1408.0" type="line" smooth="yes"/>
      <point x="1113.04994146" y="1408.0"/>
      <point x="1122.0" y="1399.04994146"/>
      <point x="1122.0" y="1325.2383728" type="curve" smooth="yes"/>
      <point x="1122.0" y="1192.7616272" type="line" smooth="yes"/>
      <point x="1122.0" y="1118.95005854"/>
      <point x="1113.04994146" y="1110.0"/>
      <point x="1039.2383728" y="1110.0" type="curve" smooth="yes"/>
      <point x="830" y="1110" type="line"/>
      <point x="830.0" y="82.7616271973" type="line" smooth="yes"/>
      <point x="830.0" y="8.95005853743"/>
      <point x="821.049941463" y="1.09606605401e-15"/>
      <point x="747.238372803" y="1.01353761839e-14" type="curve" smooth="yes"/>
      <point x="434.761627197" y="-1.01353761839e-14" type="line" smooth="yes"/>
      <point x="360.950058537" y="-1.09606605401e-15"/>
      <point x="352.0" y="8.95005853743"/>
      <point x="352.0" y="82.7616271973" type="curve" smooth="yes"/>
      <point x="352" y="1110" type="line"/>
    </contour>
  </outline>
</glyph>
<glyph name="U" format="1">
  <advance width="1634"/>
  <unicode hex="0055"/>
  <outline>
    <contour>
      <point x="121" y="584" type="curve" smooth="yes"/>
      <point x="121.0" y="1325.2383728" type="line" smooth="yes"/>
      <point x="121.0" y="1399.04994146"/>
      <point x="129.950058537" y="1408.0"/>
      <point x="203.761627197" y="1408.0" type="curve" smooth="yes"/>
      <point x="500.238372803" y="1408.0" type="line" smooth="yes"/>
      <point x="574.049941463" y="1408.0"/>
      <point x="583.0" y="1399.04994146"/>
      <point x="583.0" y="1325.2383728" type="curve" smooth="yes"/>
      <point x="583" y="584" type="line" smooth="yes"/>
      <point x="583" y="420"/>
      <point x="661" y="338"/>
      <point x="817" y="338" type="curve" smooth="yes"/>
      <point x="973.238" y="338"/>
      <point x="1051" y="425.934"/>
      <point x="1051" y="584" type="curve" smooth="yes"/>
      <point x="1051.0" y="1325.2383728" type="line" smooth="yes"/>
      <point x="1051.0" y="1399.04994146"/>
      <point x="1059.95005854" y="1408.0"/>
      <point x="1133.7616272" y="1408.0" type="curve" smooth="yes"/>
      <point x="1430.2383728" y="1408.0" type="line" smooth="yes"/>
      <point x="1504.04994146" y="1408.0"/>
      <point x="1513.0" y="1399.04994146"/>
      <point x="1513.0" y="1325.2383728" type="curve" smooth="yes"/>
      <point x="1513" y="584" type="line" smooth="yes"/>
      <point x="1513" y="181.756"/>
      <point x="1214.47" y="-31.9999"/>
      <point x="817" y="-32" type="curve" smooth="yes"/>
      <point x="430.949" y="-32"/>
      <point x="121" y="202.594"/>
    </contour>
  </outline>
</glyph>
<glyph name="V" format="1">
  <advance width="1377"/>
  <unicode hex="0056"/>
  <outline>
    <contour>
      <point x="383.238372803" y="1408.0" type="line" smooth="yes"/>
      <point x="457.615711989" y="1408.0"/>
      <point x="468.020401811" y="1399.86278537"/>
      <point x="485.943463444" y="1327.67724356" type="curve" smooth="yes"/>
      <point x="684" y="530" type="line"/>
      <point x="882.056536556" y="1327.67724356" type="line" smooth="yes"/>
      <point x="899.979598189" y="1399.86278537"/>
      <point x="910.384288011" y="1408.0"/>
      <point x="984.761627197" y="1408.0" type="curve" smooth="yes"/>
      <point x="1301.2383728" y="1408.0" type="line" smooth="yes"/>
      <point x="1373.22721389" y="1408.0"/>
      <point x="1380.7867473" y="1397.71759135"/>
      <point x="1359.31427622" y="1329.00568389" type="curve" smooth="yes"/>
      <point x="968.685723784" y="78.9943161094" type="line" smooth="yes"/>
      <point x="946.503119903" y="8.00998369007"/>
      <point x="935.608012872" y="1.02772201754e-15"/>
      <point x="861.238372803" y="1.01353761839e-14" type="curve" smooth="yes"/>
      <point x="504.761627197" y="-1.01353761839e-14" type="line" smooth="yes"/>
      <point x="430.384284032" y="-1.02677866029e-15"/>
      <point x="419.613847115" y="8.03756761322"/>
      <point x="398.446182552" y="79.3391745607" type="curve" smooth="yes"/>
      <point x="27.5538174477" y="1328.66082544" type="line" smooth="yes"/>
      <point x="7.03429941762" y="1397.77920196"/>
      <point x="14.6616924311" y="1408.0"/>
      <point x="86.7616271973" y="1408.0" type="curve" smooth="yes"/>
    </contour>
  </outline>
</glyph>
<glyph name="W" format="1">
  <advance width="2028"/>
  <unicode hex="0057"/>
  <outline>
    <contour>
      <point x="420.238372803" y="1408.0" type="line" smooth="yes"/>
      <point x="494.502043187" y="1408.0"/>
      <point x="504.254182864" y="1399.59510289"/>
      <point x="515.214490721" y="1326.14468159" type="curve" smooth="yes"/>
      <point x="637" y="510" type="line"/>
      <point x="758.061600361" y="1088.9902626" type="line" smooth="yes"/>
      <point x="773.278564811" y="1161.76704909"/>
      <point x="783.41099398" y="1170.0"/>
      <point x="857.761627197" y="1170.0" type="curve" smooth="yes"/>
      <point x="1168.2383728" y="1170.0" type="line" smooth="yes"/>
      <point x="1242.59192478" y="1170.0"/>
      <point x="1252.74471099" y="1161.77493389"/>
      <point x="1268.17338593" y="1089.03975203" type="curve" smooth="yes"/>
      <point x="1391" y="510" type="line"/>
      <point x="1510.96393075" y="1326.11825617" type="line" smooth="yes"/>
      <point x="1521.76351122" y="1399.58812933"/>
      <point x="1531.5022628" y="1408.0"/>
      <point x="1605.7616272" y="1408.0" type="curve" smooth="yes"/>
      <point x="1902.2383728" y="1408.0" type="line" smooth="yes"/>
      <point x="1974.8136093" y="1408.0"/>
      <point x="1982.74248085" y="1398.06691574"/>
      <point x="1966.65827685" y="1327.29641812" type="curve" smooth="yes"/>
      <point x="1683.34172315" y="80.7035818788" type="line" smooth="yes"/>
      <point x="1666.86064868" y="8.18685417469"/>
      <point x="1656.6043705" y="1.02816807993e-15"/>
      <point x="1582.2383728" y="1.01353761839e-14" type="curve" smooth="yes"/>
      <point x="1269.7616272" y="-1.01353761839e-14" type="line" smooth="yes"/>
      <point x="1195.39406737" y="-1.0279767734e-15"/>
      <point x="1185.12197467" y="8.18128277383"/>
      <point x="1168.48353764" y="80.66366938" type="curve" smooth="yes"/>
      <point x="1013" y="758" type="line"/>
      <point x="857.516462364" y="80.66366938" type="line" smooth="yes"/>
      <point x="840.878025333" y="8.18128277383"/>
      <point x="830.605932632" y="1.0279767734e-15"/>
      <point x="756.238372803" y="1.01353761839e-14" type="curve" smooth="yes"/>
      <point x="445.761627197" y="-1.01353761839e-14" type="line" smooth="yes"/>
      <point x="371.395629504" y="-1.02816807993e-15"/>
      <point x="361.139351324" y="8.18685417469"/>
      <point x="344.658276846" y="80.7035818788" type="curve" smooth="yes"/>
      <point x="61.3417231543" y="1327.29641812" type="line" smooth="yes"/>
      <point x="45.2575191489" y="1398.06691574"/>
      <point x="53.1863907016" y="1408.0"/>
      <point x="125.761627197" y="1408.0" type="curve" smooth="yes"/>
    </contour>
  </outline>
</glyph>
<glyph name="X" format="1">
  <advance width="1296"/>
  <unicode hex="0058"/>
  <outline>
    <contour>
      <point x="51.9787573253" y="1334.99216882" type="line" smooth="yes"/>
      <point x="18.8648791967" y="1397.01498817"/>
      <point x="25.4526018513" y="1408.0"/>
      <point x="95.7616271973" y="1408.0" type="curve" smooth="yes"/>
      <point x="394.238372803" y="1408.0" type="line" smooth="yes"/>
      <point x="468.341344306" y="1408.0"/>
      <point x="480.659205957" y="1400.15254626"/>
      <point x="511.975618614" y="1332.99204683" type="curve" smooth="yes"/>
      <point x="643" y="1052" type="line"/>
      <point x="774.024381386" y="1332.99204683" type="line" smooth="yes"/>
      <point x="805.340794043" y="1400.15254626"/>
      <point x="817.658655694" y="1408.0"/>
      <point x="891.761627197" y="1408.0" type="curve" smooth="yes"/>
      <point x="1200.2383728" y="1408.0" type="line" smooth="yes"/>
      <point x="1270.50312353" y="1408.0"/>
      <point x="1277.06597172" y="1397.00185335"/>
      <point x="1243.70139306" y="1335.16383845" type="curve" smooth="yes"/>
      <point x="901" y="700" type="line"/>
      <point x="1254.40561675" y="72.1220006991" type="line" smooth="yes"/>
      <point x="1288.78062765" y="11.0496463134"/>
      <point x="1282.32028091" y="1.55281773939e-15"/>
      <point x="1212.2383728" y="1.01353761839e-14" type="curve" smooth="yes"/>
      <point x="903.761627197" y="-1.01353761839e-14" type="line" smooth="yes"/>
      <point x="829.788571119" y="-1.07628954902e-15"/>
      <point x="817.016006515" y="7.83369505567"/>
      <point x="783.482890663" y="73.7695970119" type="curve" smooth="yes"/>
      <point x="643" y="350" type="line"/>
      <point x="502.517109337" y="73.7695970119" type="line" smooth="yes"/>
      <point x="468.983993485" y="7.83369505567"/>
      <point x="456.211428881" y="1.07628954902e-15"/>
      <point x="382.238372803" y="1.01353761839e-14" type="curve" smooth="yes"/>
      <point x="83.7616271973" y="-1.01353761839e-14" type="line" smooth="yes"/>
      <point x="13.6348749989" y="-1.5473259225e-15"/>
      <point x="7.14942093075" y="11.0374221834"/>
      <point x="41.2802625743" y="72.2979071847" type="curve" smooth="yes"/>
      <point x="391" y="700" type="line"/>
    </contour>
  </outline>
</glyph>
<glyph name="Y" format="1">
  <advance width="1253"/>
  <unicode hex="0059"/>
  <outline>
    <contour>
      <point x="24.7108113466" y="1331.14732924" type="line" smooth="yes"/>
      <point x="-1.76420080016" y="1397.400069"/>
      <point x="5.41492584822" y="1408.0"/>
      <point x="76.7616271973" y="1408.0" type="curve" smooth="yes"/>
      <point x="339.238372803" y="1408.0" type="line" smooth="yes"/>
      <point x="413.607524074" y="1408.0"/>
      <point x="424.509037305" y="1399.99135567"/>
      <point x="446.742639944" y="1329.0234927" type="curve" smooth="yes"/>
      <point x="620" y="776" type="line"/>
      <point x="791.485255309" y="1328.95245589" type="line" smooth="yes"/>
      <point x="813.514634771" y="1399.98596518"/>
      <point x="824.390577718" y="1408.0"/>
      <point x="898.761627197" y="1408.0" type="curve" smooth="yes"/>
      <point x="1183.2383728" y="1408.0" type="line" smooth="yes"/>
      <point x="1254.4356672" y="1408.0"/>
      <point x="1261.52833995" y="1397.33519576"/>
      <point x="1233.99799278" y="1331.67596401" type="curve" smooth="yes"/>
      <point x="840" y="392" type="line"/>
      <point x="840.0" y="82.7616271973" type="line" smooth="yes"/>
      <point x="840.0" y="8.95005853743"/>
      <point x="831.049941463" y="1.09606605401e-15"/>
      <point x="757.238372803" y="1.01353761839e-14" type="curve" smooth="yes"/>
      <point x="482.761627197" y="-1.01353761839e-14" type="line" smooth="yes"/>
      <point x="408.950058537" y="-1.09606605401e-15"/>
      <point x="400.0" y="8.95005853743"/>
      <point x="400.0" y="82.7616271973" type="curve" smooth="yes"/>
      <point x="400" y="392" type="line"/>
    </contour>
  </outline>
</glyph>
<glyph name="Z" format="1">
  <advance width="1107"/>
  <unicode hex="005A"/>
  <outline>
    <contour>
      <point x="555" y="1110" type="line"/>
      <point x="175.761627197" y="1110.0" type="line" smooth="yes"/>
      <point x="101.950058537" y="1110.0"/>
      <point x="93.0" y="1118.95005854"/>
      <point x="93.0" y="1192.7616272" type="curve" smooth="yes"/>
      <point x="93.0" y="1325.2383728" type="line" smooth="yes"/>
      <point x="93.0" y="1399.04994146"/>
      <point x="101.950058537" y="1408.0"/>
      <point x="175.761627197" y="1408.0" type="curve" smooth="yes"/>
      <point x="930.238372803" y="1408.0" type="line" smooth="yes"/>
      <point x="1004.04994146" y="1408.0"/>
      <point x="1013.0" y="1399.04994146"/>
      <point x="1013.0" y="1325.2383728" type="curve" smooth="yes"/>
      <point x="1013.0" y="1192.7616272" type="line" smooth="yes"/>
      <point x="1013.0" y="1126.68805143"/>
      <point x="1004.65548319" y="1095.54800706"/>
      <point x="971.616750919" y="1038.32773457" type="curve" smooth="yes"/>
      <point x="543" y="296" type="line"/>
      <point x="951.238372803" y="296.0" type="line" smooth="yes"/>
      <point x="1025.04994146" y="296.0"/>
      <point x="1034.0" y="287.049941463"/>
      <point x="1034.0" y="213.238372803" type="curve" smooth="yes"/>
      <point x="1034.0" y="82.7616271973" type="line" smooth="yes"/>
      <point x="1034.0" y="8.95005853743"/>
      <point x="1025.04994146" y="1.09606605401e-15"/>
      <point x="951.238372803" y="1.01353761839e-14" type="curve" smooth="yes"/>
      <point x="155.761627197" y="-1.01353761839e-14" type="line" smooth="yes"/>
      <point x="81.9500585374" y="-1.09606605401e-15"/>
      <point x="73.0" y="8.95005853743"/>
      <point x="73.0" y="82.7616271973" type="curve" smooth="yes"/>
      <point x="73.0" y="213.238372803" type="line" smooth="yes"/>
      <point x="73.0" y="279.60067712"/>
      <point x="81.3556616943" y="310.111013733"/>
      <point x="115.168092134" y="367.213334019" type="curve" smooth="yes"/>
    </contour>
  </outline>
</glyph>
<glyph name="bracketleft" format="1">
  <advance width="915"/>
  <unicode hex="005B"/>
  <outline>
    <contour>
      <point x="762.238372803" y="1408.0" type="line" smooth="yes"/>
      <point x="836.049941463" y="1408.0"/>
      <point x="845.0" y="1399.04994146"/>
      <point x="845.0" y="1325.2383728" type="curve" smooth="yes"/>
      <point x="845.0" y="1186.7616272" type="line" smooth="yes"/>
      <point x="845.0" y="1112.95005854"/>
      <point x="836.049941463" y="1104.0"/>
      <point x="762.238372803" y="1104.0" type="curve" smooth="yes"/>
      <point x="559" y="1104" type="line"/>
      <point x="559" y="302" type="line"/>
      <point x="762.238372803" y="302.0" type="line" smooth="yes"/>
      <point x="836.049941463" y="302.0"/>
      <point x="845.0" y="293.049941463"/>
      <point x="845.0" y="219.238372803" type="curve" smooth="yes"/>
      <point x="845.0" y="82.7616271973" type="line" smooth="yes"/>
      <point x="845.0" y="8.95005853743"/>
      <point x="836.049941463" y="1.09606605401e-15"/>
      <point x="762.238372803" y="1.01353761839e-14" type="curve" smooth="yes"/>
      <point x="201.761627197" y="-1.01353761839e-14" type="line" smooth="yes"/>
      <point x="127.950058537" y="-1.09606605401e-15"/>
      <point x="119.0" y="8.95005853743"/>
      <point x="119.0" y="82.7616271973" type="curve" smooth="yes"/>
      <point x="119.0" y="1325.2383728" type="line" smooth="yes"/>
      <point x="119.0" y="1399.04994146"/>
      <point x="127.950058537" y="1408.0"/>
      <point x="201.761627197" y="1408.0" type="curve" smooth="yes"/>
    </contour>
  </outline>
</glyph>
<glyph name="backslash" format="1">
  <advance width="656"/>
  <unicode hex="005C"/>
  <outline>
    <contour>
      <point x="479.761627197" y="-1.01353761839e-14" type="line" smooth="yes"/>
      <point x="405.387211495" y="-1.02713717109e-15"/>
      <point x="395.031265529" y="8.152876869"/>
      <point x="377.573320649" y="80.4493074286" type="curve" smooth="yes"/>
      <point x="76.4266793507" y="1327.55069257" type="line" smooth="yes"/>
      <point x="59.4131577816" y="1398.00668777"/>
      <point x="67.280545691" y="1408.0"/>
      <point x="139.761627197" y="1408.0" type="curve" smooth="yes"/>
      <point x="178.238372803" y="1408.0" type="line" smooth="yes"/>
      <point x="252.611356303" y="1408.0"/>
      <point x="262.947160277" y="1399.84047122"/>
      <point x="280.210513497" y="1327.49880058" type="curve" smooth="yes"/>
      <point x="577.789486503" y="80.5011994166" type="line" smooth="yes"/>
      <point x="594.61809415" y="9.98131975159"/>
      <point x="586.738410481" y="1.25668227589e-15"/>
      <point x="514.238372803" y="1.01353761839e-14" type="curve" smooth="yes"/>
    </contour>
  </outline>
</glyph>
<glyph name="bracketright" format="1">
  <advance width="915"/>
  <unicode hex="005D"/>
  <outline>
    <contour>
      <point x="356" y="302" type="line"/>
      <point x="356" y="1104" type="line"/>
      <point x="152.761627197" y="1104.0" type="line" smooth="yes"/>
      <point x="78.9500585374" y="1104.0"/>
      <point x="70.0" y="1112.95005854"/>
      <point x="70.0" y="1186.7616272" type="curve" smooth="yes"/>
      <point x="70.0" y="1325.2383728" type="line" smooth="yes"/>
      <point x="70.0" y="1399.04994146"/>
      <point x="78.9500585374" y="1408.0"/>
      <point x="152.761627197" y="1408.0" type="curve" smooth="yes"/>
      <point x="713.238372803" y="1408.0" type="line" smooth="yes"/>
      <point x="787.049941463" y="1408.0"/>
      <point x="796.0" y="1399.04994146"/>
      <point x="796.0" y="1325.2383728" type="curve" smooth="yes"/>
      <point x="796.0" y="82.7616271973" type="line" smooth="yes"/>
      <point x="796.0" y="8.95005853743"/>
      <point x="787.049941463" y="1.09606605401e-15"/>
      <point x="713.238372803" y="1.01353761839e-14" type="curve" smooth="yes"/>
      <point x="152.761627197" y="-1.01353761839e-14" type="line" smooth="yes"/>
      <point x="78.9500585374" y="-1.09606605401e-15"/>
      <point x="70.0" y="8.95005853743"/>
      <point x="70.0" y="82.7616271973" type="curve" smooth="yes"/>
      <point x="70.0" y="219.238372803" type="line" smooth="yes"/>
      <point x="70.0" y="293.049941463"/>
      <point x="78.9500585374" y="302.0"/>
      <point x="152.761627197" y="302.0" type="curve" smooth="yes"/>
    </contour>
  </outline>
</glyph>
<glyph name="asciicircum" format="1">
  <advance width="1204"/>
  <unicode hex="005E"/>
  <outline>
    <contour>
      <point x="701.238372803" y="1376.0" type="line" smooth="yes"/>
      <point x="775.584313612" y="1376.0"/>
      <point x="786.717103179" y="1368.03500611"/>
      <point x="810.720563246" y="1297.67057746" type="curve" smooth="yes"/>
      <point x="1107.27943675" y="428.329422544" type="line" smooth="yes"/>
      <point x="1130.45501206" y="360.39187894"/>
      <point x="1123.02010531" y="350.0"/>
      <point x="1051.2383728" y="350.0" type="curve" smooth="yes"/>
      <point x="912.761627197" y="350.0" type="line" smooth="yes"/>
      <point x="838.379749929" y="350.0"/>
      <point x="827.808274312" y="358.088049664"/>
      <point x="808.35367572" y="429.880683406" type="curve" smooth="yes"/>
      <point x="604" y="1184" type="line"/>
      <point x="403.28876655" y="429.976717581" type="line" smooth="yes"/>
      <point x="384.155598086" y="358.098057676"/>
      <point x="373.619955774" y="350.0"/>
      <point x="299.238372803" y="350.0" type="curve" smooth="yes"/>
      <point x="154.761627197" y="350.0" type="line" smooth="yes"/>
      <point x="82.9514396876" y="350.0"/>
      <point x="75.4995394318" y="360.377246985"/>
      <point x="98.4465299608" y="428.42236919" type="curve" smooth="yes"/>
      <point x="391.553470039" y="1297.57763081" type="line" smooth="yes"/>
      <point x="415.312024518" y="1368.02929814"/>
      <point x="426.411735873" y="1376.0"/>
      <point x="500.761627197" y="1376.0" type="curve" smooth="yes"/>
    </contour>
  </outline>
</glyph>
<glyph name="underscore" format="1">
  <advance width="844"/>
  <unicode hex="005F"/>
  <outline>
    <contour>
      <point x="679.238372803" y="142.0" type="line" smooth="yes"/>
      <point x="753.049941463" y="142.0"/>
      <point x="762.0" y="133.049941463"/>
      <point x="762.0" y="59.2383728027" type="curve" smooth="yes"/>
      <point x="762.0" y="50.7616271973" type="line" smooth="yes"/>
      <point x="762.0" y="-23.0499414626"/>
      <point x="753.049941463" y="-32.0"/>
      <point x="679.238372803" y="-32.0" type="curve" smooth="yes"/>
      <point x="164.761627197" y="-32.0" type="line" smooth="yes"/>
      <point x="90.9500585374" y="-32.0"/>
      <point x="82.0" y="-23.0499414626"/>
      <point x="82.0" y="50.7616271973" type="curve" smooth="yes"/>
      <point x="82.0" y="59.2383728027" type="line" smooth="yes"/>
      <point x="82.0" y="133.049941463"/>
      <point x="90.9500585374" y="142.0"/>
      <point x="164.761627197" y="142.0" type="curve" smooth="yes"/>
    </contour>
  </outline>
</glyph>
<glyph name="grave" format="1">
  <advance width="864"/>
  <unicode hex="0060"/>
  <outline>
    <contour>
      <point x="770.199033206" y="1417.46067676" type="line" smooth="yes"/>
      <point x="830.925283765" y="1374.95230136"/>
      <point x="833.708112956" y="1362.50622897"/>
      <point x="796.868443449" y="1298.1829965" type="curve" smooth="yes"/>
      <point x="753.131556551" y="1221.8170035" type="line" smooth="yes"/>
      <point x="716.233530707" y="1157.39187901"/>
      <point x="704.095695273" y="1153.17562976"/>
      <point x="635.204441074" y="1180.85334772" type="curve" smooth="yes"/>
      <point x="106.795558926" y="1393.14665228" type="line" smooth="yes"/>
      <point x="38.9272540769" y="1420.41339059"/>
      <point x="34.7535468594" y="1432.36441419"/>
      <point x="70.8917775616" y="1495.9538009" type="curve" smooth="yes"/>
      <point x="197.108222438" y="1718.0461991" type="line" smooth="yes"/>
      <point x="233.358994052" y="1781.83361453"/>
      <point x="245.695060203" y="1784.61345786"/>
      <point x="305.800966794" y="1742.53932324" type="curve" smooth="yes"/>
    </contour>
  </outline>
</glyph>
<glyph name="a" format="1">
  <advance width="1425"/>
  <unicode hex="0061"/>
  <outline>
    <contour>
      <point x="931.372396786" y="839.044629816" type="curve" smooth="yes"/>
      <point x="948.889825179" y="807.738603671"/>
      <point x="947.788773322" y="799.788773322"/>
      <point x="922.422185351" y="774.422185351" type="curve" smooth="yes"/>
      <point x="919.292893219" y="771.292893219" type="line" smooth="yes"/>
      <point x="895.649918657" y="747.649918657"/>
      <point x="890.0" y="749.990191591"/>
      <point x="890.0" y="783.426406871" type="curve" smooth="yes"/>
      <point x="890.0" y="973.238372803" type="line" smooth="yes"/>
      <point x="890.0" y="1046.73246404"/>
      <point x="899.245063119" y="1055.3549956"/>
      <point x="972.560938597" y="1050.23993452" type="curve" smooth="yes"/>
      <point x="1237.4390614" y="1031.76006548" type="line" smooth="yes"/>
      <point x="1311.32294776" y="1026.60537574"/>
      <point x="1320.0" y="1017.30185564"/>
      <point x="1320.0" y="943.238372803" type="curve" smooth="yes"/>
      <point x="1320.0" y="82.7616271973" type="line" smooth="yes"/>
      <point x="1320.0" y="8.68382541936"/>
      <point x="1311.34012123" y="-0.644456094277"/>
      <point x="1237.46659756" y="-6.14202064687" type="curve" smooth="yes"/>
      <point x="972.533402442" y="-25.8579793531" type="line" smooth="yes"/>
      <point x="899.26524565" y="-31.310493347"/>
      <point x="890.0" y="-22.7091337121"/>
      <point x="890.0" y="50.7616271973" type="curve" smooth="yes"/>
      <point x="890.0" y="209.86069078" type="line" smooth="yes"/>
      <point x="890.0" y="243.756018217"/>
      <point x="895.73304158" y="246.075857034"/>
      <point x="919.304578572" y="221.718602142" type="curve" smooth="yes"/>
      <point x="922.232517087" y="218.693065677" type="line" smooth="yes"/>
      <point x="947.732847655" y="192.34272409"/>
      <point x="948.410990681" y="184.566588054"/>
      <point x="927.856850084" y="154.199917753" type="curve" smooth="yes"/>
      <point x="856.363443496" y="48.5756180515"/>
      <point x="742.035736816" y="-32.0"/>
      <point x="552" y="-32" type="curve" smooth="yes"/>
      <point x="254.927" y="-32"/>
      <point x="52" y="221.332"/>
      <point x="52" y="519" type="curve" smooth="yes"/>
      <point x="52" y="816.184"/>
      <point x="261.6" y="1056"/>
      <point x="554" y="1056" type="curve" smooth="yes"/>
      <point x="743.005506348" y="1056.0"/>
      <point x="865.650488773" y="956.498614754"/>
    </contour>
    <contour>
      <point x="890" y="520" type="curve" smooth="yes"/>
      <point x="884.65" y="628.576"/>
      <point x="801.012" y="716"/>
      <point x="688" y="716" type="curve" smooth="yes"/>
      <point x="570.305" y="716"/>
      <point x="482" y="629.296"/>
      <point x="482" y="512" type="curve" smooth="yes"/>
      <point x="482" y="394.717"/>
      <point x="571.357" y="308"/>
      <point x="688" y="308" type="curve" smooth="yes"/>
      <point x="808.072" y="308"/>
      <point x="890" y="399.695"/>
    </contour>
  </outline>
</glyph>
<glyph name="b" format="1">
  <advance width="1472"/>
  <unicode hex="0062"/>
  <outline>
    <contour>
      <point x="518.908055446" y="169.415567447" type="curve" smooth="yes"/>
      <point x="497.639550563" y="203.479950755"/>
      <point x="498.209580715" y="212.725149549"/>
      <point x="523.501689581" y="243.918750483" type="curve" smooth="yes"/>
      <point x="526.629801958" y="247.776755749" type="line" smooth="yes"/>
      <point x="549.797478153" y="276.350223055"/>
      <point x="556.0" y="274.151631375"/>
      <point x="556.0" y="237.365978545" type="curve" smooth="yes"/>
      <point x="556.0" y="82.7616271973" type="line" smooth="yes"/>
      <point x="556.0" y="8.95005853743"/>
      <point x="547.049941463" y="1.09606605401e-15"/>
      <point x="473.238372803" y="1.01353761839e-14" type="curve" smooth="yes"/>
      <point x="204.761627197" y="-1.01353761839e-14" type="line" smooth="yes"/>
      <point x="130.950058537" y="-1.09606605401e-15"/>
      <point x="122.0" y="8.95005853743"/>
      <point x="122.0" y="82.7616271973" type="curve" smooth="yes"/>
      <point x="122.0" y="1267.2383728" type="line" smooth="yes"/>
      <point x="122.0" y="1341.49865637"/>
      <point x="130.410389057" y="1351.2402417"/>
      <point x="203.876173194" y="1362.07390572" type="curve" smooth="yes"/>
      <point x="474.123826806" y="1401.92609428" type="line" smooth="yes"/>
      <point x="546.414116909" y="1412.58641355"/>
      <point x="556.0" y="1404.31044989"/>
      <point x="556.0" y="1331.2383728" type="curve" smooth="yes"/>
      <point x="556.0" y="797.598206242" type="line" smooth="yes"/>
      <point x="556.0" y="762.763799433"/>
      <point x="550.104830549" y="760.484686396"/>
      <point x="526.672672794" y="786.260059927" type="curve" smooth="yes"/>
      <point x="524.009098328" y="789.189991839" type="line" smooth="yes"/>
      <point x="498.36545776" y="817.397996464"/>
      <point x="497.950690018" y="825.30975683"/>
      <point x="520.504305809" y="856.044464269" type="curve" smooth="yes"/>
      <point x="622.05952449" y="994.437791704"/>
      <point x="760.761125488" y="1057.07"/>
      <point x="897.553" y="1057.07" type="curve" smooth="yes"/>
      <point x="1146.95" y="1057.07"/>
      <point x="1390" y="848.871"/>
      <point x="1390" y="512" type="curve" smooth="yes"/>
      <point x="1390" y="215.023"/>
      <point x="1182" y="-32"/>
      <point x="890" y="-32" type="curve" smooth="yes"/>
      <point x="707.904927246" y="-32.0"/>
      <point x="590.42427615" y="54.8726802928"/>
    </contour>
    <contour>
      <point x="556" y="512" type="curve" smooth="yes"/>
      <point x="556" y="395.116"/>
      <point x="641.651" y="308"/>
      <point x="758" y="308" type="curve" smooth="yes"/>
      <point x="873.766" y="308"/>
      <point x="962" y="396.617"/>
      <point x="962" y="512" type="curve" smooth="yes"/>
      <point x="962" y="629.638"/>
      <point x="874.979" y="716"/>
      <point x="758" y="716" type="curve" smooth="yes"/>
      <point x="640.518" y="716"/>
      <point x="556" y="629.275"/>
    </contour>
  </outline>
</glyph>
<glyph name="c" format="1">
  <advance width="966"/>
  <unicode hex="0063"/>
  <outline>
    <contour>
      <point x="608" y="-32" type="curve" smooth="yes"/>
      <point x="278.626" y="-32"/>
      <point x="52" y="184.09"/>
      <point x="52" y="512" type="curve" smooth="yes"/>
      <point x="52" y="838.456"/>
      <point x="285.433" y="1056"/>
      <point x="608" y="1056" type="curve" smooth="yes"/>
      <point x="711.91892627" y="1056.0"/>
      <point x="783.517598492" y="1032.31525527"/>
      <point x="849.83752056" y="998.546429505" type="curve" smooth="yes"/>
      <point x="913.910286475" y="965.921812326"/>
      <point x="921.114519937" y="951.978735575"/>
      <point x="910.65342616" y="880.843297887" type="curve" smooth="yes"/>
      <point x="894.58796071" y="771.598132827" type="line" smooth="yes"/>
      <point x="883.71293557" y="697.647961875"/>
      <point x="875.040227718" y="691.580972627"/>
      <point x="801.843662109" y="706.718896484" type="curve" smooth="yes"/>
      <point x="759.03109375" y="715.573046875"/>
      <point x="719.083125" y="720.0"/>
      <point x="682" y="720" type="curve" smooth="yes"/>
      <point x="554.971" y="720"/>
      <point x="478" y="639.083"/>
      <point x="478" y="512" type="curve" smooth="yes"/>
      <point x="478" y="383.055"/>
      <point x="556.767" y="302"/>
      <point x="686" y="302" type="curve" smooth="yes"/>
      <point x="721.692507813" y="302.0"/>
      <point x="759.073897644" y="306.101157043"/>
      <point x="798.144169495" y="314.303688822" type="curve" smooth="yes"/>
      <point x="871.358294583" y="329.674485063"/>
      <point x="879.704833308" y="323.810441849"/>
      <point x="890.066946481" y="249.721332662" type="curve" smooth="yes"/>
      <point x="907.234763925" y="126.971437939" type="line" smooth="yes"/>
      <point x="917.17311834" y="55.9122038707"/>
      <point x="909.38431884" y="42.3197931162"/>
      <point x="843.052417647" y="14.9653689951" type="curve" smooth="yes"/>
      <point x="775.952690465" y="-12.7056967028"/>
      <point x="701.667352051" y="-32.0"/>
    </contour>
  </outline>
</glyph>
<glyph name="d" format="1">
  <advance width="1428"/>
  <unicode hex="0064"/>
  <outline>
    <contour>
      <point x="53" y="512" type="curve" smooth="yes"/>
      <point x="53" y="809.361"/>
      <point x="260.26" y="1056"/>
      <point x="553" y="1056" type="curve" smooth="yes"/>
      <point x="707.667" y="1056"/>
      <point x="819.667" y="982"/>
      <point x="889" y="834" type="curve"/>
      <point x="889.0" y="1267.2383728" type="line" smooth="yes"/>
      <point x="889.0" y="1341.49997946"/>
      <point x="897.408249744" y="1351.24566663"/>
      <point x="970.868088174" y="1362.12860566" type="curve" smooth="yes"/>
      <point x="1239.13191183" y="1401.87139434" type="line" smooth="yes"/>
      <point x="1311.41111045" y="1412.57942377"/>
      <point x="1321.0" y="1404.30645372"/>
      <point x="1321.0" y="1331.2383728" type="curve" smooth="yes"/>
      <point x="1321.0" y="82.7616271973" type="line" smooth="yes"/>
      <point x="1321.0" y="8.95005853743"/>
      <point x="1312.04994146" y="1.09606605401e-15"/>
      <point x="1238.2383728" y="1.01353761839e-14" type="curve" smooth="yes"/>
      <point x="971.761627197" y="-1.01353761839e-14" type="line" smooth="yes"/>
      <point x="897.950058537" y="-1.09606605401e-15"/>
      <point x="889.0" y="8.95005853743"/>
      <point x="889.0" y="82.7616271973" type="curve" smooth="yes"/>
      <point x="889" y="190" type="line"/>
      <point x="830.902" y="66.5427"/>
      <point x="730.121" y="-31.9999"/>
      <point x="551" y="-32" type="curve" smooth="yes"/>
      <point x="272.27" y="-32"/>
      <point x="53" y="229.066"/>
    </contour>
    <contour>
      <point x="889" y="512" type="curve" smooth="yes"/>
      <point x="889" y="626.231"/>
      <point x="800.849" y="716"/>
      <point x="687" y="716" type="curve" smooth="yes"/>
      <point x="569.362" y="716"/>
      <point x="483" y="628.979"/>
      <point x="483" y="512" type="curve" smooth="yes"/>
      <point x="483" y="395.123"/>
      <point x="570.473" y="308"/>
      <point x="687" y="308" type="curve" smooth="yes"/>
      <point x="802.218" y="308"/>
      <point x="889" y="397.267"/>
    </contour>
  </outline>
</glyph>
<glyph name="e" format="1">
  <advance width="1138"/>
  <unicode hex="0065"/>
  <outline>
    <contour>
      <point x="1092" y="538" type="curve" smooth="yes"/>
      <point x="1092.0" y="528.630041016"/>
      <point x="1091.66489727" y="519.596192589"/>
      <point x="1090.9934271" y="510.898328249" type="curve" smooth="yes"/>
      <point x="1089.31611853" y="489.171372642"/>
      <point x="1086.0682611" y="485.748307635"/>
      <point x="1064.45930626" y="482.932808633" type="curve" smooth="yes"/>
      <point x="474" y="406" type="line"/>
      <point x="506" y="310"/>
      <point x="580.667" y="262"/>
      <point x="698" y="262" type="curve" smooth="yes"/>
      <point x="768.82005957" y="262.0"/>
      <point x="843.862749151" y="275.818260193"/>
      <point x="923.127631862" y="303.454780579" type="curve" smooth="yes"/>
      <point x="992.609995786" y="327.680524709"/>
      <point x="1002.10688014" y="322.117196038"/>
      <point x="1014.95341954" y="249.662713772" type="curve" smooth="yes"/>
      <point x="1036.34457095" y="129.016619839" type="line" smooth="yes"/>
      <point x="1048.90572987" y="58.171683561"/>
      <point x="1041.06812015" y="44.8657655221"/>
      <point x="973.016428223" y="21.5043671131" type="curve" smooth="yes"/>
      <point x="869.111041405" y="-14.1652109623"/>
      <point x="755.439068115" y="-32.0"/>
      <point x="632" y="-32" type="curve" smooth="yes"/>
      <point x="297.035" y="-32"/>
      <point x="52" y="180.605"/>
      <point x="52" y="512" type="curve" smooth="yes"/>
      <point x="52" y="839.066"/>
      <point x="292.63" y="1056"/>
      <point x="618" y="1056" type="curve" smooth="yes"/>
      <point x="922.861" y="1056"/>
      <point x="1092" y="840.845"/>
    </contour>
    <contour>
      <point x="618" y="792" type="curve" smooth="yes"/>
      <point x="508.077" y="792"/>
      <point x="458.544" y="701.41"/>
      <point x="456" y="594" type="curve"/>
      <point x="774" y="664" type="line"/>
      <point x="750.667" y="749.333"/>
      <point x="698.667" y="792"/>
    </contour>
  </outline>
</glyph>
<glyph name="f" format="1">
  <advance width="890"/>
  <unicode hex="0066"/>
  <outline>
    <contour>
      <point x="554" y="1572" type="curve" smooth="yes"/>
      <point x="636.05996167" y="1572.0"/>
      <point x="721.762069241" y="1556.21999776"/>
      <point x="811.105377062" y="1524.65999329" type="curve" smooth="yes"/>
      <point x="878.875636165" y="1500.72054296"/>
      <point x="887.677109951" y="1487.58832617"/>
      <point x="884.062125364" y="1415.80506079" type="curve" smooth="yes"/>
      <point x="878.330602442" y="1301.99339135" type="line" smooth="yes"/>
      <point x="874.671628265" y="1229.33661841"/>
      <point x="865.798704565" y="1223.06391165"/>
      <point x="796.08194828" y="1243.84776688" type="curve" smooth="yes"/>
      <point x="751.016573906" y="1257.28258896"/>
      <point x="710.989257812" y="1264.0"/>
      <point x="676" y="1264" type="curve" smooth="yes"/>
      <point x="597.804" y="1264"/>
      <point x="549" y="1225.43"/>
      <point x="549" y="1148" type="curve" smooth="yes"/>
      <point x="549" y="1112"/>
      <point x="560.667" y="1071.33"/>
      <point x="584" y="1026" type="curve"/>
      <point x="787.238372803" y="1026.0" type="line" smooth="yes"/>
      <point x="861.049941463" y="1026.0"/>
      <point x="870.0" y="1017.04994146"/>
      <point x="870.0" y="943.238372803" type="curve" smooth="yes"/>
      <point x="870.0" y="854.761627197" type="line" smooth="yes"/>
      <point x="870.0" y="780.950058537"/>
      <point x="861.049941463" y="772.0"/>
      <point x="787.238372803" y="772.0" type="curve" smooth="yes"/>
      <point x="612" y="772" type="line"/>
      <point x="612.0" y="82.7616271973" type="line" smooth="yes"/>
      <point x="612.0" y="8.95005853743"/>
      <point x="603.049941463" y="1.09606605401e-15"/>
      <point x="529.238372803" y="1.01353761839e-14" type="curve" smooth="yes"/>
      <point x="262.761627197" y="-1.01353761839e-14" type="line" smooth="yes"/>
      <point x="188.950058537" y="-1.09606605401e-15"/>
      <point x="180.0" y="8.95005853743"/>
      <point x="180.0" y="82.7616271973" type="curve" smooth="yes"/>
      <point x="180" y="772" type="line"/>
      <point x="134.761627197" y="772.0" type="line" smooth="yes"/>
      <point x="60.9500585374" y="772.0"/>
      <point x="52.0" y="780.950058537"/>
      <point x="52.0" y="854.761627197" type="curve" smooth="yes"/>
      <point x="52.0" y="943.238372803" type="line" smooth="yes"/>
      <point x="52.0" y="1017.04994146"/>
      <point x="60.9500585374" y="1026.0"/>
      <point x="134.761627197" y="1026.0" type="curve" smooth="yes"/>
      <point x="180" y="1026" type="line"/>
      <point x="180" y="1341.19"/>
      <point x="244.448" y="1572"/>
    </contour>
  </outline>
</glyph>
<glyph name="g" format="1">
  <advance width="1423"/>
  <unicode hex="0067"/>
  <outline>
    <contour>
      <point x="50.0351" y="527.262" type="curve" smooth="yes"/>
      <point x="50.0351" y="808.515"/>
      <point x="268.236" y="1056"/>
      <point x="545" y="1056" type="curve" smooth="yes"/>
      <point x="724.101" y="1056"/>
      <point x="847.682" y="943.543"/>
      <point x="887" y="802" type="curve"/>
      <point x="887.0" y="973.238372803" type="line" smooth="yes"/>
      <point x="887.0" y="1046.71087076"/>
      <point x="896.263749059" y="1055.31379637"/>
      <point x="969.53550211" y="1049.8862591" type="curve" smooth="yes"/>
      <point x="1236.46449789" y="1030.1137409" type="line" smooth="yes"/>
      <point x="1310.33885401" y="1024.64156637"/>
      <point x="1319.0" y="1015.3151248"/>
      <point x="1319.0" y="941.238372803" type="curve" smooth="yes"/>
      <point x="1319" y="260" type="line" smooth="yes"/>
      <point x="1319" y="-186.585"/>
      <point x="1128.94" y="-470"/>
      <point x="683" y="-470" type="curve" smooth="yes"/>
      <point x="636.794164063" y="-470.0"/>
      <point x="592.462879761" y="-466.884648636"/>
      <point x="548.869898213" y="-461.772433692" type="curve" smooth="yes"/>
      <point x="476.417467795" y="-453.275827488"/>
      <point x="467.785369605" y="-442.489903152"/>
      <point x="475.372642048" y="-369.936610412" type="curve" smooth="yes"/>
      <point x="491.700685963" y="-213.799690476" type="line" smooth="yes"/>
      <point x="498.161052365" y="-152.022436759"/>
      <point x="505.988619048" y="-145.619106279"/>
      <point x="567.820899165" y="-151.529651642" type="curve" smooth="yes"/>
      <point x="598.998149872" y="-154.509883881"/>
      <point x="622.724365234" y="-156.0"/>
      <point x="639" y="-156" type="curve" smooth="yes"/>
      <point x="846.735" y="-156"/>
      <point x="888.774" y="-9.62201"/>
      <point x="917" y="170" type="curve"/>
      <point x="837.667" y="56.6667"/>
      <point x="715" y="0"/>
      <point x="549" y="0" type="curve" smooth="yes"/>
      <point x="254.449" y="0"/>
      <point x="50.0351" y="235.968"/>
    </contour>
    <contour>
      <point x="887" y="520" type="curve" smooth="yes"/>
      <point x="881.627" y="627.46"/>
      <point x="795.232" y="716"/>
      <point x="683" y="716" type="curve" smooth="yes"/>
      <point x="565.362" y="716"/>
      <point x="479" y="628.979"/>
      <point x="479" y="512" type="curve" smooth="yes"/>
      <point x="479" y="393.59"/>
      <point x="567.053" y="308"/>
      <point x="683" y="308" type="curve" smooth="yes"/>
      <point x="802.571" y="308"/>
      <point x="887" y="400.048"/>
    </contour>
  </outline>
</glyph>
<glyph name="h" format="1">
  <advance width="1413"/>
  <unicode hex="0068"/>
  <outline>
    <contour>
      <point x="539" y="498" type="curve" smooth="yes"/>
      <point x="539.0" y="82.7616271973" type="line" smooth="yes"/>
      <point x="539.0" y="8.95005853743"/>
      <point x="530.049941463" y="1.09606605401e-15"/>
      <point x="456.238372803" y="1.01353761839e-14" type="curve" smooth="yes"/>
      <point x="189.761627197" y="-1.01353761839e-14" type="line" smooth="yes"/>
      <point x="115.950058537" y="-1.09606605401e-15"/>
      <point x="107.0" y="8.95005853743"/>
      <point x="107.0" y="82.7616271973" type="curve" smooth="yes"/>
      <point x="107.0" y="1267.2383728" type="line" smooth="yes"/>
      <point x="107.0" y="1341.49997946"/>
      <point x="115.408249744" y="1351.24566663"/>
      <point x="188.868088174" y="1362.12860566" type="curve" smooth="yes"/>
      <point x="457.131911826" y="1401.87139434" type="line" smooth="yes"/>
      <point x="529.411110455" y="1412.57942377"/>
      <point x="539.0" y="1404.30645372"/>
      <point x="539.0" y="1331.2383728" type="curve" smooth="yes"/>
      <point x="539" y="798" type="line"/>
      <point x="596.932" y="937.259"/>
      <point x="698.511" y="1056"/>
      <point x="877" y="1056" type="curve" smooth="yes"/>
      <point x="1160.43" y="1056"/>
      <point x="1317" y="805.56"/>
      <point x="1317" y="520" type="curve" smooth="yes"/>
      <point x="1317.0" y="82.7616271973" type="line" smooth="yes"/>
      <point x="1317.0" y="8.95005853743"/>
      <point x="1308.04994146" y="1.09606605401e-15"/>
      <point x="1234.2383728" y="1.01353761839e-14" type="curve" smooth="yes"/>
      <point x="969.761627197" y="-1.01353761839e-14" type="line" smooth="yes"/>
      <point x="895.950058537" y="-1.09606605401e-15"/>
      <point x="887.0" y="8.95005853743"/>
      <point x="887.0" y="82.7616271973" type="curve" smooth="yes"/>
      <point x="887" y="512" type="line" smooth="yes"/>
      <point x="887" y="609.021"/>
      <point x="837.871" y="716"/>
      <point x="743" y="716" type="curve" smooth="yes"/>
      <point x="621.639" y="716"/>
      <point x="539" y="619.349"/>
    </contour>
  </outline>
</glyph>
<glyph name="i" format="1">
  <advance width="748"/>
  <unicode hex="0069"/>
  <outline>
    <contour>
      <point x="91" y="1366" type="curve" smooth="yes"/>
      <point x="91" y="1490.74"/>
      <point x="197.735" y="1572"/>
      <point x="323" y="1572" type="curve" smooth="yes"/>
      <point x="446.714" y="1572"/>
      <point x="553" y="1486.66"/>
      <point x="553" y="1366" type="curve" smooth="yes"/>
      <point x="553" y="1240.85"/>
      <point x="448.149" y="1158"/>
      <point x="323" y="1158" type="curve" smooth="yes"/>
      <point x="194.945" y="1158"/>
      <point x="91" y="1239.56"/>
    </contour>
    <contour>
      <point x="645.497" y="296.216" type="curve" smooth="yes"/>
      <point x="665.222560547" y="296.216"/>
      <point x="685.579226997" y="299.157636047"/>
      <point x="704.789598496" y="303.752451576" type="curve" smooth="yes"/>
      <point x="754.709193131" y="315.69242518"/>
      <point x="759.774309707" y="312.004365599"/>
      <point x="763.738519796" y="260.830017176" type="curve" smooth="yes"/>
      <point x="775.073073478" y="114.511233289" type="line" smooth="yes"/>
      <point x="780.558734576" y="43.6963354721"/>
      <point x="771.566222474" y="29.8336655095"/>
      <point x="704.666586943" y="5.97405536296" type="curve" smooth="yes"/>
      <point x="632.572701664" y="-19.7380727087"/>
      <point x="560.805495361" y="-32.6489"/>
      <point x="493.219" y="-32.6489" type="curve" smooth="yes"/>
      <point x="274.15" y="-32.6489"/>
      <point x="99" y="102.991"/>
      <point x="99" y="378" type="curve" smooth="yes"/>
      <point x="99.0" y="943.238372803" type="line" smooth="yes"/>
      <point x="99.0" y="1017.04994146"/>
      <point x="107.950058537" y="1026.0"/>
      <point x="181.761627197" y="1026.0" type="curve" smooth="yes"/>
      <point x="450.238372803" y="1026.0" type="line" smooth="yes"/>
      <point x="524.049941463" y="1026.0"/>
      <point x="533.0" y="1017.04994146"/>
      <point x="533.0" y="943.238372803" type="curve" smooth="yes"/>
      <point x="533" y="410" type="line" smooth="yes"/>
      <point x="533" y="322.604"/>
      <point x="586.418" y="296.216"/>
    </contour>
  </outline>
</glyph>
<glyph name="j" format="1">
  <advance width="646"/>
  <unicode hex="006A"/>
  <outline>
    <contour>
      <point x="85" y="-442" type="curve" smooth="yes"/>
      <point x="-13.1614322266" y="-442.0"/>
      <point x="-106.006710177" y="-419.91734314"/>
      <point x="-193.535785809" y="-375.752029419" type="curve" smooth="yes"/>
      <point x="-257.229912645" y="-343.613324953"/>
      <point x="-263.064465" y="-328.769937339"/>
      <point x="-238.303141241" y="-261.861679524" type="curve" smooth="yes"/>
      <point x="-197.017853588" y="-150.303561822" type="line" smooth="yes"/>
      <point x="-174.23797984" y="-88.7494348873"/>
      <point x="-166.016812122" y="-84.3420668981"/>
      <point x="-102.143117324" y="-99.441215992" type="curve" smooth="yes"/>
      <point x="-72.3653445065" y="-106.480405331"/>
      <point x="-47.984375" y="-110.0"/>
      <point x="-29" y="-110" type="curve" smooth="yes"/>
      <point x="61.6667" y="-110"/>
      <point x="107" y="-53.3333"/>
      <point x="107" y="60" type="curve" smooth="yes"/>
      <point x="107.0" y="943.238372803" type="line" smooth="yes"/>
      <point x="107.0" y="1017.04994146"/>
      <point x="115.950058537" y="1026.0"/>
      <point x="189.761627197" y="1026.0" type="curve" smooth="yes"/>
      <point x="456.238372803" y="1026.0" type="line" smooth="yes"/>
      <point x="530.049941463" y="1026.0"/>
      <point x="539.0" y="1017.04994146"/>
      <point x="539.0" y="943.238372803" type="curve" smooth="yes"/>
      <point x="539" y="60" type="line" smooth="yes"/>
      <point x="539" y="-241.019"/>
      <point x="384.23" y="-442"/>
    </contour>
    <contour>
      <point x="85" y="1366" type="curve" smooth="yes"/>
      <point x="85" y="1488.47"/>
      <point x="192.176" y="1572"/>
      <point x="315" y="1572" type="curve" smooth="yes"/>
      <point x="440.233" y="1572"/>
      <point x="547" y="1488.21"/>
      <point x="547" y="1366" type="curve" smooth="yes"/>
      <point x="547" y="1239.47"/>
      <point x="441.874" y="1158"/>
      <point x="315" y="1158" type="curve" smooth="yes"/>
      <point x="188.509" y="1158"/>
      <point x="85" y="1240.88"/>
    </contour>
  </outline>
</glyph>
<glyph name="k" format="1">
  <advance width="1314"/>
  <unicode hex="006B"/>
  <outline>
    <contour>
      <point x="661" y="378" type="curve"/>
      <point x="541" y="282" type="line"/>
      <point x="541.0" y="82.7616271973" type="line" smooth="yes"/>
      <point x="541.0" y="8.95005853743"/>
      <point x="532.049941463" y="1.09606605401e-15"/>
      <point x="458.238372803" y="1.01353761839e-14" type="curve" smooth="yes"/>
      <point x="189.761627197" y="-1.01353761839e-14" type="line" smooth="yes"/>
      <point x="115.950058537" y="-1.09606605401e-15"/>
      <point x="107.0" y="8.95005853743"/>
      <point x="107.0" y="82.7616271973" type="curve" smooth="yes"/>
      <point x="107.0" y="1267.2383728" type="line" smooth="yes"/>
      <point x="107.0" y="1341.49865637"/>
      <point x="115.410389057" y="1351.2402417"/>
      <point x="188.876173194" y="1362.07390572" type="curve" smooth="yes"/>
      <point x="459.123826806" y="1401.92609428" type="line" smooth="yes"/>
      <point x="531.414116909" y="1412.58641355"/>
      <point x="541.0" y="1404.31044989"/>
      <point x="541.0" y="1331.2383728" type="curve" smooth="yes"/>
      <point x="541" y="712" type="line"/>
      <point x="1002.9243301" y="1089.61874894" type="line" smooth="yes"/>
      <point x="1059.89974381" y="1136.19560806"/>
      <point x="1072.44328967" y="1134.61926824"/>
      <point x="1116.12251375" y="1075.3932017" type="curve" smooth="yes"/>
      <point x="1253.87748625" y="888.606798299" type="line" smooth="yes"/>
      <point x="1297.61984959" y="829.295119193"/>
      <point x="1295.56351792" y="816.816997335"/>
      <point x="1235.10251277" y="774.677508899" type="curve" smooth="yes"/>
      <point x="973" y="592" type="line"/>
      <point x="997.048" y="449.9"/>
      <point x="1021.14" y="314"/>
      <point x="1179" y="314" type="curve" smooth="yes"/>
      <point x="1190.53978516" y="314.0"/>
      <point x="1205.63627654" y="315.424106598"/>
      <point x="1224.29159849" y="318.272319794" type="curve" smooth="yes"/>
      <point x="1261.81123342" y="324.000654023"/>
      <point x="1266.27972419" y="319.69758668"/>
      <point x="1261.97013095" y="281.988645775" type="curve" smooth="yes"/>
      <point x="1233.21242317" y="30.3587027007" type="line" smooth="yes"/>
      <point x="1227.57288561" y="-18.9872509464"/>
      <point x="1220.66829553" y="-25.5032947861"/>
      <point x="1171.07872295" y="-28.2785096169" type="curve" smooth="yes"/>
      <point x="1150.57148838" y="-29.4261698723"/>
      <point x="1131.21191406" y="-30.0"/>
      <point x="1113" y="-30" type="curve" smooth="yes"/>
      <point x="807.009" y="-30"/>
      <point x="726.368" y="135.205"/>
    </contour>
  </outline>
</glyph>
<glyph name="l" format="1">
  <advance width="935"/>
  <unicode hex="006C"/>
  <outline>
    <contour>
      <point x="668.497" y="296.216" type="curve" smooth="yes"/>
      <point x="688.222560547" y="296.216"/>
      <point x="708.579467327" y="299.157636047"/>
      <point x="727.789966031" y="303.752451576" type="curve" smooth="yes"/>
      <point x="777.70936908" y="315.692300293"/>
      <point x="782.774309919" y="312.004362866"/>
      <point x="786.738503373" y="260.830229182" type="curve" smooth="yes"/>
      <point x="798.073081713" y="114.51112698" type="line" smooth="yes"/>
      <point x="803.558737341" y="43.6962997819"/>
      <point x="794.566198305" y="29.8336153702"/>
      <point x="727.666586943" y="5.97414830909" type="curve" smooth="yes"/>
      <point x="655.572701664" y="-19.7378348564"/>
      <point x="583.805495361" y="-32.6484"/>
      <point x="516.219" y="-32.6484" type="curve" smooth="yes"/>
      <point x="297.15" y="-32.6484"/>
      <point x="122" y="102.991"/>
      <point x="122" y="378" type="curve" smooth="yes"/>
      <point x="122.0" y="1267.2383728" type="line" smooth="yes"/>
      <point x="122.0" y="1341.49997946"/>
      <point x="130.408249744" y="1351.24566663"/>
      <point x="203.868088174" y="1362.12860566" type="curve" smooth="yes"/>
      <point x="472.131911826" y="1401.87139434" type="line" smooth="yes"/>
      <point x="544.422880619" y="1412.5811675"/>
      <point x="554.019286112" y="1404.31837155"/>
      <point x="554.164863472" y="1331.23853701" type="curve" smooth="yes"/>
      <point x="556" y="410" type="line" smooth="yes"/>
      <point x="556" y="322.604"/>
      <point x="609.418" y="296.216"/>
    </contour>
  </outline>
</glyph>
<glyph name="m" format="1">
  <advance width="2100"/>
  <unicode hex="006D"/>
  <outline>
    <contour>
      <point x="1240" y="786" type="curve"/>
      <point x="1292.78" y="943.084"/>
      <point x="1411.74" y="1056"/>
      <point x="1616" y="1056" type="curve" smooth="yes"/>
      <point x="1882.75" y="1056"/>
      <point x="2004" y="782.117"/>
      <point x="2004" y="512" type="curve" smooth="yes"/>
      <point x="2004.0" y="82.7616271973" type="line" smooth="yes"/>
      <point x="2004.0" y="8.95005853743"/>
      <point x="1995.04994146" y="1.09606605401e-15"/>
      <point x="1921.2383728" y="1.01353761839e-14" type="curve" smooth="yes"/>
      <point x="1654.7616272" y="-1.01353761839e-14" type="line" smooth="yes"/>
      <point x="1580.95005854" y="-1.09606605401e-15"/>
      <point x="1572.0" y="8.95005853743"/>
      <point x="1572.0" y="82.7616271973" type="curve" smooth="yes"/>
      <point x="1572" y="512" type="line" smooth="yes"/>
      <point x="1572" y="614.314"/>
      <point x="1532.32" y="712"/>
      <point x="1432" y="712" type="curve" smooth="yes"/>
      <point x="1326.15" y="712"/>
      <point x="1268" y="616.303"/>
      <point x="1268" y="512" type="curve" smooth="yes"/>
      <point x="1268.0" y="82.7616271973" type="line" smooth="yes"/>
      <point x="1268.0" y="8.95005853743"/>
      <point x="1259.04994146" y="1.09606605401e-15"/>
      <point x="1185.2383728" y="1.01353761839e-14" type="curve" smooth="yes"/>
      <point x="922.761627197" y="-1.01353761839e-14" type="line" smooth="yes"/>
      <point x="848.950058537" y="-1.09606605401e-15"/>
      <point x="840.0" y="8.95005853743"/>
      <point x="840.0" y="82.7616271973" type="curve" smooth="yes"/>
      <point x="840" y="512" type="line" smooth="yes"/>
      <point x="840" y="615.605"/>
      <point x="797.74" y="712"/>
      <point x="696" y="712" type="curve" smooth="yes"/>
      <point x="591.159" y="712"/>
      <point x="536.647" y="623.247"/>
      <point x="534" y="520" type="curve"/>
      <point x="534.0" y="82.7616271973" type="line" smooth="yes"/>
      <point x="534.0" y="8.95005853743"/>
      <point x="525.049941463" y="1.09606605401e-15"/>
      <point x="451.238372803" y="1.01353761839e-14" type="curve" smooth="yes"/>
      <point x="184.761627197" y="-1.01353761839e-14" type="line" smooth="yes"/>
      <point x="110.950058537" y="-1.09606605401e-15"/>
      <point x="102.0" y="8.95005853743"/>
      <point x="102.0" y="82.7616271973" type="curve" smooth="yes"/>
      <point x="102.0" y="907.238372803" type="line" smooth="yes"/>
      <point x="102.0" y="981.50876236"/>
      <point x="110.393842148" y="991.28239255"/>
      <point x="183.812341623" y="1002.49910775" type="curve" smooth="yes"/>
      <point x="452.187658377" y="1043.50089225" type="line" smooth="yes"/>
      <point x="524.390729282" y="1054.53191697"/>
      <point x="534.0" y="1046.27923092"/>
      <point x="534.0" y="973.238372803" type="curve" smooth="yes"/>
      <point x="534" y="802" type="line"/>
      <point x="610" y="971.333"/>
      <point x="726.667" y="1056"/>
      <point x="884" y="1056" type="curve" smooth="yes"/>
      <point x="1075.13" y="1056"/>
      <point x="1186.39" y="929.686"/>
    </contour>
  </outline>
</glyph>
<glyph name="n" format="1">
  <advance width="1444"/>
  <unicode hex="006E"/>
  <outline>
    <contour>
      <point x="554" y="520" type="curve"/>
      <point x="554.0" y="82.7616271973" type="line" smooth="yes"/>
      <point x="554.0" y="8.95005853743"/>
      <point x="545.049941463" y="1.09606605401e-15"/>
      <point x="471.238372803" y="1.01353761839e-14" type="curve" smooth="yes"/>
      <point x="204.761627197" y="-1.01353761839e-14" type="line" smooth="yes"/>
      <point x="130.950058537" y="-1.09606605401e-15"/>
      <point x="122.0" y="8.95005853743"/>
      <point x="122.0" y="82.7616271973" type="curve" smooth="yes"/>
      <point x="122.0" y="907.238372803" type="line" smooth="yes"/>
      <point x="122.0" y="981.406174539"/>
      <point x="130.545516173" y="990.909939222"/>
      <point x="204.296391397" y="998.763041676" type="curve" smooth="yes"/>
      <point x="471.703608603" y="1027.23695832" type="line" smooth="yes"/>
      <point x="544.594585183" y="1034.9984975"/>
      <point x="554.0" y="1026.54141474"/>
      <point x="554.0" y="953.238372803" type="curve" smooth="yes"/>
      <point x="554" y="802" type="line"/>
      <point x="622.28" y="938.509"/>
      <point x="737.163" y="1056"/>
      <point x="932" y="1056" type="curve" smooth="yes"/>
      <point x="1193.64" y="1056"/>
      <point x="1330" y="856"/>
      <point x="1330" y="542" type="curve" smooth="yes"/>
      <point x="1330.0" y="82.7616271973" type="line" smooth="yes"/>
      <point x="1330.0" y="8.95005853743"/>
      <point x="1321.04994146" y="1.09606605401e-15"/>
      <point x="1247.2383728" y="1.01353761839e-14" type="curve" smooth="yes"/>
      <point x="982.761627197" y="-1.01353761839e-14" type="line" smooth="yes"/>
      <point x="908.950058537" y="-1.09606605401e-15"/>
      <point x="900.0" y="8.95005853743"/>
      <point x="900.0" y="82.7616271973" type="curve" smooth="yes"/>
      <point x="900" y="542" type="line" smooth="yes"/>
      <point x="900" y="624.753"/>
      <point x="850.871" y="716"/>
      <point x="756" y="716" type="curve" smooth="yes"/>
      <point x="642.393" y="716"/>
      <point x="556.834" y="630.507"/>
    </contour>
  </outline>
</glyph>
<glyph name="o" format="1">
  <advance width="1344"/>
  <unicode hex="006F"/>
  <outline>
    <contour>
      <point x="674" y="310" type="curve" smooth="yes"/>
      <point x="783.299" y="310"/>
      <point x="858" y="407.238"/>
      <point x="858" y="514" type="curve" smooth="yes"/>
      <point x="858" y="623.652"/>
      <point x="782.775" y="718"/>
      <point x="674" y="718" type="curve" smooth="yes"/>
      <point x="559.654" y="718"/>
      <point x="492" y="628.6"/>
      <point x="492" y="514" type="curve" smooth="yes"/>
      <point x="492" y="402.094"/>
      <point x="563.222" y="310"/>
    </contour>
    <contour>
      <point x="672" y="-32" type="curve" smooth="yes"/>
      <point x="328.939" y="-32"/>
      <point x="82" y="174.043"/>
      <point x="82" y="514" type="curve" smooth="yes"/>
      <point x="84.54" y="851.875"/>
      <point x="333.611" y="1056"/>
      <point x="674" y="1056" type="curve" smooth="yes"/>
      <point x="1012.38" y="1056"/>
      <point x="1262" y="849.065"/>
      <point x="1262" y="514" type="curve" smooth="yes"/>
      <point x="1262" y="171.545"/>
      <point x="1009.03" y="-32"/>
    </contour>
  </outline>
</glyph>
<glyph name="p" format="1">
  <advance width="1423"/>
  <unicode hex="0070"/>
  <outline>
    <contour>
      <point x="870" y="-32" type="curve" smooth="yes"/>
      <point x="718.667" y="-32"/>
      <point x="606.667" y="42"/>
      <point x="534" y="190" type="curve"/>
      <point x="534.0" y="-183.238372803" type="line" smooth="yes"/>
      <point x="534.0" y="-257.56708788"/>
      <point x="525.715019714" y="-267.572611999"/>
      <point x="452.690193857" y="-281.433805796" type="curve" smooth="yes"/>
      <point x="183.309806143" y="-332.566194204" type="line" smooth="yes"/>
      <point x="111.771553924" y="-346.145214302"/>
      <point x="102.0" y="-338.053970839"/>
      <point x="102.0" y="-265.238372803" type="curve" smooth="yes"/>
      <point x="102.0" y="907.238372803" type="line" smooth="yes"/>
      <point x="102.0" y="981.50876236"/>
      <point x="110.393842148" y="991.28239255"/>
      <point x="183.812341623" y="1002.49910775" type="curve" smooth="yes"/>
      <point x="452.187658377" y="1043.50089225" type="line" smooth="yes"/>
      <point x="524.390729282" y="1054.53191697"/>
      <point x="534.0" y="1046.27923092"/>
      <point x="534.0" y="973.238372803" type="curve" smooth="yes"/>
      <point x="534" y="834" type="line"/>
      <point x="604.667" y="982"/>
      <point x="716" y="1056"/>
      <point x="868" y="1056" type="curve" smooth="yes"/>
      <point x="1148.87" y="1056"/>
      <point x="1370" y="798.705"/>
      <point x="1370" y="512" type="curve" smooth="yes"/>
      <point x="1370" y="227.82"/>
      <point x="1150.52" y="-32"/>
    </contour>
    <contour>
      <point x="534" y="512" type="curve" smooth="yes"/>
      <point x="534" y="396.232"/>
      <point x="620.801" y="308"/>
      <point x="736" y="308" type="curve" smooth="yes"/>
      <point x="854.185" y="308"/>
      <point x="942" y="394.373"/>
      <point x="942" y="512" type="curve" smooth="yes"/>
      <point x="942" y="631.375"/>
      <point x="853.278" y="716"/>
      <point x="736" y="716" type="curve" smooth="yes"/>
      <point x="620.706" y="716"/>
      <point x="534" y="623.987"/>
    </contour>
  </outline>
</glyph>
<glyph name="q" format="1">
  <advance width="1425"/>
  <unicode hex="0071"/>
  <outline>
    <contour>
      <point x="891" y="834" type="curve"/>
      <point x="891.0" y="973.238372803" type="line" smooth="yes"/>
      <point x="891.0" y="1046.27923092"/>
      <point x="900.609270718" y="1054.53191697"/>
      <point x="972.812341623" y="1043.50089225" type="curve" smooth="yes"/>
      <point x="1241.18765838" y="1002.49910775" type="line" smooth="yes"/>
      <point x="1314.60615785" y="991.28239255"/>
      <point x="1323.0" y="981.50876236"/>
      <point x="1323.0" y="907.238372803" type="curve" smooth="yes"/>
      <point x="1323.0" y="-183.238372803" type="line" smooth="yes"/>
      <point x="1323.0" y="-257.56708788"/>
      <point x="1314.71501971" y="-267.572611999"/>
      <point x="1241.69019386" y="-281.433805796" type="curve" smooth="yes"/>
      <point x="972.309806143" y="-332.566194204" type="line" smooth="yes"/>
      <point x="900.771553924" y="-346.145214302"/>
      <point x="891.0" y="-338.053970839"/>
      <point x="891.0" y="-265.238372803" type="curve" smooth="yes"/>
      <point x="891" y="190" type="line"/>
      <point x="817.667" y="42"/>
      <point x="705" y="-32"/>
      <point x="553" y="-32" type="curve" smooth="yes"/>
      <point x="250.775" y="-32"/>
      <point x="53" y="234.507"/>
      <point x="53" y="512" type="curve" smooth="yes"/>
      <point x="53" y="813.486"/>
      <point x="256.701" y="1056"/>
      <point x="555" y="1056" type="curve" smooth="yes"/>
      <point x="707" y="1056"/>
      <point x="819" y="982"/>
    </contour>
    <contour>
      <point x="891" y="520" type="curve" smooth="yes"/>
      <point x="891" y="626.4"/>
      <point x="800.276" y="716"/>
      <point x="689" y="716" type="curve" smooth="yes"/>
      <point x="571.73" y="716"/>
      <point x="483" y="628.562"/>
      <point x="483" y="512" type="curve" smooth="yes"/>
      <point x="483" y="395.241"/>
      <point x="572.742" y="308"/>
      <point x="689" y="308" type="curve" smooth="yes"/>
      <point x="807.728" y="308"/>
      <point x="891" y="400.844"/>
    </contour>
  </outline>
</glyph>
<glyph name="r" format="1">
  <advance width="914"/>
  <unicode hex="0072"/>
  <outline>
    <contour>
      <point x="534" y="532" type="curve" smooth="yes"/>
      <point x="534.0" y="82.7616271973" type="line" smooth="yes"/>
      <point x="534.0" y="8.95005853743"/>
      <point x="525.049941463" y="1.09606605401e-15"/>
      <point x="451.238372803" y="1.01353761839e-14" type="curve" smooth="yes"/>
      <point x="184.761627197" y="-1.01353761839e-14" type="line" smooth="yes"/>
      <point x="110.950058537" y="-1.09606605401e-15"/>
      <point x="102.0" y="8.95005853743"/>
      <point x="102.0" y="82.7616271973" type="curve" smooth="yes"/>
      <point x="102.0" y="907.238372803" type="line" smooth="yes"/>
      <point x="102.0" y="981.50876236"/>
      <point x="110.393842148" y="991.28239255"/>
      <point x="183.812341623" y="1002.49910775" type="curve" smooth="yes"/>
      <point x="452.187658377" y="1043.50089225" type="line" smooth="yes"/>
      <point x="524.390729282" y="1054.53191697"/>
      <point x="534.0" y="1046.27923092"/>
      <point x="534.0" y="973.238372803" type="curve" smooth="yes"/>
      <point x="534" y="802" type="line"/>
      <point x="578.173179688" y="912.879675781"/>
      <point x="649.748757706" y="1013.53261917"/>
      <point x="767.879983182" y="1045.49234317" type="curve" smooth="yes"/>
      <point x="834.814450032" y="1063.60107842"/>
      <point x="850.406947059" y="1053.70271822"/>
      <point x="862.501876626" y="985.424890017" type="curve" smooth="yes"/>
      <point x="897.241015" y="789.316850804" type="line" smooth="yes"/>
      <point x="910.084000054" y="716.816128725"/>
      <point x="902.761482106" y="707.668603207"/>
      <point x="829.207862527" y="704.32764317" type="curve" smooth="yes"/>
      <point x="671.622017366" y="697.169762782"/>
      <point x="534.0" y="663.201548584"/>
    </contour>
  </outline>
</glyph>
<glyph name="s" format="1">
  <advance width="947"/>
  <unicode hex="0073"/>
  <outline>
    <contour>
      <point x="454" y="1056" type="curve" smooth="yes"/>
      <point x="581.613620605" y="1056.0"/>
      <point x="697.643061934" y="1036.34483412"/>
      <point x="802.087297921" y="997.039632682" type="curve" smooth="yes"/>
      <point x="869.447755011" y="971.690063987"/>
      <point x="876.055281735" y="957.981885369"/>
      <point x="853.924594314" y="889.4963797" type="curve" smooth="yes"/>
      <point x="830.389015425" y="816.663304492" type="line" smooth="yes"/>
      <point x="807.220729405" y="744.966851806"/>
      <point x="797.858118193" y="740.120540087"/>
      <point x="725.942495188" y="762.599284995" type="curve" smooth="yes"/>
      <point x="659.660155426" y="783.317228401"/>
      <point x="573.14071875" y="804.6"/>
      <point x="509.675" y="804.6" type="curve" smooth="yes"/>
      <point x="461.148" y="804.6"/>
      <point x="423.816" y="792.343"/>
      <point x="423.816" y="754.996" type="curve" smooth="yes"/>
      <point x="423.816" y="639.013"/>
      <point x="896" y="655.909"/>
      <point x="896" y="342" type="curve" smooth="yes"/>
      <point x="896" y="110.021"/>
      <point x="743.239" y="-33"/>
      <point x="527" y="-33" type="curve" smooth="yes"/>
      <point x="373.442469727" y="-33.0"/>
      <point x="239.583076606" y="-10.721278502"/>
      <point x="125.421820638" y="33.836157496" type="curve" smooth="yes"/>
      <point x="58.4855988498" y="59.9615394653"/>
      <point x="52.0121258663" y="73.8959967246"/>
      <point x="75.2195060719" y="141.899017792" type="curve" smooth="yes"/>
      <point x="107.905323906" y="237.676065399" type="line" smooth="yes"/>
      <point x="132.557073865" y="309.911425745"/>
      <point x="140.355398169" y="313.606683492"/>
      <point x="211.871755355" y="286.940849264" type="curve" smooth="yes"/>
      <point x="275.897991138" y="263.067807392"/>
      <point x="364.8828125" y="236.823"/>
      <point x="430.058" y="236.823" type="curve" smooth="yes"/>
      <point x="480.027" y="236.823"/>
      <point x="516" y="252.25"/>
      <point x="516" y="296" type="curve" smooth="yes"/>
      <point x="516" y="401"/>
      <point x="56" y="351.358"/>
      <point x="56" y="712" type="curve" smooth="yes"/>
      <point x="65.7477" y="949.228"/>
      <point x="225.014" y="1056"/>
    </contour>
  </outline>
</glyph>
<glyph name="t" format="1">
  <advance width="890"/>
  <unicode hex="0074"/>
  <outline>
    <contour>
      <point x="701" y="296" type="curve" smooth="yes"/>
      <point x="720.609375" y="296.0"/>
      <point x="741.18006897" y="298.883956909"/>
      <point x="760.59135969" y="303.473691717" type="curve" smooth="yes"/>
      <point x="810.914876536" y="315.372519066"/>
      <point x="815.789071524" y="311.813803967"/>
      <point x="819.782896257" y="260.257157412" type="curve" smooth="yes"/>
      <point x="831.075686806" y="114.477497591" type="line" smooth="yes"/>
      <point x="836.558232723" y="43.7028139336"/>
      <point x="827.570044189" y="29.83633382"/>
      <point x="760.724868391" y="5.94414620381" type="curve" smooth="yes"/>
      <point x="688.463440895" y="-19.8839492798"/>
      <point x="616.272460938" y="-33.0"/>
      <point x="549" y="-33" type="curve" smooth="yes"/>
      <point x="330" y="-33"/>
      <point x="155" y="103"/>
      <point x="155" y="378" type="curve" smooth="yes"/>
      <point x="155.0" y="724.238372803" type="line" smooth="yes"/>
      <point x="155.0" y="798.616331744"/>
      <point x="163.133352882" y="809.033338221"/>
      <point x="235.290571925" y="827.072642981" type="curve" smooth="yes"/>
      <point x="506.709428075" y="894.927357019" type="line" smooth="yes"/>
      <point x="576.98462978" y="912.496157445"/>
      <point x="587.020442747" y="904.676412917"/>
      <point x="587.163884089" y="832.238535064" type="curve" smooth="yes"/>
      <point x="588" y="410" type="line" smooth="yes"/>
      <point x="588" y="323"/>
      <point x="641" y="296"/>
    </contour>
    <contour>
      <point x="20.0" y="818.0" type="line" smooth="yes"/>
      <point x="20.0" y="855.757097779"/>
      <point x="24.3405326519" y="866.487048522"/>
      <point x="50.5920916142" y="893.624736057" type="curve" smooth="yes"/>
      <point x="462.364996172" y="1319.29714794" type="line" smooth="yes"/>
      <point x="489.687472275" y="1347.54190172"/>
      <point x="500.202623289" y="1352.0"/>
      <point x="539.5" y="1352.0" type="curve" smooth="yes"/>
      <point x="541.5" y="1352.0" type="line" smooth="yes"/>
      <point x="582.079511155" y="1352.0"/>
      <point x="587.0" y="1347.07951115"/>
      <point x="587.0" y="1306.5" type="curve" smooth="yes"/>
      <point x="587" y="1026" type="line"/>
      <point x="733.238372803" y="1026.0" type="line" smooth="yes"/>
      <point x="807.049941463" y="1026.0"/>
      <point x="816.0" y="1017.04994146"/>
      <point x="816.0" y="943.238372803" type="curve" smooth="yes"/>
      <point x="816.0" y="854.761627197" type="line" smooth="yes"/>
      <point x="816.0" y="780.950058537"/>
      <point x="807.049941463" y="772.0"/>
      <point x="733.238372803" y="772.0" type="curve" smooth="yes"/>
      <point x="64.0" y="772.0" type="line" smooth="yes"/>
      <point x="24.7582749274" y="772.0"/>
      <point x="20.0" y="776.758274927"/>
      <point x="20.0" y="816.0" type="curve" smooth="yes"/>
    </contour>
  </outline>
</glyph>
<glyph name="u" format="1">
  <advance width="1286"/>
  <unicode hex="0075"/>
  <outline>
    <contour>
      <point x="648" y="-32" type="curve" smooth="yes"/>
      <point x="341.393" y="-32"/>
      <point x="94" y="135.964"/>
      <point x="94" y="440" type="curve" smooth="yes"/>
      <point x="94.0" y="943.238372803" type="line" smooth="yes"/>
      <point x="94.0" y="1017.04994146"/>
      <point x="102.950058537" y="1026.0"/>
      <point x="176.761627197" y="1026.0" type="curve" smooth="yes"/>
      <point x="433.238372803" y="1026.0" type="line" smooth="yes"/>
      <point x="507.049941463" y="1026.0"/>
      <point x="516.0" y="1017.04994146"/>
      <point x="516.0" y="943.238372803" type="curve" smooth="yes"/>
      <point x="516" y="426" type="line" smooth="yes"/>
      <point x="516" y="351.195"/>
      <point x="575.239" y="304"/>
      <point x="650" y="304" type="curve" smooth="yes"/>
      <point x="721.18" y="304"/>
      <point x="776" y="354.914"/>
      <point x="776" y="426" type="curve" smooth="yes"/>
      <point x="776.0" y="943.238372803" type="line" smooth="yes"/>
      <point x="776.0" y="1017.04994146"/>
      <point x="784.950058537" y="1026.0"/>
      <point x="858.761627197" y="1026.0" type="curve" smooth="yes"/>
      <point x="1107.2383728" y="1026.0" type="line" smooth="yes"/>
      <point x="1181.04994146" y="1026.0"/>
      <point x="1190.0" y="1017.04994146"/>
      <point x="1190.0" y="943.238372803" type="curve" smooth="yes"/>
      <point x="1190" y="440" type="line" smooth="yes"/>
      <point x="1190" y="138.125"/>
      <point x="952.687" y="-32"/>
    </contour>
  </outline>
</glyph>
<glyph name="v" format="1">
  <advance width="1168"/>
  <unicode hex="0076"/>
  <outline>
    <contour>
      <point x="395.238372803" y="1026.0" type="line" smooth="yes"/>
      <point x="469.618431908" y="1026.0"/>
      <point x="480.087354433" y="1017.88251054"/>
      <point x="498.611041694" y="945.845948969" type="curve" smooth="yes"/>
      <point x="640" y="396" type="line"/>
      <point x="769.072845564" y="945.431707469" type="line" smooth="yes"/>
      <point x="786.081088969" y="1017.8316625"/>
      <point x="796.390706587" y="1026.0"/>
      <point x="870.761627197" y="1026.0" type="curve" smooth="yes"/>
      <point x="1081.2383728" y="1026.0" type="line" smooth="yes"/>
      <point x="1153.18964921" y="1026.0"/>
      <point x="1160.72640716" y="1015.69722008"/>
      <point x="1138.93810557" y="947.124221818" type="curve" smooth="yes"/>
      <point x="863.061894432" y="78.875778182" type="line" smooth="yes"/>
      <point x="840.542297021" y="8.00121700566"/>
      <point x="829.60459961" y="1.02814002157e-15"/>
      <point x="755.238372803" y="1.01353761839e-14" type="curve" smooth="yes"/>
      <point x="422.761627197" y="-1.01353761839e-14" type="line" smooth="yes"/>
      <point x="348.404516496" y="-1.0292564225e-15"/>
      <point x="337.370283735" y="7.9825115029"/>
      <point x="314.104447618" y="78.6060258705" type="curve" smooth="yes"/>
      <point x="27.8955523823" y="947.393974129" type="line" smooth="yes"/>
      <point x="5.40889731663" y="1015.65228211"/>
      <point x="12.8947623402" y="1026.0"/>
      <point x="84.7616271973" y="1026.0" type="curve" smooth="yes"/>
    </contour>
  </outline>
</glyph>
<glyph name="w" format="1">
  <advance width="1707"/>
  <unicode hex="0077"/>
  <outline>
    <contour>
      <point x="376.238372803" y="1026.0" type="line" smooth="yes"/>
      <point x="450.545052458" y="1026.0"/>
      <point x="460.450791842" y="1017.67045374"/>
      <point x="473.201139979" y="944.465868744" type="curve" smooth="yes"/>
      <point x="575" y="360" type="line"/>
      <point x="699.742040255" y="945.057738098" type="line" smooth="yes"/>
      <point x="715.246908835" y="1017.77775552"/>
      <point x="725.407058515" y="1026.0"/>
      <point x="799.761627197" y="1026.0" type="curve" smooth="yes"/>
      <point x="986.238372803" y="1026.0" type="line" smooth="yes"/>
      <point x="1060.58513063" y="1026.0"/>
      <point x="1070.69210829" y="1017.75701534"/>
      <point x="1085.6421639" y="944.928887284" type="curve" smooth="yes"/>
      <point x="1209" y="344" type="line"/>
      <point x="1314.65815275" y="944.490501451" type="line" smooth="yes"/>
      <point x="1327.53530098" y="1017.67562722"/>
      <point x="1337.45224972" y="1026.0"/>
      <point x="1411.7616272" y="1026.0" type="curve" smooth="yes"/>
      <point x="1582.2383728" y="1026.0" type="line" smooth="yes"/>
      <point x="1654.94756185" y="1026.0"/>
      <point x="1662.96585801" y="1016.15552038"/>
      <point x="1648.25292845" y="944.950493334" type="curve" smooth="yes"/>
      <point x="1469.74707155" y="81.0495066657" type="line" smooth="yes"/>
      <point x="1454.70249212" y="8.23941942956"/>
      <point x="1444.58652795" y="1.03035316181e-15"/>
      <point x="1370.2383728" y="1.01353761839e-14" type="curve" smooth="yes"/>
      <point x="1039.7616272" y="-1.01353761839e-14" type="line" smooth="yes"/>
      <point x="965.417345773" y="-1.0308275558e-15"/>
      <point x="955.325814135" y="8.24917035508"/>
      <point x="940.538950378" y="81.1080808655" type="curve" smooth="yes"/>
      <point x="847" y="542" type="line"/>
      <point x="755.173289192" y="81.1659513161" type="line" smooth="yes"/>
      <point x="740.6457203" y="8.25907780147"/>
      <point x="730.578553483" y="1.03132975211e-15"/>
      <point x="656.238372803" y="1.01353761839e-14" type="curve" smooth="yes"/>
      <point x="349.761627197" y="-1.01353761839e-14" type="line" smooth="yes"/>
      <point x="275.400934373" y="-1.02881773898e-15"/>
      <point x="265.192824711" y="8.20425595743"/>
      <point x="249.196650885" y="80.8240539482" type="curve" smooth="yes"/>
      <point x="58.8033491153" y="945.175946052" type="line" smooth="yes"/>
      <point x="43.1814008921" y="1016.09682604"/>
      <point x="51.1405800804" y="1026.0"/>
      <point x="123.761627197" y="1026.0" type="curve" smooth="yes"/>
    </contour>
  </outline>
</glyph>
<glyph name="x" format="1">
  <advance width="1136"/>
  <unicode hex="0078"/>
  <outline>
    <contour>
      <point x="66.112983188" y="954.754062689" type="line" smooth="yes"/>
      <point x="30.5648138466" y="1014.89377383"/>
      <point x="36.9013580863" y="1026.0"/>
      <point x="106.761627197" y="1026.0" type="curve" smooth="yes"/>
      <point x="373.238372803" y="1026.0" type="line" smooth="yes"/>
      <point x="447.303682849" y="1026.0"/>
      <point x="459.758952178" y="1018.15804804"/>
      <point x="491.773419187" y="951.369246178" type="curve" smooth="yes"/>
      <point x="572" y="784" type="line"/>
      <point x="653.727459903" y="951.610553361" type="line" smooth="yes"/>
      <point x="686.177649496" y="1018.16094219"/>
      <point x="698.721306713" y="1026.0"/>
      <point x="772.761627197" y="1026.0" type="curve" smooth="yes"/>
      <point x="1027.2383728" y="1026.0" type="line" smooth="yes"/>
      <point x="1097.19397915" y="1026.0"/>
      <point x="1103.58371907" y="1014.91733294"/>
      <point x="1068.53342297" y="954.375912394" type="curve" smooth="yes"/>
      <point x="824" y="532" type="line"/>
      <point x="1088.73558464" y="71.7407482655" type="line" smooth="yes"/>
      <point x="1123.62971454" y="11.0751368108"/>
      <point x="1117.22349061" y="1.56467113293e-15"/>
      <point x="1047.2383728" y="1.01353761839e-14" type="curve" smooth="yes"/>
      <point x="792.761627197" y="-1.01353761839e-14" type="line" smooth="yes"/>
      <point x="718.851148194" y="-1.08395303043e-15"/>
      <point x="705.875145668" y="7.8312451812"/>
      <point x="671.431031432" y="73.2251432226" type="curve" smooth="yes"/>
      <point x="572" y="262" type="line"/>
      <point x="474.129328016" y="73.4550289726" type="line" smooth="yes"/>
      <point x="440.065484223" y="7.83203578263"/>
      <point x="427.175661698" y="1.08066976561e-15"/>
      <point x="353.238372803" y="1.01353761839e-14" type="curve" smooth="yes"/>
      <point x="86.7616271973" y="-1.01353761839e-14" type="line" smooth="yes"/>
      <point x="16.8650415248" y="-1.57551319242e-15"/>
      <point x="10.508243598" y="11.0973897248"/>
      <point x="45.8679433975" y="71.3902111778" type="curve" smooth="yes"/>
      <point x="316" y="532" type="line"/>
    </contour>
  </outline>
</glyph>
<glyph name="y" format="1">
  <advance width="1369"/>
  <unicode hex="0079"/>
  <outline>
    <contour>
      <point x="657" y="-136" type="curve" smooth="yes"/>
      <point x="814.695" y="-136"/>
      <point x="838.874" y="25.6151"/>
      <point x="852" y="170" type="curve"/>
      <point x="783.568" y="47.5429"/>
      <point x="673.752" y="-1.53924"/>
      <point x="558.865" y="-1.14648" type="curve" smooth="yes"/>
      <point x="223.5" y="0"/>
      <point x="98" y="187.194"/>
      <point x="98" y="434" type="curve" smooth="yes"/>
      <point x="98.0" y="943.238372803" type="line" smooth="yes"/>
      <point x="98.0" y="1017.04994146"/>
      <point x="106.950058537" y="1026.0"/>
      <point x="180.761627197" y="1026.0" type="curve" smooth="yes"/>
      <point x="445.238372803" y="1026.0" type="line" smooth="yes"/>
      <point x="519.049941463" y="1026.0"/>
      <point x="528.0" y="1017.04994146"/>
      <point x="528.0" y="943.238372803" type="curve" smooth="yes"/>
      <point x="528" y="454" type="line" smooth="yes"/>
      <point x="528" y="376.081"/>
      <point x="590.628" y="308"/>
      <point x="668" y="308" type="curve" smooth="yes"/>
      <point x="769.257" y="308"/>
      <point x="832" y="380.818"/>
      <point x="832" y="482" type="curve" smooth="yes"/>
      <point x="832.0" y="943.238372803" type="line" smooth="yes"/>
      <point x="832.0" y="1017.04994146"/>
      <point x="840.950058537" y="1026.0"/>
      <point x="914.761627197" y="1026.0" type="curve" smooth="yes"/>
      <point x="1181.2383728" y="1026.0" type="line" smooth="yes"/>
      <point x="1255.04994146" y="1026.0"/>
      <point x="1264.0" y="1017.04994146"/>
      <point x="1264.0" y="943.238372803" type="curve" smooth="yes"/>
      <point x="1264" y="260" type="line" smooth="yes"/>
      <point x="1264" y="-164.741"/>
      <point x="1107.82" y="-480"/>
      <point x="690" y="-480" type="curve" smooth="yes"/>
      <point x="664.385742188" y="-480.0"/>
      <point x="632.324765841" y="-477.52032121"/>
      <point x="593.816844133" y="-472.561190459" type="curve" smooth="yes"/>
      <point x="521.357354399" y="-463.22970572"/>
      <point x="512.998427566" y="-452.375644045"/>
      <point x="522.484540598" y="-379.936235437" type="curve" smooth="yes"/>
      <point x="549.09134674" y="-176.756988533" type="line" smooth="yes"/>
      <point x="555.037297367" y="-131.351547383"/>
      <point x="559.51986433" y="-127.85778204"/>
      <point x="605.002754047" y="-133.178980953" type="curve" smooth="yes"/>
      <point x="621.415008093" y="-135.099106717"/>
      <point x="638.483112305" y="-136.0"/>
    </contour>
  </outline>
</glyph>
<glyph name="z" format="1">
  <advance width="1003"/>
  <unicode hex="007A"/>
  <outline>
    <contour>
      <point x="423" y="764" type="line"/>
      <point x="159.761627197" y="764.0" type="line" smooth="yes"/>
      <point x="85.9500585374" y="764.0"/>
      <point x="77.0" y="772.950058537"/>
      <point x="77.0" y="846.761627197" type="curve" smooth="yes"/>
      <point x="77.0" y="943.238372803" type="line" smooth="yes"/>
      <point x="77.0" y="1017.04994146"/>
      <point x="85.9500585374" y="1026.0"/>
      <point x="159.761627197" y="1026.0" type="curve" smooth="yes"/>
      <point x="846.238372803" y="1026.0" type="line" smooth="yes"/>
      <point x="920.049941463" y="1026.0"/>
      <point x="929.0" y="1017.04994146"/>
      <point x="929.0" y="943.238372803" type="curve" smooth="yes"/>
      <point x="929.0" y="886.761627197" type="line" smooth="yes"/>
      <point x="929.0" y="820.504252474"/>
      <point x="920.648086064" y="789.764976876"/>
      <point x="887.118794617" y="732.617568184" type="curve" smooth="yes"/>
      <point x="611" y="262" type="line"/>
      <point x="856.238372803" y="262.0" type="line" smooth="yes"/>
      <point x="930.049941463" y="262.0"/>
      <point x="939.0" y="253.049941463"/>
      <point x="939.0" y="179.238372803" type="curve" smooth="yes"/>
      <point x="939.0" y="82.7616271973" type="line" smooth="yes"/>
      <point x="939.0" y="8.95005853743"/>
      <point x="930.049941463" y="1.09606605401e-15"/>
      <point x="856.238372803" y="1.01353761839e-14" type="curve" smooth="yes"/>
      <point x="145.761627197" y="-1.01353761839e-14" type="line" smooth="yes"/>
      <point x="71.9500585374" y="-1.09606605401e-15"/>
      <point x="63.0" y="8.95005853743"/>
      <point x="63.0" y="82.7616271973" type="curve" smooth="yes"/>
      <point x="63.0" y="137.238372803" type="line" smooth="yes"/>
      <point x="63.0" y="204.827005174"/>
      <point x="71.373473631" y="232.653249042"/>
      <point x="108.673402711" y="289.017586318" type="curve" smooth="yes"/>
    </contour>
  </outline>
</glyph>
<glyph name="braceleft" format="1">
  <advance width="728"/>
  <unicode hex="007B"/>
  <outline>
    <contour>
      <point x="138" y="488" type="curve" smooth="yes"/>
      <point x="138.0" y="535.455374023"/>
      <point x="118.586957996" y="567.970014693"/>
      <point x="87.2892425456" y="587.990027093" type="curve" smooth="yes"/>
      <point x="10.6762557467" y="636.996573532"/>
      <point x="12.0" y="634.578426082"/>
      <point x="12.0" y="715.149822388" type="curve"/>
      <point x="12.0" y="659.501032802" type="line"/>
      <point x="12.0" y="749.85960322"/>
      <point x="10.7537517671" y="747.614630131"/>
      <point x="87.4421043574" y="795.401321007" type="curve" smooth="yes"/>
      <point x="118.650485583" y="814.848149841"/>
      <point x="138.0" y="846.607703125"/>
      <point x="138" y="894" type="curve" smooth="yes"/>
      <point x="138.0" y="1206.58420532"/>
      <point x="308.337792544" y="1395.54865119"/>
      <point x="577.958492477" y="1446.88679268" type="curve" smooth="yes"/>
      <point x="648.601912324" y="1460.33791822"/>
      <point x="660.0" y="1450.90534416"/>
      <point x="660.0" y="1378.99271978" type="curve"/>
      <point x="660.0" y="1433.82742929" type="line"/>
      <point x="660.0" y="1314.35477649"/>
      <point x="663.718267579" y="1326.19504752"/>
      <point x="595.416707005" y="1228.17152183" type="curve" smooth="yes"/>
      <point x="543.563953629" y="1153.75463207"/>
      <point x="534.0" y="1021.33207031"/>
      <point x="534" y="894" type="curve" smooth="yes"/>
      <point x="534" y="785.978"/>
      <point x="457.193" y="732.696"/>
      <point x="378" y="692" type="curve"/>
      <point x="458.938" y="649.866"/>
      <point x="534" y="598.821"/>
      <point x="534" y="488" type="curve" smooth="yes"/>
      <point x="534.0" y="360.679296875"/>
      <point x="545.657542515" y="230.776258945"/>
      <point x="596.247466582" y="156.821519841" type="curve" smooth="yes"/>
      <point x="662.685297088" y="59.6995630001"/>
      <point x="660.0" y="68.3811398771"/>
      <point x="660.0" y="-24.3749429573" type="curve"/>
      <point x="660.0" y="4.85700942024" type="line"/>
      <point x="660.0" y="-67.0347591262"/>
      <point x="648.566721307" y="-76.5591649764"/>
      <point x="577.857963073" y="-63.5707896429" type="curve" smooth="yes"/>
      <point x="307.601861933" y="-13.9278915711"/>
      <point x="138.0" y="179.029295166"/>
    </contour>
  </outline>
</glyph>
<glyph name="bar" format="1">
  <advance width="434"/>
  <unicode hex="007C"/>
  <outline>
    <contour>
      <point x="232.238372803" y="1408.0" type="line" smooth="yes"/>
      <point x="306.049941463" y="1408.0"/>
      <point x="315.0" y="1399.04994146"/>
      <point x="315.0" y="1325.2383728" type="curve" smooth="yes"/>
      <point x="315.0" y="82.7616271973" type="line" smooth="yes"/>
      <point x="315.0" y="8.95005853743"/>
      <point x="306.049941463" y="1.09606605401e-15"/>
      <point x="232.238372803" y="1.01353761839e-14" type="curve" smooth="yes"/>
      <point x="201.761627197" y="-1.01353761839e-14" type="line" smooth="yes"/>
      <point x="127.950058537" y="-1.09606605401e-15"/>
      <point x="119.0" y="8.95005853743"/>
      <point x="119.0" y="82.7616271973" type="curve" smooth="yes"/>
      <point x="119.0" y="1325.2383728" type="line" smooth="yes"/>
      <point x="119.0" y="1399.04994146"/>
      <point x="127.950058537" y="1408.0"/>
      <point x="201.761627197" y="1408.0" type="curve" smooth="yes"/>
    </contour>
  </outline>
</glyph>
<glyph name="braceright" format="1">
  <advance width="728"/>
  <unicode hex="007D"/>
  <outline>
    <contour>
      <point x="640.56490306" y="795.402747882" type="curve" smooth="yes"/>
      <point x="717.108069802" y="747.704145374"/>
      <point x="716.0" y="749.700258584"/>
      <point x="716.0" y="669.394649612" type="curve"/>
      <point x="716.0" y="725.534867114" type="line"/>
      <point x="716.0" y="634.376148956"/>
      <point x="717.497349063" y="637.111346694"/>
      <point x="640.704004237" y="587.992164222" type="curve" smooth="yes"/>
      <point x="609.407378372" y="567.973962383"/>
      <point x="590.0" y="535.460796875"/>
      <point x="590" y="488" type="curve" smooth="yes"/>
      <point x="590.0" y="174.486488281"/>
      <point x="420.54463754" y="-12.2828833006"/>
      <point x="149.988007646" y="-63.0388731592" type="curve" smooth="yes"/>
      <point x="79.3460485726" y="-76.2911913883"/>
      <point x="68.0" y="-66.8757180364"/>
      <point x="68.0" y="4.99854940447" type="curve"/>
      <point x="68.0" y="-49.5695909367" type="line"/>
      <point x="68.0" y="69.7093139646"/>
      <point x="64.3613601521" y="58.0737412902"/>
      <point x="132.316912831" y="156.101798573" type="curve" smooth="yes"/>
      <point x="183.764175016" y="230.316119047"/>
      <point x="194.0" y="361.74064917"/>
      <point x="194" y="488" type="curve" smooth="yes"/>
      <point x="194" y="598.761"/>
      <point x="269.151" y="649.914"/>
      <point x="350" y="692" type="curve"/>
      <point x="270.714" y="732.746"/>
      <point x="194" y="785.916"/>
      <point x="194" y="894" type="curve" smooth="yes"/>
      <point x="194.0" y="1022.58533203"/>
      <point x="182.610916433" y="1153.12081078"/>
      <point x="131.776675419" y="1227.27472991" type="curve" smooth="yes"/>
      <point x="65.3249372368" y="1324.21051023"/>
      <point x="68.0" y="1315.57719307"/>
      <point x="68.0" y="1408.30829031" type="curve"/>
      <point x="68.0" y="1379.06800916" type="line"/>
      <point x="68.0" y="1450.93003887"/>
      <point x="79.3828816623" y="1460.37445777"/>
      <point x="150.010577887" y="1447.11248811" type="curve" smooth="yes"/>
      <point x="420.992477417" y="1396.22942213"/>
      <point x="590.0" y="1206.07745972"/>
      <point x="590" y="894" type="curve" smooth="yes"/>
      <point x="590.0" y="846.612515625"/>
      <point x="609.355376831" y="814.851261047"/>
    </contour>
  </outline>
</glyph>
